{
.appVersion = "3343";
DisplayStrings = (
"/Eacute_E"
);
classes = (
{
code = "A Acircumflex Adieresis Agrave Aring B C Ccedilla D E Eacute Ecircumflex Edieresis Egrave F G H I Idieresis J K L M N O Odieresis Oslash OE P Q R S T U Udieresis V W X Y Z";
name = Uppercase;
}
);
copyright = "Sous licence CUTE (Conditions d'Utilisation Typographiques Engageantes)";
customParameters = (
{
name = unicodeRanges;
value = (
);
},
{
name = "Enforce Compatibility Check";
value = 0;
},
{
name = Axes;
value = (
{
Name = Weight;
Tag = wght;
}
);
}
);
date = "2019-12-07 12:26:27 +0000";
designer = "Quentin Lamouroux";
designerURL = "http://www.quentinlamouroux.com/";
disablesNiceNames = 1;
familyName = Homoneta;
featurePrefixes = (
{
automatic = 1;
code = "languagesystem DFLT dflt;\012";
name = Languagesystems;
}
);
features = (
{
automatic = 1;
code = "feature ordn;\012feature onum;\012feature ss01;\012feature ss02;\012";
name = aalt;
},
{
automatic = 1;
code = "sub N o period by numero;\012";
name = ordn;
},
{
automatic = 1;
code = "sub zero by zero.osf;\012sub one by one.osf;\012sub two by two.osf;\012sub three by three.osf;\012sub four by four.osf;\012sub five by five.osf;\012sub six by six.osf;\012sub seven by seven.osf;\012sub eight by eight.osf;\012sub nine by nine.osf;\012";
name = onum;
},
{
code = "";
disabled = 1;
name = c2sc;
},
{
code = "";
disabled = 1;
name = smcp;
},
{
code = "";
disabled = 1;
name = dlig;
},
{

glyphs = (
{
glyphname = A;
lastChange = "2022-06-21 15:32:49 +0000";
layers = (
{
background = {
paths = (
{
closed = 1;
nodes = (
"202 0 LINE",
"202 17 LINE",
"121 34 LINE",
"197 256 LINE",
"378 256 LINE",
"449 34 LINE",
"368 18 LINE",
"368 0 LINE",
"599 0 LINE",
"599 18 LINE",
"529 34 LINE",
"351 600 LINE",
"256 600 LINE",
"71 34 LINE",
"-10 17 LINE",
"-10 0 LINE"
);
},
{
closed = 1;
nodes = (
"291 555 LINE",
"369 281 LINE",
"203 280 LINE"
);
}
);
};
layerId = "A0FA55D0-E595-4D47-A77D-3C8049EF6A20";
paths = (
{
closed = 1;
nodes = (
"183 0 LINE",
"183 28 LINE",
"135 28 LINE",
"116 50 LINE",
"116 51 LINE",
"182 243 LINE",
"197 255 LINE",
"364 255 LINE",
"381 242 LINE",
"465 0 LINE",
"559 0 LINE",
"347 600 LINE",
"201 600 LINE",
"201 572 LINE",
"251 572 LINE",
"69 50 LINE",
"68 50 LINE",
"60 28 LINE",
"10 28 LINE",
"10 0 LINE"
);
},
{
closed = 1;
nodes = (
"282 532 LINE",
"364 293 LINE",
"357 279 LINE",
"207 279 LINE",
"200 293 LINE"
);
}
);
width = 619;
},
{
associatedMasterId = "A0FA55D0-E595-4D47-A77D-3C8049EF6A20";
layerId = "31661EA6-36AE-4A1C-8B0D-A82FB94C0C96";
paths = (
{
closed = 1;
nodes = (
"394 687 LINE",
"313 687 LINE",
"115 92 LINE",
"97 36 LINE",
"38 15 LINE",
"38 0 LINE",
"202 0 LINE",
"202 15 LINE",
"144 36 LINE",
"145 39 LINE",
"163 92 LINE",
"198 213 LINE",
"476 213 LINE",
"532 43 LINE",
"534 36 LINE",
"476 15 LINE",
"476 0 LINE",
"666 0 LINE",
"666 15 LINE",
"610 36 LINE"
);
},
{
closed = 1;
nodes = (
"340 627 LINE",
"464 242 LINE",
"214 242 LINE"
);
}
);
width = 680;
},
{
layerId = "715E6458-225A-4B30-851F-23A0A4A3DE49";
paths = (
{
closed = 1;
nodes = (
"408 48 LINE",
"408 600 LINE",
"322 600 LINE",
"3 28 LINE",
"-50 28 LINE",
"-50 0 LINE",
"132 0 LINE",
"132 28 LINE",
"84 28 LINE",
"65 50 LINE",
"65 51 LINE",
"172 242 LINE",
"172 243 LINE",
"197 255 LINE",
"316 255 LINE",
"333 242 LINE",
"333 51 LINE",
"314 28 LINE",
"266 28 LINE",
"266 0 LINE",
"465 0 LINE",
"465 28 LINE",
"415 28 LINE"
);
},
{
closed = 1;
nodes = (
"207 279 LINE",
"200 293 LINE",
"200 294 LINE",
"333 532 LINE",
"333 292 LINE",
"317 279 LINE"
);
}
);
width = 515;
}
);
leftKerningGroup = A;
rightKerningGroup = A;
unicode = 0041;
},
{
glyphname = Agrave;
lastChange = "2021-08-31 16:17:04 +0000";
layers = (
{
background = {
paths = (
{
closed = 1;
nodes = (
"169 0 LINE",
"169 18 LINE",
"98 34 LINE",
"174 256 LINE",
"355 256 LINE",
"426 34 LINE",
"345 18 LINE",
"345 0 LINE",
"571 0 LINE",
"571 18 LINE",
"501 34 LINE",
"323 600 LINE",
"233 600 LINE",
"48 34 LINE",
"-10 18 LINE",
"-10 0 LINE"
);
},
{
closed = 1;
nodes = (
"268 555 LINE",
"346 281 LINE",
"180 280 LINE"
);
},
{
closed = 1;
nodes = (
"359 725 LINE",
"188 832 LINE",
"156 779 LINE",
"344 703 LINE"
);
}
);
};
components = (
{
name = gravecomb;
transform = "{1, 0, 0, 1, 188, 200}";
},
{
name = A;
}
);
layerId = "A0FA55D0-E595-4D47-A77D-3C8049EF6A20";
width = 619;
},
{
components = (
{
name = gravecomb;
transform = "{1, 0, 0, 1, 261, 200}";
},
{
name = A;
}
);
layerId = "715E6458-225A-4B30-851F-23A0A4A3DE49";
width = 515;
}
);
leftKerningGroup = A;
leftMetricsKey = A;
rightMetricsKey = A;
unicode = 00C0;
},
{
glyphname = B;
lastChange = "2022-06-21 15:32:49 +0000";
layers = (
{
background = {
paths = (
{
closed = 1;
nodes = (
"278 0 LINE SMOOTH",
"391 0 OFFCURVE",
"481 58 OFFCURVE",
"481 183 CURVE SMOOTH",
"481 278 OFFCURVE",
"419 321 OFFCURVE",
"347 333 CURVE",
"405 346 OFFCURVE",
"443 400 OFFCURVE",
"443 471 CURVE SMOOTH",
"443 563 OFFCURVE",
"357 600 OFFCURVE",
"250 600 CURVE SMOOTH",
"14 600 LINE",
"14 584 LINE",
"96 565 LINE",
"96 34 LINE",
"14 16 LINE",
"14 0 LINE"
);
},
{
closed = 1;
nodes = (
"172 314 LINE",
"296 314 LINE SMOOTH",
"375 314 OFFCURVE",
"405 247 OFFCURVE",
"405 178 CURVE SMOOTH",
"405 111 OFFCURVE",
"374 28 OFFCURVE",
"295 28 CURVE SMOOTH",
"172 28 LINE"
);
},
{
closed = 1;
nodes = (
"172 573 LINE",
"271 573 LINE SMOOTH",
"335 573 OFFCURVE",
"369 531 OFFCURVE",
"369 469 CURVE SMOOTH",
"369 409 OFFCURVE",
"338 345 OFFCURVE",
"278 345 CURVE SMOOTH",
"172 345 LINE"
);
}
);
};
layerId = "A0FA55D0-E595-4D47-A77D-3C8049EF6A20";
paths = (
{
closed = 1;
nodes = (
"278 0 LINE SMOOTH",
"401 0 OFFCURVE",
"491 58 OFFCURVE",
"491 183 CURVE SMOOTH",
"491 278 OFFCURVE",
"429 321 OFFCURVE",
"347 333 CURVE",
"415 346 OFFCURVE",
"453 400 OFFCURVE",
"453 471 CURVE SMOOTH",
"453 563 OFFCURVE",
"367 600 OFFCURVE",
"250 600 CURVE SMOOTH",
"89 600 LINE",
"89 50 LINE",
"70 28 LINE",
"20 28 LINE",
"20 0 LINE"
);
},
{
closed = 1;
nodes = (
"172 292 LINE",
"191 314 LINE",
"296 314 LINE SMOOTH",
"375 314 OFFCURVE",
"405 247 OFFCURVE",
"405 178 CURVE SMOOTH",
"405 111 OFFCURVE",
"374 28 OFFCURVE",
"295 28 CURVE SMOOTH",
"191 28 LINE",
"172 50 LINE"
);
},
{
closed = 1;
nodes = (
"172 550 LINE",
"191 572 LINE",
"271 572 LINE SMOOTH",
"335 572 OFFCURVE",
"369 531 OFFCURVE",
"369 469 CURVE SMOOTH",
"369 409 OFFCURVE",
"338 345 OFFCURVE",
"278 345 CURVE SMOOTH",
"191 345 LINE",
"172 367 LINE"
);
}
);
width = 521;
},
{
associatedMasterId = "A0FA55D0-E595-4D47-A77D-3C8049EF6A20";
background = {
paths = (
{
closed = 1;
nodes = (
"278 0 LINE SMOOTH",
"391 0 OFFCURVE",
"481 58 OFFCURVE",
"481 183 CURVE SMOOTH",
"481 278 OFFCURVE",
"419 321 OFFCURVE",
"347 333 CURVE",
"405 346 OFFCURVE",
"443 400 OFFCURVE",
"443 471 CURVE SMOOTH",
"443 563 OFFCURVE",
"357 600 OFFCURVE",
"250 600 CURVE SMOOTH",
"14 600 LINE",
"14 584 LINE",
"96 565 LINE",
"96 34 LINE",
"14 16 LINE",
"14 0 LINE"
);
},
{
closed = 1;
nodes = (
"172 314 LINE",
"296 314 LINE SMOOTH",
"375 314 OFFCURVE",
"405 247 OFFCURVE",
"405 178 CURVE SMOOTH",
"405 111 OFFCURVE",
"374 28 OFFCURVE",
"295 28 CURVE SMOOTH",
"172 28 LINE"
);
},
{
closed = 1;
nodes = (
"172 573 LINE",
"271 573 LINE SMOOTH",
"335 573 OFFCURVE",
"369 531 OFFCURVE",
"369 469 CURVE SMOOTH",
"369 409 OFFCURVE",
"338 345 OFFCURVE",
"278 345 CURVE SMOOTH",
"172 345 LINE"
);
}
);
};
layerId = "4971E016-A2E9-49F1-9C0F-C0C74E048200";
name = "Oct 21 20, 11:53";
paths = (
{
closed = 1;
nodes = (
"415 346 OFFCURVE",
"453 400 OFFCURVE",
"453 471 CURVE SMOOTH",
"453 563 OFFCURVE",
"367 600 OFFCURVE",
"250 600 CURVE SMOOTH",
"20 600 LINE",
"20 572 LINE",
"70 572 LINE",
"89 550 LINE",
"89 50 LINE",
"70 28 LINE",
"20 28 LINE",
"20 0 LINE",
"278 0 LINE SMOOTH",
"401 0 OFFCURVE",
"491 58 OFFCURVE",
"491 183 CURVE SMOOTH",
"491 278 OFFCURVE",
"429 321 OFFCURVE",
"347 333 CURVE"
);
},
{
closed = 1;
nodes = (
"172 550 LINE",
"191 572 LINE",
"271 572 LINE SMOOTH",
"335 572 OFFCURVE",
"369 531 OFFCURVE",
"369 469 CURVE SMOOTH",
"369 409 OFFCURVE",
"338 345 OFFCURVE",
"278 345 CURVE SMOOTH",
"191 345 LINE",
"172 367 LINE"
);
},
{
closed = 1;
nodes = (
"191 28 LINE",
"172 50 LINE",
"172 292 LINE",
"191 314 LINE",
"296 314 LINE SMOOTH",
"375 314 OFFCURVE",
"405 247 OFFCURVE",
"405 178 CURVE SMOOTH",
"405 111 OFFCURVE",
"374 28 OFFCURVE",
"295 28 CURVE SMOOTH"
);
}
);
width = 521;
},
{
layerId = "715E6458-225A-4B30-851F-23A0A4A3DE49";
paths = (
{
closed = 1;
nodes = (
"452 342 OFFCURVE",
"504 369 OFFCURVE",
"522 471 CURVE SMOOTH",
"535 547 OFFCURVE",
"478 600 OFFCURVE",
"393 600 CURVE",
"189 600 LINE",
"63 28 LINE",
"0 28 LINE",
"0 0 LINE",
"261 0 LINE SMOOTH",
"394 0 OFFCURVE",
"470 27 OFFCURVE",
"490 173 CURVE SMOOTH",
"498 235 OFFCURVE",
"478 318 OFFCURVE",
"360 330 CURVE"
);
},
{
closed = 1;
nodes = (
"256 550 LINE",
"285 572 LINE",
"360 572 LINE SMOOTH",
"404 572 OFFCURVE",
"457 530 OFFCURVE",
"448 469 CURVE SMOOTH",
"437 393 OFFCURVE",
"363 345 OFFCURVE",
"303 345 CURVE SMOOTH",
"236 345 LINE",
"217 367 LINE"
);
},
{
closed = 1;
nodes = (
"174 28 LINE",
"145 50 LINE",
"201 292 LINE",
"230 314 LINE",
"305 314 LINE SMOOTH",
"384 314 OFFCURVE",
"415 234 OFFCURVE",
"404 168 CURVE SMOOTH",
"393 101 OFFCURVE",
"347 28 OFFCURVE",
"268 28 CURVE SMOOTH"
);
}
);
width = 544;
}
);
leftKerningGroup = uppercase;
unicode = 0042;
},
{
glyphname = C;
lastChange = "2022-06-21 15:32:49 +0000";
layers = (
{
background = {
paths = (
{
closed = 1;
nodes = (
"380 -10 OFFCURVE",
"480 16 OFFCURVE",
"502 104 CURVE",
"428 102 LINE",
"426 38 OFFCURVE",
"373 16 OFFCURVE",
"297 16 CURVE SMOOTH",
"199 16 OFFCURVE",
"133 136 OFFCURVE",
"130 295 CURVE SMOOTH",
"127 475 OFFCURVE",
"199 580 OFFCURVE",
"297 580 CURVE SMOOTH",
"374 580 OFFCURVE",
"431 560 OFFCURVE",
"431 490 CURVE",
"424 409 LINE",
"443 403 LINE",
"503 525 LINE",
"462 578 OFFCURVE",
"379 605 OFFCURVE",
"297 605 CURVE SMOOTH",
"147 605 OFFCURVE",
"39 489 OFFCURVE",
"41 301 CURVE SMOOTH",
"43 127 OFFCURVE",
"137 -10 OFFCURVE",
"297 -10 CURVE SMOOTH"
);
}
);
};
layerId = "A0FA55D0-E595-4D47-A77D-3C8049EF6A20";
paths = (
{
closed = 1;
nodes = (
"421 -10 OFFCURVE",
"522 88 OFFCURVE",
"536 196 CURVE",
"504 207 LINE",
"476 87 OFFCURVE",
"373 33 OFFCURVE",
"312 33 CURVE SMOOTH",
"217 33 OFFCURVE",
"135 132 OFFCURVE",
"131 303 CURVE SMOOTH",
"127 478 OFFCURVE",
"199 579 OFFCURVE",
"305 581 CURVE SMOOTH",
"422 584 OFFCURVE",
"484 485 OFFCURVE",
"493 379 CURVE",
"528 379 LINE",
"528 584 LINE",
"496 584 LINE",
"496 555 LINE",
"473 555 LINE",
"473 555 OFFCURVE",
"425 610 OFFCURVE",
"303 610 CURVE SMOOTH",
"148 610 OFFCURVE",
"40 495 OFFCURVE",
"40 305 CURVE SMOOTH",
"40 127 OFFCURVE",
"144 -10 OFFCURVE",
"312 -10 CURVE SMOOTH"
);
}
);
width = 596;
},
{
associatedMasterId = "A0FA55D0-E595-4D47-A77D-3C8049EF6A20";
background = {
paths = (
{
closed = 1;
nodes = (
"399 -10 OFFCURVE",
"499 16 OFFCURVE",
"521 104 CURVE",
"447 102 LINE",
"445 38 OFFCURVE",
"392 16 OFFCURVE",
"316 16 CURVE SMOOTH",
"218 16 OFFCURVE",
"152 136 OFFCURVE",
"149 295 CURVE SMOOTH",
"146 475 OFFCURVE",
"218 580 OFFCURVE",
"316 580 CURVE SMOOTH",
"393 580 OFFCURVE",
"450 560 OFFCURVE",
"450 490 CURVE",
"443 409 LINE",
"462 403 LINE",
"522 525 LINE",
"481 578 OFFCURVE",
"398 605 OFFCURVE",
"316 605 CURVE SMOOTH",
"166 605 OFFCURVE",
"58 489 OFFCURVE",
"60 301 CURVE SMOOTH",
"62 127 OFFCURVE",
"156 -10 OFFCURVE",
"316 -10 CURVE SMOOTH"
);
}
);
};
layerId = "D2A814C8-CFB1-4634-887D-D8A326C9DD0D";
name = "Apr 15 20, 14:46";
paths = (
{
closed = 1;
nodes = (
"399 -10 OFFCURVE",
"499 16 OFFCURVE",
"521 104 CURVE",
"447 102 LINE",
"445 38 OFFCURVE",
"392 16 OFFCURVE",
"316 16 CURVE SMOOTH",
"218 16 OFFCURVE",
"152 136 OFFCURVE",
"149 295 CURVE SMOOTH",
"146 475 OFFCURVE",
"218 580 OFFCURVE",
"316 580 CURVE SMOOTH",
"393 580 OFFCURVE",
"450 560 OFFCURVE",
"450 490 CURVE",
"443 409 LINE",
"462 403 LINE",
"522 525 LINE",
"481 578 OFFCURVE",
"398 605 OFFCURVE",
"316 605 CURVE SMOOTH",
"166 605 OFFCURVE",
"58 489 OFFCURVE",
"60 301 CURVE SMOOTH",
"62 127 OFFCURVE",
"156 -10 OFFCURVE",
"316 -10 CURVE SMOOTH"
);
}
);
width = 552;
},
{
layerId = "715E6458-225A-4B30-851F-23A0A4A3DE49";
paths = (
{
closed = 1;
nodes = (
"516 546 LINE",
"490 546 LINE",
"460 595 OFFCURVE",
"412 607 OFFCURVE",
"354 611 CURVE SMOOTH",
"177 618 OFFCURVE",
"52 463 OFFCURVE",
"32 277 CURVE SMOOTH",
"18 127 OFFCURVE",
"94 -10 OFFCURVE",
"245 -10 CURVE SMOOTH",
"337 -10 OFFCURVE",
"432 24 OFFCURVE",
"478 175 CURVE",
"441 175 LINE",
"417 93 OFFCURVE",
"350 22 OFFCURVE",
"255 22 CURVE SMOOTH",
"172 22 OFFCURVE",
"114 133 OFFCURVE",
"133 274 CURVE SMOOTH",
"154 440 OFFCURVE",
"222 592 OFFCURVE",
"350 584 CURVE SMOOTH",
"436 584 OFFCURVE",
"494 484 OFFCURVE",
"485 390 CURVE",
"515 390 LINE",
"549 575 LINE",
"523 575 LINE"
);
}
);
width = 569;
}
);
unicode = 0043;
},
{
glyphname = Ccedilla;
lastChange = "2022-06-21 15:32:49 +0000";
layers = (
{
components = (
{
name = C;
}
);
layerId = "A0FA55D0-E595-4D47-A77D-3C8049EF6A20";
paths = (
{
closed = 1;
nodes = (
"314 -180 OFFCURVE",
"341 -139 OFFCURVE",
"340 -100 CURVE SMOOTH",
"339 -62 OFFCURVE",
"318 -30 OFFCURVE",
"257 -30 CURVE",
"257 -17 LINE",
"271 11 LINE",
"228 26 LINE",
"197 -38 LINE",
"197 -67 LINE",
"239 -65 OFFCURVE",
"309 -62 OFFCURVE",
"299 -120 CURVE SMOOTH",
"295 -144 OFFCURVE",
"277 -154 OFFCURVE",
"258 -154 CURVE SMOOTH",
"235 -154 OFFCURVE",
"213 -141 OFFCURVE",
"200 -117 CURVE",
"183 -134 LINE",
"193 -160 OFFCURVE",
"218 -180 OFFCURVE",
"260 -180 CURVE SMOOTH"
);
}
);
width = 596;
},
{
components = (
{
name = C;
}
);
layerId = "715E6458-225A-4B30-851F-23A0A4A3DE49";
paths = (
{
closed = 1;
nodes = (
"207 -17 LINE",
"221 11 LINE",
"178 26 LINE",
"147 -38 LINE",
"147 -67 LINE",
"189 -65 OFFCURVE",
"259 -62 OFFCURVE",
"249 -120 CURVE SMOOTH",
"245 -144 OFFCURVE",
"227 -154 OFFCURVE",
"208 -154 CURVE SMOOTH",
"185 -154 OFFCURVE",
"163 -141 OFFCURVE",
"150 -117 CURVE",
"133 -134 LINE",
"143 -160 OFFCURVE",
"168 -180 OFFCURVE",
"210 -180 CURVE SMOOTH",
"264 -180 OFFCURVE",
"291 -139 OFFCURVE",
"290 -100 CURVE SMOOTH",
"289 -62 OFFCURVE",
"268 -30 OFFCURVE",
"207 -30 CURVE"
);
}
);
width = 569;
}
);
leftMetricsKey = C;
rightMetricsKey = C;
unicode = 00C7;
},
{
glyphname = D;
lastChange = "2022-06-21 15:32:49 +0000";
layers = (
{
background = {
paths = (
{
closed = 1;
nodes = (
"292 0 LINE SMOOTH",
"435 0 OFFCURVE",
"534 115 OFFCURVE",
"534 316 CURVE SMOOTH",
"534 524 OFFCURVE",
"435 608 OFFCURVE",
"292 608 CURVE SMOOTH",
"11 608 LINE",
"11 592 LINE",
"92 574 LINE",
"92 34 LINE",
"11 16 LINE",
"11 0 LINE"
);
},
{
closed = 1;
nodes = (
"175 582 LINE",
"290 582 LINE SMOOTH",
"363 582 OFFCURVE",
"448 521 OFFCURVE",
"448 308 CURVE SMOOTH",
"448 128 OFFCURVE",
"363 34 OFFCURVE",
"290 34 CURVE SMOOTH",
"175 34 LINE"
);
}
);
};
layerId = "A0FA55D0-E595-4D47-A77D-3C8049EF6A20";
paths = (
{
closed = 1;
nodes = (
"292 0 LINE SMOOTH",
"435 0 OFFCURVE",
"534 115 OFFCURVE",
"534 316 CURVE SMOOTH",
"534 524 OFFCURVE",
"435 608 OFFCURVE",
"292 608 CURVE SMOOTH",
"89 608 LINE",
"89 50 LINE",
"70 28 LINE",
"20 28 LINE",
"20 0 LINE"
);
},
{
closed = 1;
nodes = (
"175 558 LINE",
"194 580 LINE",
"290 580 LINE SMOOTH",
"363 580 OFFCURVE",
"448 521 OFFCURVE",
"448 308 CURVE SMOOTH",
"448 128 OFFCURVE",
"363 28 OFFCURVE",
"290 28 CURVE SMOOTH",
"194 28 LINE",
"175 50 LINE"
);
}
);
width = 574;
},
{
associatedMasterId = "A0FA55D0-E595-4D47-A77D-3C8049EF6A20";
background = {
paths = (
{
closed = 1;
nodes = (
"292 0 LINE SMOOTH",
"435 0 OFFCURVE",
"534 115 OFFCURVE",
"534 316 CURVE SMOOTH",
"534 524 OFFCURVE",
"435 608 OFFCURVE",
"292 608 CURVE SMOOTH",
"11 608 LINE",
"11 592 LINE",
"92 574 LINE",
"92 34 LINE",
"11 16 LINE",
"11 0 LINE"
);
},
{
closed = 1;
nodes = (
"175 582 LINE",
"290 582 LINE SMOOTH",
"363 582 OFFCURVE",
"448 521 OFFCURVE",
"448 308 CURVE SMOOTH",
"448 128 OFFCURVE",
"363 34 OFFCURVE",
"290 34 CURVE SMOOTH",
"175 34 LINE"
);
}
);
};
layerId = "CD491ACD-71CA-4407-A137-61003D170C32";
name = "Oct 21 20, 11:53";
paths = (
{
closed = 1;
nodes = (
"20 608 LINE",
"20 581 LINE",
"70 580 LINE",
"89 558 LINE",
"89 50 LINE",
"70 28 LINE",
"20 28 LINE",
"20 0 LINE",
"292 0 LINE SMOOTH",
"435 0 OFFCURVE",
"534 115 OFFCURVE",
"534 316 CURVE SMOOTH",
"534 524 OFFCURVE",
"435 608 OFFCURVE",
"292 608 CURVE SMOOTH"
);
},
{
closed = 1;
nodes = (
"194 28 LINE",
"175 50 LINE",
"175 558 LINE",
"194 580 LINE",
"290 580 LINE SMOOTH",
"363 580 OFFCURVE",
"448 521 OFFCURVE",
"448 308 CURVE SMOOTH",
"448 128 OFFCURVE",
"363 28 OFFCURVE",
"290 28 CURVE SMOOTH"
);
}
);
width = 574;
},
{
associatedMasterId = "A0FA55D0-E595-4D47-A77D-3C8049EF6A20";
background = {
paths = (
{
closed = 1;
nodes = (
"292 0 LINE SMOOTH",
"435 0 OFFCURVE",
"534 115 OFFCURVE",
"534 316 CURVE SMOOTH",
"534 524 OFFCURVE",
"435 608 OFFCURVE",
"292 608 CURVE SMOOTH",
"11 608 LINE",
"11 592 LINE",
"92 574 LINE",
"92 34 LINE",
"11 16 LINE",
"11 0 LINE"
);
},
{
closed = 1;
nodes = (
"175 582 LINE",
"290 582 LINE SMOOTH",
"363 582 OFFCURVE",
"448 521 OFFCURVE",
"448 308 CURVE SMOOTH",
"448 128 OFFCURVE",
"363 34 OFFCURVE",
"290 34 CURVE SMOOTH",
"175 34 LINE"
);
}
);
};
layerId = "4EDF267C-9032-4DFB-B3F6-8880ED5F10CB";
name = "Oct 21 20, 11:53";
paths = (
{
closed = 1;
nodes = (
"20 608 LINE",
"20 581 LINE",
"70 580 LINE",
"89 558 LINE",
"89 0 LINE",
"292 0 LINE",
"435 0 OFFCURVE",
"534 115 OFFCURVE",
"534 316 CURVE SMOOTH",
"534 524 OFFCURVE",
"435 608 OFFCURVE",
"292 608 CURVE SMOOTH"
);
},
{
closed = 1;
nodes = (
"194 28 LINE",
"175 50 LINE",
"175 558 LINE",
"194 580 LINE",
"290 580 LINE SMOOTH",
"363 580 OFFCURVE",
"448 521 OFFCURVE",
"448 308 CURVE SMOOTH",
"448 128 OFFCURVE",
"363 28 OFFCURVE",
"290 28 CURVE SMOOTH"
);
}
);
width = 574;
},
{
layerId = "715E6458-225A-4B30-851F-23A0A4A3DE49";
paths = (
{
closed = 1;
nodes = (
"164 608 LINE",
"44 28 LINE",
"-20 28 LINE",
"-20 0 LINE",
"237 0 LINE SMOOTH",
"380 0 OFFCURVE",
"534 105 OFFCURVE",
"564 306 CURVE SMOOTH",
"595 512 OFFCURVE",
"495 608 OFFCURVE",
"352 608 CURVE"
);
},
{
closed = 1;
nodes = (
"149 28 LINE",
"130 50 LINE",
"235 558 LINE",
"254 580 LINE",
"350 580 LINE SMOOTH",
"423 580 OFFCURVE",
"513 508 OFFCURVE",
"478 298 CURVE SMOOTH",
"448 118 OFFCURVE",
"308 28 OFFCURVE",
"235 28 CURVE SMOOTH"
);
}
);
width = 570;
}
);
leftKerningGroup = uppercase;
unicode = 0044;
},
{
glyphname = E;
lastChange = "2022-06-21 15:32:49 +0000";
layers = (
{
background = {
components = (
{
name = empattement_droit_bas;
transform = "{1, 0, 0, -1, -10, 1000}";
}
);
};
layerId = "A0FA55D0-E595-4D47-A77D-3C8049EF6A20";
paths = (
{
closed = 1;
nodes = (
"441 0 LINE",
"441 105 LINE",
"413 105 LINE",
"413 57 LINE",
"391 38 LINE",
"191 38 LINE",
"172 60 LINE",
"172 289 LINE",
"191 311 LINE",
"340 311 LINE",
"362 292 LINE",
"362 262 LINE",
"390 262 LINE",
"390 394 LINE",
"362 394 LINE",
"362 366 LINE",
"340 347 LINE",
"191 347 LINE",
"172 369 LINE",
"172 540 LINE",
"191 562 LINE",
"339 562 LINE",
"361 543 LINE",
"361 497 LINE",
"389 497 LINE",
"389 600 LINE",
"89 599 LINE",
"89 50 LINE",
"70 28 LINE",
"20 28 LINE",
"20 0 LINE"
);
}
);
width = 471;
},
{
associatedMasterId = "A0FA55D0-E595-4D47-A77D-3C8049EF6A20";
background = {
components = (
{
name = empattement_droit_bas;
transform = "{1, 0, 0, -1, -10, 1000}";
}
);
};
layerId = "5F11CEEA-CA21-4BB5-8E0B-8DEAA60FF4A7";
name = "Oct 21 20, 12:49";
paths = (
{
closed = 1;
nodes = (
"413 57 LINE",
"391 38 LINE",
"191 38 LINE",
"172 60 LINE",
"172 289 LINE",
"191 311 LINE",
"340 311 LINE",
"362 292 LINE",
"362 262 LINE",
"390 262 LINE",
"390 394 LINE",
"362 394 LINE",
"362 366 LINE",
"340 347 LINE",
"191 347 LINE",
"172 369 LINE",
"172 540 LINE",
"191 562 LINE",
"339 562 LINE",
"361 543 LINE",
"361 497 LINE",
"389 497 LINE",
"389 600 LINE",
"20 600 LINE",
"20 572 LINE",
"70 572 LINE",
"89 550 LINE",
"89 50 LINE",
"70 28 LINE",
"20 28 LINE",
"20 0 LINE",
"441 0 LINE",
"441 105 LINE",
"413 105 LINE"
);
}
);
width = 461;
},
{
layerId = "715E6458-225A-4B30-851F-23A0A4A3DE49";
paths = (
{
closed = 1;
nodes = (
"356 57 LINE",
"334 38 LINE",
"160 38 LINE",
"131 60 LINE",
"179 289 LINE",
"208 311 LINE",
"367 311 LINE",
"389 292 LINE",
"389 262 LINE",
"417 262 LINE",
"444 394 LINE",
"416 394 LINE",
"407 366 LINE",
"385 347 LINE",
"216 347 LINE",
"197 369 LINE",
"232 540 LINE",
"261 562 LINE",
"408 562 LINE",
"430 543 LINE",
"439 497 LINE",
"467 497 LINE",
"488 600 LINE",
"163 600 LINE",
"45 28 LINE",
"-20 28 LINE",
"-20 0 LINE",
"372 0 LINE",
"394 105 LINE",
"366 105 LINE"
);
}
);
width = 478;
}
);
leftKerningGroup = E;
rightKerningGroup = E;
unicode = 0045;
},
{
glyphname = Eacute;
lastChange = "2021-08-31 16:17:04 +0000";
layers = (
{
background = {
paths = (
{
closed = 1;
nodes = (
"442 0 LINE",
"449 98 LINE",
"431 98 LINE",
"415 34 LINE",
"179 34 LINE",
"179 311 LINE",
"370 311 LINE",
"386 260 LINE",
"397 260 LINE",
"397 390 LINE",
"386 390 LINE",
"370 347 LINE",
"179 347 LINE",
"179 569 LINE",
"332 569 LINE",
"348 503 LINE",
"367 503 LINE",
"359 600 LINE",
"20 600 LINE",
"20 584 LINE",
"102 565 LINE",
"102 34 LINE",
"20 17 LINE",
"20 0 LINE"
);
},
{
closed = 1;
nodes = (
"309 779 LINE",
"277 832 LINE",
"105 725 LINE",
"120 703 LINE"
);
}
);
};
components = (
{
alignment = -1;
name = E;
},
{
alignment = -1;
name = acutecomb;
transform = "{1, 0, 0, 1, 134, 174}";
}
);
layerId = "A0FA55D0-E595-4D47-A77D-3C8049EF6A20";
width = 471;
},
{
layerId = "715E6458-225A-4B30-851F-23A0A4A3DE49";
paths = (
{
closed = 1;
nodes = (
"342 663 OFFCURVE",
"387 696 OFFCURVE",
"402 743 CURVE SMOOTH",
"416 786 OFFCURVE",
"396 824 OFFCURVE",
"366 833 CURVE SMOOTH",
"341 841 OFFCURVE",
"317 828 OFFCURVE",
"310 806 CURVE SMOOTH",
"302 782 OFFCURVE",
"312 764 OFFCURVE",
"334 757 CURVE",
"338 756 OFFCURVE",
"343 756 OFFCURVE",
"347 757 CURVE",
"358 759 OFFCURVE",
"364 760 OFFCURVE",
"367 759 CURVE",
"369 758 OFFCURVE",
"370 757 OFFCURVE",
"370 754 CURVE",
"371 750 OFFCURVE",
"370 746 OFFCURVE",
"370 742 CURVE",
"363 704 OFFCURVE",
"320 679 OFFCURVE",
"269 677 CURVE",
"265 662 LINE"
);
},
{
closed = 1;
nodes = (
"346 57 LINE",
"324 38 LINE",
"150 38 LINE",
"131 60 LINE",
"179 289 LINE",
"198 311 LINE",
"367 311 LINE",
"389 292 LINE",
"389 262 LINE",
"417 262 LINE",
"444 394 LINE",
"416 394 LINE",
"407 366 LINE",
"385 347 LINE",
"216 347 LINE",
"197 369 LINE",
"232 540 LINE",
"251 562 LINE",
"408 562 LINE",
"430 543 LINE",
"439 497 LINE",
"467 497 LINE",
"488 600 LINE",
"163 600 LINE",
"44 28 LINE",
"-20 28 LINE",
"-20 0 LINE",
"362 0 LINE",
"384 105 LINE",
"356 105 LINE"
);
}
);
width = 478;
}
);
leftKerningGroup = E;
leftMetricsKey = E;
rightKerningGroup = E;
rightMetricsKey = E;
unicode = 00C9;
},
{
glyphname = Ecircumflex;
lastChange = "2021-08-31 16:17:04 +0000";
layers = (
{
background = {
paths = (
{
closed = 1;
nodes = (
"442 0 LINE",
"449 98 LINE",
"431 98 LINE",
"415 34 LINE",
"179 34 LINE",
"179 311 LINE",
"370 311 LINE",
"386 260 LINE",
"397 260 LINE",
"397 390 LINE",
"386 390 LINE",
"370 347 LINE",
"179 347 LINE",
"179 569 LINE",
"332 569 LINE",
"348 503 LINE",
"367 503 LINE",
"359 600 LINE",
"20 600 LINE",
"20 584 LINE",
"102 565 LINE",
"102 34 LINE",
"20 17 LINE",
"20 0 LINE"
);
},
{
closed = 1;
nodes = (
"198 747 LINE",
"307 682 LINE",
"325 701 LINE",
"198 809 LINE",
"71 701 LINE",
"88 682 LINE"
);
}
);
};
components = (
{
name = E;
},
{
name = circumflexcomb;
transform = "{1, 0, 0, 1, 0, 175}";
}
);
layerId = "A0FA55D0-E595-4D47-A77D-3C8049EF6A20";
width = 471;
},
{
components = (
{
name = E;
},
{
name = circumflexcomb;
transform = "{1, 0, 0, 1, 163, 175}";
}
);
layerId = "715E6458-225A-4B30-851F-23A0A4A3DE49";
width = 478;
}
);
rightKerningGroup = E;
unicode = 00CA;
},
{
glyphname = Edieresis;
lastChange = "2021-11-30 15:49:15 +0000";
layers = (
{
components = (
{
name = E;
},
{
name = dieresiscomb;
transform = "{1, 0, 0, 1, 50, 100}";
}
);
layerId = "A0FA55D0-E595-4D47-A77D-3C8049EF6A20";
width = 471;
},
{
layerId = "715E6458-225A-4B30-851F-23A0A4A3DE49";
paths = (
{
closed = 1;
nodes = (
"356 57 LINE",
"334 38 LINE",
"160 38 LINE",
"131 60 LINE",
"179 289 LINE",
"208 311 LINE",
"367 311 LINE",
"389 292 LINE",
"389 262 LINE",
"417 262 LINE",
"444 394 LINE",
"416 394 LINE",
"407 366 LINE",
"385 347 LINE",
"216 347 LINE",
"197 369 LINE",
"232 540 LINE",
"261 562 LINE",
"408 562 LINE",
"430 543 LINE",
"439 497 LINE",
"467 497 LINE",
"488 600 LINE",
"163 600 LINE",
"45 28 LINE",
"-20 28 LINE",
"-20 0 LINE",
"372 0 LINE",
"394 105 LINE",
"366 105 LINE"
);
},
{
closed = 1;
nodes = (
"458 649 OFFCURVE",
"482 673 OFFCURVE",
"482 703 CURVE SMOOTH",
"482 731 OFFCURVE",
"458 756 OFFCURVE",
"429 756 CURVE SMOOTH",
"400 756 OFFCURVE",
"375 731 OFFCURVE",
"375 703 CURVE SMOOTH",
"375 673 OFFCURVE",
"400 649 OFFCURVE",
"429 649 CURVE SMOOTH"
);
},
{
closed = 1;
nodes = (
"278 649 OFFCURVE",
"302 673 OFFCURVE",
"302 703 CURVE SMOOTH",
"302 731 OFFCURVE",
"278 756 OFFCURVE",
"249 756 CURVE SMOOTH",
"220 756 OFFCURVE",
"195 731 OFFCURVE",
"195 703 CURVE SMOOTH",
"195 673 OFFCURVE",
"220 649 OFFCURVE",
"249 649 CURVE SMOOTH"
);
}
);
width = 478;
}
);
leftMetricsKey = E;
rightMetricsKey = E;
unicode = 00CB;
},
{
glyphname = Egrave;
lastChange = "2021-08-31 16:17:04 +0000";
layers = (
{
background = {
paths = (
{
closed = 1;
nodes = (
"442 0 LINE",
"449 98 LINE",
"431 98 LINE",
"415 34 LINE",
"179 34 LINE",
"179 311 LINE",
"370 311 LINE",
"386 260 LINE",
"397 260 LINE",
"397 390 LINE",
"386 390 LINE",
"370 347 LINE",
"179 347 LINE",
"179 569 LINE",
"332 569 LINE",
"348 503 LINE",
"367 503 LINE",
"359 600 LINE",
"20 600 LINE",
"20 584 LINE",
"102 565 LINE",
"102 34 LINE",
"20 17 LINE",
"20 0 LINE"
);
},
{
closed = 1;
nodes = (
"320 725 LINE",
"148 832 LINE",
"116 779 LINE",
"305 703 LINE"
);
}
);
};
components = (
{
alignment = -1;
name = E;
},
{
name = acutecomb;
transform = "{-1, 0, 0, 1, 327, 174}";
}
);
layerId = "A0FA55D0-E595-4D47-A77D-3C8049EF6A20";
width = 471;
},
{
layerId = "715E6458-225A-4B30-851F-23A0A4A3DE49";
paths = (
{
closed = 1;
nodes = (
"346 57 LINE",
"324 38 LINE",
"150 38 LINE",
"131 60 LINE",
"179 289 LINE",
"198 311 LINE",
"367 311 LINE",
"389 292 LINE",
"389 262 LINE",
"417 262 LINE",
"444 394 LINE",
"416 394 LINE",
"407 366 LINE",
"385 347 LINE",
"216 347 LINE",
"197 369 LINE",
"232 540 LINE",
"251 562 LINE",
"408 562 LINE",
"430 543 LINE",
"439 497 LINE",
"467 497 LINE",
"488 600 LINE",
"163 599 LINE",
"49 50 LINE",
"30 28 LINE",
"-20 28 LINE",
"-20 0 LINE",
"362 0 LINE",
"384 105 LINE",
"356 105 LINE"
);
},
{
closed = 1;
nodes = (
"408 677 LINE",
"357 679 OFFCURVE",
"314 704 OFFCURVE",
"307 742 CURVE SMOOTH",
"307 746 OFFCURVE",
"306 750 OFFCURVE",
"307 754 CURVE SMOOTH",
"307 757 OFFCURVE",
"308 758 OFFCURVE",
"310 759 CURVE SMOOTH",
"313 760 OFFCURVE",
"319 759 OFFCURVE",
"330 757 CURVE SMOOTH",
"334 756 OFFCURVE",
"339 756 OFFCURVE",
"343 757 CURVE SMOOTH",
"365 764 OFFCURVE",
"375 782 OFFCURVE",
"367 806 CURVE SMOOTH",
"360 828 OFFCURVE",
"336 841 OFFCURVE",
"311 833 CURVE SMOOTH",
"281 824 OFFCURVE",
"261 786 OFFCURVE",
"275 743 CURVE SMOOTH",
"290 696 OFFCURVE",
"335 663 OFFCURVE",
"412 662 CURVE"
);
}
);
width = 478;
}
);
leftMetricsKey = E;
rightMetricsKey = E;
unicode = 00C8;
},
{
glyphname = F;
lastChange = "2022-06-21 15:32:49 +0000";
layers = (
{
layerId = "A0FA55D0-E595-4D47-A77D-3C8049EF6A20";
paths = (
{
closed = 1;
nodes = (
"239 0 LINE",
"239 28 LINE",
"191 28 LINE",
"172 50 LINE",
"172 289 LINE",
"191 311 LINE",
"340 311 LINE",
"362 292 LINE",
"362 264 LINE",
"390 264 LINE",
"390 393 LINE",
"362 393 LINE",
"362 366 LINE",
"340 347 LINE",
"191 347 LINE",
"172 369 LINE",
"172 540 LINE",
"191 562 LINE",
"391 562 LINE",
"413 543 LINE",
"413 495 LINE",
"441 495 LINE",
"441 601 LINE",
"89 601 LINE",
"89 50 LINE",
"70 28 LINE",
"20 28 LINE",
"20 0 LINE"
);
}
);
width = 481;
},
{
associatedMasterId = "A0FA55D0-E595-4D47-A77D-3C8049EF6A20";
layerId = "D1384237-BA55-4B5C-B4BC-08D7681DDBC3";
paths = (
{
closed = 1;
nodes = (
"280 370 LINE",
"382 370 LINE",
"403 312 LINE",
"418 312 LINE",
"418 455 LINE",
"403 455 LINE",
"382 408 LINE",
"280 408 LINE"
);
},
{
closed = 1;
nodes = (
"280 408 LINE",
"201 408 LINE",
"201 640 LINE",
"482 640 LINE",
"523 562 LINE",
"538 562 LINE",
"518 687 LINE",
"73 687 LINE",
"73 672 LINE",
"130 651 LINE",
"130 36 LINE",
"52 15 LINE",
"52 0 LINE",
"266 0 LINE",
"266 15 LINE",
"201 36 LINE",
"201 370 LINE",
"280 370 LINE"
);
}
);
width = 580;
},
{
layerId = "715E6458-225A-4B30-851F-23A0A4A3DE49";
paths = (
{
closed = 1;
nodes = (
"234 28 LINE",
"184 28 LINE",
"165 50 LINE",
"215 289 LINE",
"244 311 LINE",
"403 311 LINE",
"425 292 LINE",
"425 262 LINE",
"453 262 LINE",
"480 394 LINE",
"452 394 LINE",
"443 366 LINE",
"421 347 LINE",
"252 347 LINE",
"233 369 LINE",
"268 540 LINE",
"287 562 LINE",
"444 562 LINE",
"466 543 LINE",
"475 497 LINE",
"503 497 LINE",
"524 600 LINE",
"203 599 LINE",
"84 28 LINE",
"20 28 LINE",
"20 0 LINE",
"234 0 LINE"
);
}
);
width = 504;
}
);
leftKerningGroup = uppercase;
leftMetricsKey = H;
unicode = 0046;
},
{
glyphname = G;
lastChange = "2022-06-21 15:32:49 +0000";
layers = (
{
background = {
paths = (
{
closed = 1;
nodes = (
"421 -162 OFFCURVE",
"502 -64 OFFCURVE",
"502 45 CURVE SMOOTH",
"502 302 LINE",
"349 302 LINE",
"349 276 LINE",
"430 268 LINE",
"430 199 LINE",
"429 79 LINE",
"400 46 OFFCURVE",
"338 23 OFFCURVE",
"295 23 CURVE SMOOTH",
"201 27 OFFCURVE",
"129 137 OFFCURVE",
"129 296 CURVE SMOOTH",
"129 468 OFFCURVE",
"182 573 OFFCURVE",
"295 580 CURVE SMOOTH",
"377 585 OFFCURVE",
"437 562 OFFCURVE",
"437 489 CURVE",
"431 408 LINE",
"452 402 LINE",
"511 524 LINE",
"468 578 OFFCURVE",
"381 605 OFFCURVE",
"297 605 CURVE SMOOTH",
"139 605 OFFCURVE",
"40 483 OFFCURVE",
"40 304 CURVE SMOOTH",
"40 103 OFFCURVE",
"157 -10 OFFCURVE",
"294 -10 CURVE SMOOTH",
"351 -10 OFFCURVE",
"396 10 OFFCURVE",
"431 51 CURVE",
"428 -107 OFFCURVE",
"406 -127 OFFCURVE",
"334 -113 CURVE",
"306 -99 OFFCURVE",
"318 -70 OFFCURVE",
"293 -66 CURVE SMOOTH",
"262 -61 OFFCURVE",
"244 -84 OFFCURVE",
"240 -103 CURVE SMOOTH",
"233 -134 OFFCURVE",
"256 -159 OFFCURVE",
"321 -160 CURVE SMOOTH"
);
}
);
};
layerId = "A0FA55D0-E595-4D47-A77D-3C8049EF6A20";
paths = (
{
closed = 1;
nodes = (
"421 -182 OFFCURVE",
"502 -84 OFFCURVE",
"502 45 CURVE SMOOTH",
"502 185 LINE",
"503 304 LINE",
"349 248 LINE",
"349 225 LINE",
"408 225 LINE",
"430 206 LINE",
"430 153 LINE",
"431 84 LINE",
"269 -58 OFFCURVE",
"132 84 OFFCURVE",
"132 344 CURVE SMOOTH",
"132 494 OFFCURVE",
"208 579 OFFCURVE",
"305 581 CURVE SMOOTH",
"422 584 OFFCURVE",
"484 485 OFFCURVE",
"493 379 CURVE",
"528 379 LINE",
"528 584 LINE",
"496 584 LINE",
"496 555 LINE",
"473 555 LINE",
"473 555 OFFCURVE",
"425 610 OFFCURVE",
"303 610 CURVE SMOOTH",
"139 610 OFFCURVE",
"40 486 OFFCURVE",
"40 305 CURVE SMOOTH",
"40 113 OFFCURVE",
"152 -10 OFFCURVE",
"282 -10 CURVE SMOOTH",
"384 -10 OFFCURVE",
"430 49 OFFCURVE",
"430 49 CURVE",
"426 -89 OFFCURVE",
"403 -146 OFFCURVE",
"334 -133 CURVE",
"306 -119 OFFCURVE",
"318 -90 OFFCURVE",
"293 -86 CURVE SMOOTH",
"262 -81 OFFCURVE",
"244 -104 OFFCURVE",
"240 -123 CURVE SMOOTH",
"233 -154 OFFCURVE",
"256 -179 OFFCURVE",
"321 -180 CURVE SMOOTH"
);
}
);
width = 575;
},
{
associatedMasterId = "A0FA55D0-E595-4D47-A77D-3C8049EF6A20";
layerId = "C08219C3-EECA-4330-BBB8-FC45642970EC";
paths = (
{
closed = 1;
nodes = (
"481 321 LINE",
"481 297 LINE",
"482 219 LINE",
"482 86 LINE",
"454 52 OFFCURVE",
"396 29 OFFCURVE",
"338 29 CURVE SMOOTH",
"214 29 OFFCURVE",
"132 155 OFFCURVE",
"132 344 CURVE SMOOTH",
"132 532 OFFCURVE",
"218 658 OFFCURVE",
"347 658 CURVE SMOOTH",
"364 658 LINE",
"367 658 LINE SMOOTH",
"426 658 OFFCURVE",
"485 630 OFFCURVE",
"513 588 CURVE",
"546 507 LINE",
"573 507 LINE",
"553 632 LINE",
"531 650 OFFCURVE",
"501 668 OFFCURVE",
"479 677 CURVE SMOOTH",
"451 689 OFFCURVE",
"403 697 OFFCURVE",
"360 697 CURVE SMOOTH",
"354 697 LINE",
"349 697 LINE SMOOTH",
"170 697 OFFCURVE",
"51 556 OFFCURVE",
"51 344 CURVE SMOOTH",
"51 132 OFFCURVE",
"162 -10 OFFCURVE",
"328 -10 CURVE SMOOTH",
"378 -10 OFFCURVE",
"441 1 OFFCURVE",
"486 18 CURVE",
"486 -11 OFFCURVE",
"484 -42 OFFCURVE",
"482 -60 CURVE SMOOTH",
"479 -83 OFFCURVE",
"473 -107 OFFCURVE",
"468 -121 CURVE SMOOTH",
"462 -138 OFFCURVE",
"450 -155 OFFCURVE",
"439 -164 CURVE",
"427 -173 OFFCURVE",
"409 -178 OFFCURVE",
"394 -176 CURVE SMOOTH",
"367 -172 OFFCURVE",
"338 -147 OFFCURVE",
"322 -112 CURVE",
"253 -112 LINE",
"254 -125 OFFCURVE",
"264 -144 OFFCURVE",
"278 -159 CURVE SMOOTH",
"292 -174 OFFCURVE",
"314 -188 OFFCURVE",
"333 -194 CURVE SMOOTH",
"351 -200 OFFCURVE",
"373 -204 OFFCURVE",
"389 -204 CURVE SMOOTH",
"424 -204 OFFCURVE",
"463 -192 OFFCURVE",
"488 -175 CURVE SMOOTH",
"525 -150 OFFCURVE",
"548 -70 OFFCURVE",
"548 22 CURVE SMOOTH",
"548 357 LINE",
"424 357 LINE",
"424 342 LINE"
);
}
);
width = 630;
},
{
associatedMasterId = "A0FA55D0-E595-4D47-A77D-3C8049EF6A20";
layerId = "7EEA7384-2DD9-4181-A6E5-79DEE701080A";
name = "1";
paths = (
{
closed = 1;
nodes = (
"514 3 LINE",
"532 7 OFFCURVE",
"549 12 OFFCURVE",
"563 18 CURVE",
"563 -2 OFFCURVE",
"561 -34 OFFCURVE",
"559 -60 CURVE SMOOTH",
"556 -83 OFFCURVE",
"550 -107 OFFCURVE",
"545 -121 CURVE SMOOTH",
"539 -137 OFFCURVE",
"527 -155 OFFCURVE",
"516 -164 CURVE",
"504 -173 OFFCURVE",
"486 -178 OFFCURVE",
"471 -176 CURVE SMOOTH",
"444 -172 OFFCURVE",
"415 -147 OFFCURVE",
"399 -112 CURVE",
"290 -112 LINE",
"293 -167 OFFCURVE",
"363 -204 OFFCURVE",
"466 -204 CURVE SMOOTH",
"499 -204 OFFCURVE",
"538 -192 OFFCURVE",
"565 -175 CURVE SMOOTH",
"615 -141 OFFCURVE",
"655 -62 OFFCURVE",
"655 22 CURVE SMOOTH",
"655 407 LINE",
"451 407 LINE",
"451 372 LINE",
"558 361 LINE",
"558 337 LINE",
"559 269 LINE",
"559 86 LINE",
"549 74 OFFCURVE",
"534 64 OFFCURVE",
"514 56 CURVE"
);
},
{
closed = 1;
nodes = (
"514 56 LINE",
"487 45 OFFCURVE",
"452 39 OFFCURVE",
"415 39 CURVE SMOOTH",
"275 39 OFFCURVE",
"162 169 OFFCURVE",
"162 364 CURVE SMOOTH",
"162 564 OFFCURVE",
"279 698 OFFCURVE",
"424 698 CURVE SMOOTH",
"500 698 OFFCURVE",
"566 674 OFFCURVE",
"590 638 CURVE",
"583 515 LINE",
"620 515 LINE",
"670 682 LINE",
"632 709 OFFCURVE",
"497 747 OFFCURVE",
"437 747 CURVE SMOOTH",
"426 747 LINE SMOOTH",
"187 747 OFFCURVE",
"48 594 OFFCURVE",
"48 364 CURVE SMOOTH",
"48 140 OFFCURVE",
"189 -10 OFFCURVE",
"405 -10 CURVE SMOOTH",
"439 -10 OFFCURVE",
"479 -5 OFFCURVE",
"514 3 CURVE"
);
}
);
width = 750;
},
{
layerId = "715E6458-225A-4B30-851F-23A0A4A3DE49";
paths = (
{
closed = 1;
nodes = (
"352 225 LINE",
"411 225 LINE",
"433 206 LINE",
"418 121 LINE",
"382 57 OFFCURVE",
"324 12 OFFCURVE",
"255 12 CURVE SMOOTH",
"172 12 OFFCURVE",
"114 133 OFFCURVE",
"133 274 CURVE SMOOTH",
"152 425 OFFCURVE",
"210 563 OFFCURVE",
"316 582 CURVE SMOOTH",
"424 602 OFFCURVE",
"495 499 OFFCURVE",
"485 390 CURVE",
"515 390 LINE",
"549 575 LINE",
"523 575 LINE",
"516 546 LINE",
"490 546 LINE",
"456 601 OFFCURVE",
"390 616 OFFCURVE",
"313 610 CURVE SMOOTH",
"158 594 OFFCURVE",
"52 450 OFFCURVE",
"32 277 CURVE SMOOTH",
"18 127 OFFCURVE",
"94 -14 OFFCURVE",
"245 -14 CURVE SMOOTH",
"308 -14 OFFCURVE",
"367 15 OFFCURVE",
"409 73 CURVE",
"383 -54 LINE",
"365 -127 OFFCURVE",
"346 -161 OFFCURVE",
"310 -155 CURVE SMOOTH",
"293 -152 OFFCURVE",
"284 -140 OFFCURVE",
"281 -118 CURVE",
"282 -97 OFFCURVE",
"277 -87 OFFCURVE",
"270 -79 CURVE SMOOTH",
"255 -62 OFFCURVE",
"230 -57 OFFCURVE",
"210 -71 CURVE SMOOTH",
"188 -86 OFFCURVE",
"185 -123 OFFCURVE",
"206 -152 CURVE SMOOTH",
"224 -176 OFFCURVE",
"258 -184 OFFCURVE",
"307 -186 CURVE SMOOTH",
"370 -189 OFFCURVE",
"430 -138 OFFCURVE",
"447 -54 CURVE SMOOTH",
"516 285 LINE",
"485 291 LINE",
"352 248 LINE"
);
}
);
width = 579;
}
);
leftMetricsKey = O;
unicode = 0047;
},
{
glyphname = H;
lastChange = "2022-06-21 15:32:49 +0000";
layers = (
{
associatedMasterId = "A0FA55D0-E595-4D47-A77D-3C8049EF6A20";
background = {
paths = (
{
closed = 1;
nodes = (
"250 0 LINE",
"250 16 LINE",
"169 34 LINE",
"169 302 LINE",
"460 302 LINE",
"460 34 LINE",
"379 16 LINE",
"379 0 LINE",
"618 0 LINE",
"618 16 LINE",
"537 34 LINE",
"537 565 LINE",
"619 574 LINE",
"619 600 LINE",
"460 600 LINE",
"460 332 LINE",
"169 332 LINE",
"169 600 LINE",
"8 600 LINE",
"8 584 LINE",
"90 565 LINE",
"90 34 LINE",
"9 16 LINE",
"9 0 LINE"
);
}
);
};
layerId = "21B6EB85-525D-4171-BBE0-2E33E072A6AA";
name = "Oct 21 20, 11:46";
paths = (
{
closed = 1;
nodes = (
"523 550 LINE",
"542 572 LINE",
"592 572 LINE",
"592 600 LINE",
"374 600 LINE",
"374 572 LINE",
"422 572 LINE",
"441 550 LINE",
"441 353 LINE",
"422 331 LINE",
"190 331 LINE",
"171 353 LINE",
"171 550 LINE",
"190 572 LINE",
"238 572 LINE",
"238 600 LINE",
"20 600 LINE",
"20 572 LINE",
"70 572 LINE",
"89 550 LINE",
"89 50 LINE",
"70 28 LINE",
"20 28 LINE",
"20 0 LINE",
"238 0 LINE",
"238 28 LINE",
"190 28 LINE",
"171 50 LINE",
"171 275 LINE",
"190 297 LINE",
"422 297 LINE",
"441 275 LINE",
"441 50 LINE",
"422 28 LINE",
"374 28 LINE",
"374 0 LINE",
"592 0 LINE",
"592 28 LINE",
"542 28 LINE",
"523 50 LINE"
);
}
);
width = 612;
},
{
associatedMasterId = "A0FA55D0-E595-4D47-A77D-3C8049EF6A20";
background = {
paths = (
{
closed = 1;
nodes = (
"250 0 LINE",
"250 16 LINE",
"169 34 LINE",
"169 302 LINE",
"460 302 LINE",
"460 34 LINE",
"379 16 LINE",
"379 0 LINE",
"618 0 LINE",
"618 16 LINE",
"537 34 LINE",
"537 565 LINE",
"619 574 LINE",
"619 600 LINE",
"460 600 LINE",
"460 332 LINE",
"169 332 LINE",
"169 600 LINE",
"8 600 LINE",
"8 584 LINE",
"90 565 LINE",
"90 34 LINE",
"9 16 LINE",
"9 0 LINE"
);
}
);
};
layerId = "F3199E2D-A121-4768-8760-4F4125412592";
name = "Oct 21 20, 11:46";
paths = (
{
closed = 1;
nodes = (
"523 550 LINE",
"542 572 LINE",
"592 572 LINE",
"592 600 LINE",
"374 600 LINE",
"374 572 LINE",
"422 572 LINE",
"441 550 LINE",
"441 353 LINE",
"422 331 LINE",
"190 331 LINE",
"171 353 LINE",
"171 550 LINE",
"190 572 LINE",
"238 572 LINE",
"238 600 LINE",
"20 600 LINE",
"20 572 LINE",
"70 572 LINE",
"89 550 LINE",
"89 50 LINE",
"70 28 LINE",
"20 28 LINE",
"20 0 LINE",
"171 0 LINE",
"171 275 LINE",
"190 297 LINE",
"422 297 LINE",
"441 275 LINE",
"441 50 LINE",
"422 28 LINE",
"374 28 LINE",
"374 0 LINE",
"592 0 LINE",
"592 28 LINE",
"542 28 LINE",
"523 50 LINE"
);
}
);
width = 612;
},
{
background = {
paths = (
{
closed = 1;
nodes = (
"250 0 LINE",
"250 16 LINE",
"169 34 LINE",
"169 302 LINE",
"460 302 LINE",
"460 34 LINE",
"379 16 LINE",
"379 0 LINE",
"618 0 LINE",
"618 16 LINE",
"537 34 LINE",
"537 565 LINE",
"619 574 LINE",
"619 600 LINE",
"460 600 LINE",
"460 332 LINE",
"169 332 LINE",
"169 600 LINE",
"8 600 LINE",
"8 584 LINE",
"90 565 LINE",
"90 34 LINE",
"9 16 LINE",
"9 0 LINE"
);
}
);
};
layerId = "A0FA55D0-E595-4D47-A77D-3C8049EF6A20";
paths = (
{
closed = 1;
nodes = (
"238 0 LINE",
"238 28 LINE",
"190 28 LINE",
"171 50 LINE",
"171 275 LINE",
"190 297 LINE",
"422 297 LINE",
"441 275 LINE",
"441 50 LINE",
"422 28 LINE",
"374 28 LINE",
"374 0 LINE",
"592 0 LINE",
"592 28 LINE",
"542 28 LINE",
"523 50 LINE",
"523 600 LINE",
"374 600 LINE",
"374 572 LINE",
"422 572 LINE",
"441 550 LINE",
"441 353 LINE",
"422 331 LINE",
"190 331 LINE",
"171 353 LINE",
"171 550 LINE",
"190 572 LINE",
"238 572 LINE",
"238 600 LINE",
"20 600 LINE",
"20 572 LINE",
"70 572 LINE",
"89 550 LINE",
"89 0 LINE"
);
}
);
width = 612;
},
{
layerId = "715E6458-225A-4B30-851F-23A0A4A3DE49";
paths = (
{
closed = 1;
nodes = (
"577 600 LINE",
"418 600 LINE",
"418 572 LINE",
"466 572 LINE",
"485 550 LINE",
"445 353 LINE",
"426 331 LINE",
"194 331 LINE",
"175 353 LINE",
"221 572 LINE",
"283 572 LINE",
"283 600 LINE",
"66 600 LINE",
"66 572 LINE",
"116 572 LINE",
"135 550 LINE",
"20 0 LINE",
"176 0 LINE",
"176 28 LINE",
"128 28 LINE",
"109 50 LINE",
"159 275 LINE",
"178 297 LINE",
"410 297 LINE",
"429 275 LINE",
"377 28 LINE",
"315 28 LINE",
"315 0 LINE",
"531 0 LINE",
"531 28 LINE",
"481 28 LINE",
"462 50 LINE"
);
}
);
width = 597;
}
);
unicode = 0048;
},
{
glyphname = I;
lastChange = "2022-06-21 15:32:49 +0000";
layers = (
{
background = {
paths = (
{
closed = 1;
nodes = (
"273 0 LINE",
"273 16 LINE",
"194 34 LINE",
"194 566 LINE",
"273 584 LINE",
"273 600 LINE",
"40 600 LINE",
"40 584 LINE",
"117 566 LINE",
"117 34 LINE",
"40 16 LINE",
"40 0 LINE"
);
}
);
};
layerId = "A0FA55D0-E595-4D47-A77D-3C8049EF6A20";
paths = (
{
closed = 1;
nodes = (
"258 0 LINE",
"258 28 LINE",
"210 28 LINE",
"191 50 LINE",
"191 600 LINE",
"109 600 LINE",
"109 50 LINE",
"90 28 LINE",
"40 28 LINE",
"40 0 LINE"
);
}
);
width = 298;
},
{
associatedMasterId = "A0FA55D0-E595-4D47-A77D-3C8049EF6A20";
layerId = "8DA123F5-71A4-4CE9-857F-72DAAB305782";
paths = (
{
closed = 1;
nodes = (
"211 687 LINE",
"137 687 LINE",
"137 633 LINE",
"137 54 LINE",
"138 0 LINE",
"211 0 LINE",
"211 54 LINE",
"211 633 LINE"
);
},
{
closed = 1;
nodes = (
"139 36 LINE",
"22 15 LINE",
"22 0 LINE",
"327 0 LINE",
"327 15 LINE",
"209 36 LINE",
"209 102 LINE",
"139 102 LINE"
);
},
{
closed = 1;
nodes = (
"209 585 LINE",
"209 651 LINE",
"287 672 LINE",
"287 687 LINE",
"62 687 LINE",
"62 672 LINE",
"139 651 LINE",
"139 585 LINE"
);
}
);
width = 350;
},
{
layerId = "715E6458-225A-4B30-851F-23A0A4A3DE49";
paths = (
{
closed = 1;
nodes = (
"249 600 LINE",
"170 600 LINE",
"45 28 LINE",
"-20 28 LINE",
"-20 0 LINE",
"195 0 LINE",
"195 28 LINE",
"147 28 LINE",
"128 50 LINE"
);
}
);
width = 279;
}
);
leftKerningGroup = uppercase;
unicode = 0049;
},
{
glyphname = J;
lastChange = "2022-06-21 15:32:49 +0000";
layers = (
{
background = {
paths = (
{
closed = 1;
nodes = (
"131 565 LINE",
"212 584 LINE",
"212 600 LINE",
"-28 600 LINE",
"-28 584 LINE",
"53 565 LINE",
"53 -113 LINE",
"-28 -92 LINE",
"-28 -115 LINE",
"131 -161 LINE"
);
}
);
};
layerId = "A0FA55D0-E595-4D47-A77D-3C8049EF6A20";
paths = (
{
closed = 1;
nodes = (
"163 550 LINE",
"182 572 LINE",
"230 572 LINE",
"230 600 LINE",
"12 600 LINE",
"12 572 LINE",
"62 572 LINE",
"81 550 LINE",
"81 -62 LINE",
"59 -81 LINE",
"0 -81 LINE",
"0 -104 LINE",
"163 -160 LINE"
);
}
);
width = 281;
},
{
associatedMasterId = "A0FA55D0-E595-4D47-A77D-3C8049EF6A20";
layerId = "3DF9CE94-5D25-4966-90FD-1DDC97230A9D";
paths = (
{
closed = 1;
nodes = (
"264 274 LINE",
"264 651 LINE",
"342 672 LINE",
"342 687 LINE",
"115 687 LINE",
"115 672 LINE",
"192 651 LINE",
"192 271 LINE"
);
},
{
closed = 1;
nodes = (
"192 400 LINE",
"192 60 LINE SMOOTH",
"192 -57 OFFCURVE",
"84 -146 OFFCURVE",
"-79 -161 CURVE",
"-79 -209 LINE",
"128 -176 OFFCURVE",
"264 -67 OFFCURVE",
"264 64 CURVE SMOOTH",
"264 400 LINE"
);
}
);
width = 400;
},
{
layerId = "715E6458-225A-4B30-851F-23A0A4A3DE49";
paths = (
{
closed = 1;
nodes = (
"98 572 LINE",
"148 572 LINE",
"167 550 LINE",
"29 -106 LINE",
"17 -109 LINE",
"-19 -16 LINE",
"-50 -4 LINE",
"-15 -103 LINE SMOOTH",
"1 -149 OFFCURVE",
"8 -167 OFFCURVE",
"26 -174 CURVE SMOOTH",
"69 -191 OFFCURVE",
"103 -153 OFFCURVE",
"112 -96 CURVE",
"253 572 LINE",
"315 572 LINE",
"315 600 LINE",
"98 600 LINE"
);
}
);
width = 285;
}
);
leftMetricsKey = j;
rightKerningGroup = uppercase;
rightMetricsKey = j;
unicode = 004A;
},
{
glyphname = K;
lastChange = "2022-06-21 15:32:49 +0000";
layers = (
{
background = {
paths = (
{
closed = 1;
nodes = (
"255 0 LINE",
"255 16 LINE",
"174 34 LINE",
"174 237 LINE",
"217 294 LINE",
"401 0 LINE",
"536 0 LINE",
"536 16 LINE",
"463 34 LINE",
"265 352 LINE",
"427 565 LINE",
"501 584 LINE",
"501 600 LINE",
"290 600 LINE",
"290 584 LINE",
"377 565 LINE",
"174 303 LINE",
"174 600 LINE",
"20 600 LINE",
"20 584 LINE",
"101 565 LINE",
"101 34 LINE",
"20 16 LINE",
"20 0 LINE"
);
}
);
};
layerId = "A0FA55D0-E595-4D47-A77D-3C8049EF6A20";
paths = (
{
closed = 1;
nodes = (
"171 0 LINE",
"171 289 LINE",
"409 52 LINE",
"409 50 LINE",
"390 28 LINE",
"340 28 LINE",
"340 0 LINE",
"592 0 LINE",
"592 28 LINE",
"544 28 LINE",
"520 50 LINE",
"515 54 LINE",
"238 322 LINE",
"339 422 LINE SMOOTH",
"358 441 OFFCURVE",
"471 548 OFFCURVE",
"502 579 CURVE",
"538 579 LINE",
"538 600 LINE",
"371 600 LINE",
"371 579 LINE",
"408 579 LINE",
"423 562 LINE",
"375 512 OFFCURVE",
"276 414 OFFCURVE",
"222 365 CURVE SMOOTH",
"199 344 OFFCURVE",
"180 328 OFFCURVE",
"171 319 CURVE",
"171 550 LINE",
"190 572 LINE",
"238 572 LINE",
"238 600 LINE",
"20 600 LINE",
"20 572 LINE",
"70 572 LINE",
"89 550 LINE",
"89 0 LINE"
);
}
);
width = 592;
},
{
associatedMasterId = "A0FA55D0-E595-4D47-A77D-3C8049EF6A20";
background = {
paths = (
{
closed = 1;
nodes = (
"275 0 LINE",
"275 16 LINE",
"194 34 LINE",
"194 237 LINE",
"237 294 LINE",
"421 0 LINE",
"556 0 LINE",
"556 16 LINE",
"483 34 LINE",
"285 352 LINE",
"447 565 LINE",
"521 584 LINE",
"521 600 LINE",
"310 600 LINE",
"310 584 LINE",
"397 565 LINE",
"194 303 LINE",
"194 600 LINE",
"40 600 LINE",
"40 584 LINE",
"121 565 LINE",
"121 34 LINE",
"40 16 LINE",
"40 0 LINE"
);
}
);
};
layerId = "CF8637EA-A59B-473C-951B-0580397F141A";
name = "Apr 15 20, 15:08";
paths = (
{
closed = 1;
nodes = (
"275 0 LINE",
"275 16 LINE",
"194 34 LINE",
"194 237 LINE",
"237 294 LINE",
"421 0 LINE",
"556 0 LINE",
"556 16 LINE",
"483 34 LINE",
"285 352 LINE",
"447 565 LINE",
"521 584 LINE",
"521 600 LINE",
"310 600 LINE",
"310 584 LINE",
"397 565 LINE",
"194 303 LINE",
"194 600 LINE",
"40 600 LINE",
"40 584 LINE",
"121 565 LINE",
"121 34 LINE",
"40 16 LINE",
"40 0 LINE"
);
}
);
width = 526;
},
{
layerId = "715E6458-225A-4B30-851F-23A0A4A3DE49";
paths = (
{
closed = 1;
nodes = (
"629 601 LINE",
"455 600 LINE",
"455 579 LINE",
"492 579 LINE",
"507 562 LINE",
"230 333 LINE",
"289 600 LINE",
"130 600 LINE",
"130 572 LINE",
"180 572 LINE",
"199 550 LINE",
"85 28 LINE",
"20 28 LINE",
"20 0 LINE",
"235 0 LINE",
"235 28 LINE",
"187 28 LINE",
"168 50 LINE",
"218 285 LINE",
"444 52 LINE",
"425 28 LINE",
"375 28 LINE",
"375 0 LINE",
"618 -1 LINE",
"618 27 LINE",
"570 27 LINE",
"283 325 LINE",
"593 580 LINE",
"629 580 LINE"
);
}
);
width = 659;
}
);
leftMetricsKey = H;
unicode = 004B;
},
{
glyphname = L;
lastChange = "2022-06-21 15:32:49 +0000";
layers = (
{
background = {
paths = (
{
closed = 1;
nodes = (
"463 0 LINE",
"463 95 LINE",
"436 95 LINE",
"428 34 LINE",
"206 34 LINE",
"206 565 LINE",
"287 584 LINE",
"287 600 LINE",
"40 600 LINE",
"40 584 LINE",
"122 565 LINE",
"122 34 LINE",
"50 16 LINE",
"50 0 LINE"
);
}
);
};
layerId = "A0FA55D0-E595-4D47-A77D-3C8049EF6A20";
paths = (
{
closed = 1;
nodes = (
"461 0 LINE",
"461 105 LINE",
"433 105 LINE",
"433 57 LINE",
"411 38 LINE",
"211 38 LINE",
"192 60 LINE",
"192 600 LINE",
"109 600 LINE",
"109 50 LINE",
"90 28 LINE",
"40 28 LINE",
"40 0 LINE"
);
}
);
width = 481;
},
{
associatedMasterId = "A0FA55D0-E595-4D47-A77D-3C8049EF6A20";
background = {
paths = (
{
closed = 1;
nodes = (
"443 0 LINE",
"443 95 LINE",
"416 95 LINE",
"408 34 LINE",
"186 34 LINE",
"186 565 LINE",
"267 584 LINE",
"267 600 LINE",
"20 600 LINE",
"20 584 LINE",
"102 565 LINE",
"102 34 LINE",
"30 16 LINE",
"30 0 LINE"
);
}
);
};
layerId = "E3899518-2D6C-4FD1-9610-580FC20C31CB";
name = "Oct 21 20, 11:37";
paths = (
{
closed = 1;
nodes = (
"413 57 LINE",
"391 38 LINE",
"191 38 LINE",
"172 60 LINE",
"172 550 LINE",
"191 572 LINE",
"249 572 LINE",
"249 600 LINE",
"20 600 LINE",
"20 572 LINE",
"70 572 LINE",
"89 550 LINE",
"89 50 LINE",
"70 28 LINE",
"20 28 LINE",
"20 0 LINE",
"441 0 LINE",
"441 105 LINE",
"413 105 LINE"
);
}
);
width = 461;
},
{
layerId = "715E6458-225A-4B30-851F-23A0A4A3DE49";
paths = (
{
closed = 1;
nodes = (
"373 57 LINE",
"351 38 LINE",
"151 38 LINE",
"132 60 LINE",
"249 600 LINE",
"170 600 LINE",
"43 28 LINE",
"-20 28 LINE",
"-20 0 LINE",
"401 0 LINE",
"401 105 LINE",
"373 105 LINE"
);
}
);
width = 451;
}
);
leftKerningGroup = uppercase;
leftMetricsKey = I;
unicode = 004C;
},
{
glyphname = M;
lastChange = "2022-06-21 15:32:49 +0000";
layers = (
{
background = {
paths = (
{
closed = 1;
nodes = (
"175 0 LINE",
"175 16 LINE",
"96 34 LINE",
"96 493 LINE",
"300 0 LINE",
"324 0 LINE",
"508 501 LINE",
"508 34 LINE",
"431 16 LINE",
"431 0 LINE",
"660 0 LINE",
"660 16 LINE",
"581 34 LINE",
"581 566 LINE",
"660 584 LINE",
"660 600 LINE",
"505 600 LINE",
"331 121 LINE",
"133 600 LINE",
"-32 600 LINE",
"-32 584 LINE",
"47 566 LINE",
"47 34 LINE",
"-29 16 LINE",
"-29 0 LINE"
);
}
);
};
layerId = "A0FA55D0-E595-4D47-A77D-3C8049EF6A20";
paths = (
{
closed = 1;
nodes = (
"203 0 LINE",
"203 28 LINE",
"155 28 LINE",
"136 50 LINE",
"136 396 LINE",
"300 0 LINE",
"334 0 LINE",
"518 501 LINE",
"518 50 LINE",
"499 28 LINE",
"449 28 LINE",
"449 0 LINE",
"668 0 LINE",
"668 28 LINE",
"620 28 LINE",
"601 50 LINE",
"601 550 LINE",
"620 572 LINE",
"670 572 LINE",
"670 600 LINE",
"515 600 LINE",
"341 121 LINE",
"143 600 LINE",
"89 600 LINE",
"89 50 LINE",
"70 28 LINE",
"20 28 LINE",
"20 0 LINE"
);
}
);
width = 690;
},
{
associatedMasterId = "A0FA55D0-E595-4D47-A77D-3C8049EF6A20";
background = {
paths = (
{
closed = 1;
nodes = (
"185 0 LINE",
"185 16 LINE",
"106 34 LINE",
"106 493 LINE",
"310 0 LINE",
"334 0 LINE",
"518 501 LINE",
"518 34 LINE",
"441 16 LINE",
"441 0 LINE",
"670 0 LINE",
"670 16 LINE",
"591 34 LINE",
"591 566 LINE",
"670 584 LINE",
"670 600 LINE",
"515 600 LINE",
"341 121 LINE",
"143 600 LINE",
"-22 600 LINE",
"-22 584 LINE",
"57 566 LINE",
"57 34 LINE",
"-19 16 LINE",
"-19 0 LINE"
);
}
);
};
layerId = "F1D022E3-CD1E-4222-A5B2-28779F0DE2B1";
name = "Oct 21 20, 11:40";
paths = (
{
closed = 1;
nodes = (
"630 572 LINE",
"680 572 LINE",
"680 600 LINE",
"525 600 LINE",
"351 121 LINE",
"153 600 LINE",
"20 600 LINE",
"20 572 LINE",
"70 572 LINE",
"99 508 LINE",
"99 50 LINE",
"80 28 LINE",
"30 28 LINE",
"30 0 LINE",
"213 0 LINE",
"213 28 LINE",
"165 28 LINE",
"146 50 LINE",
"146 396 LINE",
"310 0 LINE",
"344 0 LINE",
"528 501 LINE",
"528 50 LINE",
"509 28 LINE",
"459 28 LINE",
"459 0 LINE",
"678 0 LINE",
"678 28 LINE",
"630 28 LINE",
"611 50 LINE",
"611 550 LINE"
);
}
);
width = 700;
},
{
layerId = "715E6458-225A-4B30-851F-23A0A4A3DE49";
paths = (
{
closed = 1;
nodes = (
"709 572 LINE",
"759 572 LINE",
"759 600 LINE",
"606 600 LINE",
"336 128 LINE",
"237 600 LINE",
"191 600 LINE",
"63 28 LINE",
"0 28 LINE",
"0 0 LINE",
"183 0 LINE",
"183 28 LINE",
"135 28 LINE",
"116 50 LINE",
"194 396 LINE",
"280 0 LINE",
"314 0 LINE",
"599 501 LINE",
"493 28 LINE",
"429 28 LINE",
"429 0 LINE",
"648 0 LINE",
"648 28 LINE",
"600 28 LINE",
"581 50 LINE",
"690 550 LINE"
);
}
);
width = 729;
}
);
leftKerningGroup = uppercase;
rightKerningGroup = uppercase;
unicode = 004D;
},
{
glyphname = N;
lastChange = "2022-06-21 15:32:49 +0000";
layers = (
{
background = {
paths = (
{
closed = 1;
nodes = (
"218 0 LINE",
"218 18 LINE",
"145 34 LINE",
"139 549 LINE",
"418 0 LINE",
"516 0 LINE",
"517 566 LINE",
"593 584 LINE",
"593 600 LINE",
"395 600 LINE",
"395 584 LINE",
"469 565 LINE",
"469 70 LINE",
"190 600 LINE",
"23 600 LINE",
"23 584 LINE",
"97 566 LINE",
"97 34 LINE",
"23 16 LINE",
"23 0 LINE"
);
}
);
};
layerId = "A0FA55D0-E595-4D47-A77D-3C8049EF6A20";
paths = (
{
closed = 1;
nodes = (
"208 0 LINE",
"208 28 LINE",
"160 28 LINE",
"141 50 LINE",
"141 72 LINE",
"137 434 LINE",
"408 0 LINE",
"521 0 LINE",
"522 528 LINE",
"522 550 LINE",
"541 572 LINE",
"589 572 LINE",
"589 600 LINE",
"401 600 LINE",
"401 572 LINE",
"451 572 LINE",
"470 550 LINE",
"470 70 LINE",
"127 600 LINE",
"89 600 LINE",
"89 50 LINE",
"70 28 LINE",
"20 28 LINE",
"20 0 LINE"
);
}
);
width = 609;
},
{
layerId = "715E6458-225A-4B30-851F-23A0A4A3DE49";
paths = (
{
closed = 1;
nodes = (
"445 572 LINE",
"495 572 LINE",
"514 550 LINE",
"417 70 LINE",
"209 600 LINE",
"171 600 LINE",
"40 28 LINE",
"-20 28 LINE",
"-20 0 LINE",
"168 0 LINE",
"168 28 LINE",
"120 28 LINE",
"101 50 LINE",
"101 72 LINE",
"183 434 LINE",
"355 0 LINE",
"448 0 LINE",
"566 550 LINE",
"585 572 LINE",
"633 572 LINE",
"633 600 LINE",
"445 600 LINE"
);
}
);
width = 593;
}
);
rightKerningGroup = uppercase;
unicode = 004E;
},
{
glyphname = O;
lastChange = "2022-06-21 15:32:49 +0000";
layers = (
{
background = {
paths = (
{
closed = 1;
nodes = (
"439 -10 OFFCURVE",
"561 96 OFFCURVE",
"561 305 CURVE SMOOTH",
"561 513 OFFCURVE",
"425 610 OFFCURVE",
"303 610 CURVE SMOOTH",
"166 610 OFFCURVE",
"40 513 OFFCURVE",
"40 304 CURVE SMOOTH",
"40 96 OFFCURVE",
"151 -10 OFFCURVE",
"303 -10 CURVE SMOOTH"
);
},
{
closed = 1;
nodes = (
"207 15 OFFCURVE",
"132 126 OFFCURVE",
"132 296 CURVE SMOOTH",
"132 509 OFFCURVE",
"222 588 OFFCURVE",
"303 588 CURVE SMOOTH",
"389 588 OFFCURVE",
"472 510 OFFCURVE",
"472 297 CURVE SMOOTH",
"472 126 OFFCURVE",
"404 15 OFFCURVE",
"303 15 CURVE SMOOTH"
);
}
);
};
layerId = "A0FA55D0-E595-4D47-A77D-3C8049EF6A20";
paths = (
{
closed = 1;
nodes = (
"467 -9 OFFCURVE",
"562 113 OFFCURVE",
"562 308 CURVE SMOOTH",
"562 482 OFFCURVE",
"453 610 OFFCURVE",
"305 610 CURVE SMOOTH",
"144 610 OFFCURVE",
"40 487 OFFCURVE",
"40 306 CURVE SMOOTH",
"40 138 OFFCURVE",
"120 -9 OFFCURVE",
"305 -9 CURVE SMOOTH"
);
},
{
closed = 1;
nodes = (
"140 481 OFFCURVE",
"198 588 OFFCURVE",
"305 588 CURVE SMOOTH",
"406 588 OFFCURVE",
"464 482 OFFCURVE",
"464 297 CURVE SMOOTH",
"464 149 OFFCURVE",
"401 19 OFFCURVE",
"304 15 CURVE SMOOTH",
"197 11 OFFCURVE",
"140 156 OFFCURVE",
"140 297 CURVE SMOOTH"
);
}
);
width = 602;
},
{
associatedMasterId = "A0FA55D0-E595-4D47-A77D-3C8049EF6A20";
background = {
paths = (
{
closed = 1;
nodes = (
"459 -10 OFFCURVE",
"581 96 OFFCURVE",
"581 305 CURVE SMOOTH",
"581 513 OFFCURVE",
"445 610 OFFCURVE",
"323 610 CURVE SMOOTH",
"186 610 OFFCURVE",
"60 513 OFFCURVE",
"60 304 CURVE SMOOTH",
"60 96 OFFCURVE",
"171 -10 OFFCURVE",
"323 -10 CURVE SMOOTH"
);
},
{
closed = 1;
nodes = (
"227 15 OFFCURVE",
"152 126 OFFCURVE",
"152 296 CURVE SMOOTH",
"152 509 OFFCURVE",
"242 588 OFFCURVE",
"323 588 CURVE SMOOTH",
"409 588 OFFCURVE",
"492 510 OFFCURVE",
"492 297 CURVE SMOOTH",
"492 126 OFFCURVE",
"424 15 OFFCURVE",
"323 15 CURVE SMOOTH"
);
}
);
};
layerId = "CE7BC468-734D-46FD-AAC6-3284578FD455";
name = "Apr 15 20, 15:38";
paths = (
{
closed = 1;
nodes = (
"459 -10 OFFCURVE",
"581 96 OFFCURVE",
"581 305 CURVE SMOOTH",
"581 513 OFFCURVE",
"445 610 OFFCURVE",
"323 610 CURVE SMOOTH",
"186 610 OFFCURVE",
"60 513 OFFCURVE",
"60 304 CURVE SMOOTH",
"60 96 OFFCURVE",
"171 -10 OFFCURVE",
"323 -10 CURVE SMOOTH"
);
},
{
closed = 1;
nodes = (
"227 15 OFFCURVE",
"152 126 OFFCURVE",
"152 296 CURVE SMOOTH",
"152 509 OFFCURVE",
"242 588 OFFCURVE",
"323 588 CURVE SMOOTH",
"409 588 OFFCURVE",
"492 510 OFFCURVE",
"492 297 CURVE SMOOTH",
"492 126 OFFCURVE",
"424 15 OFFCURVE",
"323 15 CURVE SMOOTH"
);
}
);
width = 641;
},
{
layerId = "715E6458-225A-4B30-851F-23A0A4A3DE49";
paths = (
{
closed = 1;
nodes = (
"515 120 OFFCURVE",
"553 322 CURVE SMOOTH",
"581 472 OFFCURVE",
"509 604 OFFCURVE",
"373 610 CURVE SMOOTH",
"219 617 OFFCURVE",
"92 486 OFFCURVE",
"46 322 CURVE SMOOTH",
"1 163 OFFCURVE",
"54 -2 OFFCURVE",
"199 -9 CURVE SMOOTH",
"382 -18 OFFCURVE"
);
},
{
closed = 1;
nodes = (
"347 -1 OFFCURVE",
"210 12 CURVE SMOOTH",
"118 21 OFFCURVE",
"104 181 OFFCURVE",
"148 322 CURVE SMOOTH",
"193 466 OFFCURVE",
"262 588 OFFCURVE",
"368 585 CURVE SMOOTH",
"450 583 OFFCURVE",
"483 467 OFFCURVE",
"452 322 CURVE SMOOTH",
"416 156 OFFCURVE"
);
}
);
width = 589;
},
{
associatedMasterId = "715E6458-225A-4B30-851F-23A0A4A3DE49";
layerId = "789EA50A-7EA7-4E12-9B1C-5D5671A3762A";
name = "Dec 1 20, 10:19";
paths = (
{
closed = 1;
nodes = (
"162 621 OFFCURVE",
"37 495 OFFCURVE",
"5 294 CURVE SMOOTH",
"-19 145 OFFCURVE",
"52 0 OFFCURVE",
"203 -8 CURVE SMOOTH",
"395 -18 OFFCURVE",
"531 105 OFFCURVE",
"563 309 CURVE SMOOTH",
"586 458 OFFCURVE",
"516 602 OFFCURVE",
"365 610 CURVE SMOOTH"
);
},
{
closed = 1;
nodes = (
"431 152 OFFCURVE",
"358 12 OFFCURVE",
"230 18 CURVE SMOOTH",
"116 23 OFFCURVE",
"81 155 OFFCURVE",
"105 286 CURVE SMOOTH",
"142 489 OFFCURVE",
"224 597 OFFCURVE",
"354 584 CURVE SMOOTH",
"437 576 OFFCURVE",
"488 456 OFFCURVE",
"462 317 CURVE SMOOTH"
);
}
);
width = 597;
}
);
unicode = 004F;
},
{
glyphname = Oslash;
lastChange = "2022-06-21 15:32:49 +0000";
layers = (
{
components = (
{
name = O;
transform = "{1, 0, 0, 1, 1, 0}";
}
);
layerId = "A0FA55D0-E595-4D47-A77D-3C8049EF6A20";
paths = (
{
closed = 1;
nodes = (
"77 -49 LINE",
"536 640 LINE",
"498 640 LINE",
"40 -49 LINE"
);
}
);
width = 603;
},
{
components = (
{
name = O;
}
);
layerId = "715E6458-225A-4B30-851F-23A0A4A3DE49";
paths = (
{
closed = 1;
nodes = (
"76 -49 LINE",
"535 640 LINE",
"497 640 LINE",
"39 -49 LINE"
);
}
);
width = 589;
}
);
leftMetricsKey = O;
rightMetricsKey = O;
unicode = 00D8;
},
{
glyphname = OE;
lastChange = "2022-06-21 15:32:49 +0000";
layers = (
{
layerId = "A0FA55D0-E595-4D47-A77D-3C8049EF6A20";
paths = (
{
closed = 1;
nodes = (
"313 -9 OFFCURVE",
"322 -9 OFFCURVE",
"330 -8 CURVE",
"812 -8 LINE",
"812 97 LINE",
"784 97 LINE",
"784 49 LINE",
"762 30 LINE",
"498 30 LINE",
"479 52 LINE",
"479 59 LINE",
"531 113 OFFCURVE",
"560 195 OFFCURVE",
"562 299 CURVE",
"572 311 LINE",
"721 311 LINE",
"743 292 LINE",
"743 262 LINE",
"771 262 LINE",
"771 394 LINE",
"743 394 LINE",
"743 366 LINE",
"721 347 LINE",
"572 347 LINE",
"558 363 LINE",
"547 440 OFFCURVE",
"514 505 OFFCURVE",
"465 549 CURVE",
"465 550 LINE",
"484 572 LINE",
"720 572 LINE",
"742 553 LINE",
"742 507 LINE",
"770 507 LINE",
"770 610 LINE",
"305 610 LINE SMOOTH",
"144 610 OFFCURVE",
"40 487 OFFCURVE",
"40 306 CURVE SMOOTH",
"40 128 OFFCURVE",
"128 -9 OFFCURVE",
"305 -9 CURVE SMOOTH"
);
},
{
closed = 1;
nodes = (
"140 481 OFFCURVE",
"198 588 OFFCURVE",
"305 588 CURVE SMOOTH",
"406 588 OFFCURVE",
"464 482 OFFCURVE",
"464 297 CURVE SMOOTH",
"464 149 OFFCURVE",
"401 19 OFFCURVE",
"304 15 CURVE SMOOTH",
"197 11 OFFCURVE",
"140 156 OFFCURVE",
"140 297 CURVE SMOOTH"
);
}
);
width = 842;
},
{
components = (
{
alignment = -1;
name = O;
}
);
layerId = "715E6458-225A-4B30-851F-23A0A4A3DE49";
paths = (
{
closed = 1;
nodes = (
"334 28 LINE",
"209 -10 LINE",
"731 -10 LINE",
"753 95 LINE",
"725 95 LINE",
"715 47 LINE",
"693 28 LINE"
);
},
{
closed = 1;
nodes = (
"620 572 LINE",
"767 572 LINE",
"789 553 LINE",
"798 507 LINE",
"826 507 LINE",
"847 610 LINE",
"372 610 LINE",
"434 572 LINE"
);
},
{
closed = 1;
nodes = (
"530 244 LINE",
"535 269 LINE",
"564 291 LINE",
"723 291 LINE",
"745 272 LINE",
"745 242 LINE",
"773 242 LINE",
"800 374 LINE",
"772 374 LINE",
"763 346 LINE",
"741 327 LINE",
"572 327 LINE",
"553 349 LINE",
"558 375 LINE",
"479 384 LINE",
"452 252 LINE"
);
}
);
width = 837;
}
);
leftMetricsKey = O;
rightMetricsKey = E;
unicode = 0152;
},
{
glyphname = P;
lastChange = "2022-06-21 15:32:49 +0000";
layers = (
{
background = {
paths = (
{
closed = 1;
nodes = (
"146 0 LINE",
"261 -1 LINE",
"261 17 LINE",
"179 34 LINE",
"179 314 LINE",
"330 314 LINE SMOOTH",
"408 314 OFFCURVE",
"480 374 OFFCURVE",
"480 463 CURVE SMOOTH",
"480 571 OFFCURVE",
"376 600 OFFCURVE",
"285 600 CURVE SMOOTH",
"20 600 LINE",
"20 583 LINE",
"102 566 LINE",
"102 34 LINE",
"20 17 LINE",
"20 -1 LINE"
);
},
{
closed = 1;
nodes = (
"179 573 LINE",
"305 573 LINE SMOOTH",
"369 573 OFFCURVE",
"406 524 OFFCURVE",
"406 462 CURVE SMOOTH",
"406 401 OFFCURVE",
"372 345 OFFCURVE",
"312 345 CURVE SMOOTH",
"179 345 LINE"
);
}
);
};
layerId = "A0FA55D0-E595-4D47-A77D-3C8049EF6A20";
paths = (
{
closed = 1;
nodes = (
"240 0 LINE",
"240 28 LINE",
"191 28 LINE",
"172 50 LINE",
"172 292 LINE",
"191 314 LINE",
"250 314 LINE SMOOTH",
"367 314 OFFCURVE",
"453 367 OFFCURVE",
"453 471 CURVE SMOOTH",
"453 573 OFFCURVE",
"367 600 OFFCURVE",
"250 600 CURVE SMOOTH",
"20 600 LINE",
"20 572 LINE",
"70 572 LINE",
"89 550 LINE",
"89 50 LINE",
"70 28 LINE",
"20 28 LINE",
"20 0 LINE"
);
},
{
closed = 1;
nodes = (
"172 550 LINE",
"191 572 LINE",
"271 572 LINE SMOOTH",
"335 572 OFFCURVE",
"369 531 OFFCURVE",
"369 469 CURVE SMOOTH",
"369 409 OFFCURVE",
"338 345 OFFCURVE",
"278 345 CURVE SMOOTH",
"191 345 LINE",
"172 367 LINE"
);
}
);
width = 493;
},
{
associatedMasterId = "A0FA55D0-E595-4D47-A77D-3C8049EF6A20";
layerId = "0528BFDA-05A8-40C4-AC18-67FE7D4F5166";
paths = (
{
closed = 1;
nodes = (
"22 687 LINE",
"22 672 LINE",
"78 651 LINE",
"78 36 LINE",
"1 15 LINE",
"1 0 LINE",
"218 0 LINE",
"218 15 LINE",
"152 36 LINE",
"152 322 LINE",
"254 322 LINE SMOOTH",
"402 322 OFFCURVE",
"500 398 OFFCURVE",
"500 505 CURVE SMOOTH",
"500 608 OFFCURVE",
"397 687 OFFCURVE",
"243 687 CURVE SMOOTH"
);
},
{
closed = 1;
nodes = (
"152 360 LINE",
"152 651 LINE",
"270 651 LINE SMOOTH",
"368 651 OFFCURVE",
"434 586 OFFCURVE",
"434 503 CURVE SMOOTH",
"434 423 OFFCURVE",
"372 360 OFFCURVE",
"280 360 CURVE SMOOTH"
);
}
);
width = 520;
},
{
background = {
paths = (
{
closed = 1;
nodes = (
"224 600 LINE",
"108 600 LINE",
"108 572 LINE",
"158 572 LINE",
"177 550 LINE",
"177 544 LINE"
);
}
);
};
layerId = "715E6458-225A-4B30-851F-23A0A4A3DE49";
paths = (
{
closed = 1;
nodes = (
"404 387 LINE",
"375 360 OFFCURVE",
"337 345 OFFCURVE",
"303 345 CURVE SMOOTH",
"236 345 LINE",
"217 367 LINE",
"256 550 LINE",
"285 572 LINE",
"344 572 LINE",
"345 600 LINE",
"109 600 LINE",
"109 572 LINE",
"159 572 LINE",
"178 550 LINE",
"64 28 LINE",
"0 28 LINE",
"0 0 LINE",
"209 0 LINE",
"209 28 LINE",
"174 28 LINE",
"145 50 LINE",
"201 292 LINE",
"230 314 LINE",
"332 314 OFFCURVE",
"405 321 OFFCURVE",
"453 353 CURVE"
);
},
{
closed = 1;
nodes = (
"453 353 LINE",
"490 376 OFFCURVE",
"512 413 OFFCURVE",
"522 471 CURVE SMOOTH",
"537 557 OFFCURVE",
"484 600 OFFCURVE",
"393 600 CURVE",
"345 600 LINE",
"344 572 LINE",
"360 572 LINE SMOOTH",
"404 572 OFFCURVE",
"457 530 OFFCURVE",
"448 469 CURVE SMOOTH",
"443 436 OFFCURVE",
"426 408 OFFCURVE",
"404 387 CURVE"
);
}
);
width = 505;
}
);
rightMetricsKey = F;
unicode = 0050;
},
{
glyphname = Q;
lastChange = "2022-06-21 15:32:49 +0000";
layers = (
{
background = {
paths = (
{
closed = 1;
nodes = (
"508 -32 LINE",
"456 -65 OFFCURVE",
"387 -53 OFFCURVE",
"341 -10 CURVE",
"456 1 OFFCURVE",
"581 119 OFFCURVE",
"581 304 CURVE SMOOTH",
"581 512 OFFCURVE",
"445 604 OFFCURVE",
"323 604 CURVE SMOOTH",
"186 604 OFFCURVE",
"60 512 OFFCURVE",
"60 303 CURVE SMOOTH",
"60 122 OFFCURVE",
"171 4 OFFCURVE",
"299 -10 CURVE",
"353 -77 OFFCURVE",
"441 -130 OFFCURVE",
"519 -99 CURVE"
);
},
{
closed = 1;
nodes = (
"242 14 OFFCURVE",
"156 125 OFFCURVE",
"156 295 CURVE SMOOTH",
"156 508 OFFCURVE",
"242 582 OFFCURVE",
"323 582 CURVE SMOOTH",
"409 582 OFFCURVE",
"490 509 OFFCURVE",
"490 296 CURVE SMOOTH",
"490 125 OFFCURVE",
"409 14 OFFCURVE",
"323 14 CURVE SMOOTH"
);
}
);
};
components = (
{
name = O;
}
);
layerId = "A0FA55D0-E595-4D47-A77D-3C8049EF6A20";
paths = (
{
closed = 1;
nodes = (
"545 -148 LINE",
"475 -142 OFFCURVE",
"421 -83 OFFCURVE",
"373 -1 CURVE",
"315 14 LINE",
"304 14 LINE",
"245 -1 LINE",
"252 -4 LINE",
"300 -51 OFFCURVE",
"368 -135 OFFCURVE",
"442 -160 CURVE SMOOTH",
"478 -172 OFFCURVE",
"513 -178 OFFCURVE",
"545 -179 CURVE"
);
}
);
width = 602;
},
{
associatedMasterId = "A0FA55D0-E595-4D47-A77D-3C8049EF6A20";
background = {
paths = (
{
closed = 1;
nodes = (
"508 -32 LINE",
"456 -65 OFFCURVE",
"387 -53 OFFCURVE",
"341 -10 CURVE",
"456 1 OFFCURVE",
"581 119 OFFCURVE",
"581 304 CURVE SMOOTH",
"581 512 OFFCURVE",
"445 604 OFFCURVE",
"323 604 CURVE SMOOTH",
"186 604 OFFCURVE",
"60 512 OFFCURVE",
"60 303 CURVE SMOOTH",
"60 122 OFFCURVE",
"171 4 OFFCURVE",
"299 -10 CURVE",
"353 -77 OFFCURVE",
"441 -130 OFFCURVE",
"519 -99 CURVE"
);
},
{
closed = 1;
nodes = (
"242 14 OFFCURVE",
"156 125 OFFCURVE",
"156 295 CURVE SMOOTH",
"156 508 OFFCURVE",
"242 582 OFFCURVE",
"323 582 CURVE SMOOTH",
"409 582 OFFCURVE",
"490 509 OFFCURVE",
"490 296 CURVE SMOOTH",
"490 125 OFFCURVE",
"409 14 OFFCURVE",
"323 14 CURVE SMOOTH"
);
}
);
};
layerId = "E088182A-E5E5-4C6C-99B2-D2CFDF1B0EC0";
name = "Apr 15 20, 15:41";
paths = (
{
closed = 1;
nodes = (
"508 -32 LINE",
"456 -65 OFFCURVE",
"387 -53 OFFCURVE",
"341 -10 CURVE",
"456 1 OFFCURVE",
"581 119 OFFCURVE",
"581 304 CURVE SMOOTH",
"581 512 OFFCURVE",
"445 604 OFFCURVE",
"323 604 CURVE SMOOTH",
"186 604 OFFCURVE",
"60 512 OFFCURVE",
"60 303 CURVE SMOOTH",
"60 122 OFFCURVE",
"171 4 OFFCURVE",
"299 -10 CURVE",
"353 -77 OFFCURVE",
"441 -130 OFFCURVE",
"519 -99 CURVE"
);
},
{
closed = 1;
nodes = (
"242 14 OFFCURVE",
"156 125 OFFCURVE",
"156 295 CURVE SMOOTH",
"156 508 OFFCURVE",
"242 582 OFFCURVE",
"323 582 CURVE SMOOTH",
"409 582 OFFCURVE",
"490 509 OFFCURVE",
"490 296 CURVE SMOOTH",
"490 125 OFFCURVE",
"409 14 OFFCURVE",
"323 14 CURVE SMOOTH"
);
}
);
width = 641;
},
{
layerId = "715E6458-225A-4B30-851F-23A0A4A3DE49";
paths = (
{
closed = 1;
nodes = (
"565 472 OFFCURVE",
"493 604 OFFCURVE",
"357 610 CURVE SMOOTH",
"203 617 OFFCURVE",
"80 485 OFFCURVE",
"30 322 CURVE",
"30 320 LINE",
"29 320 OFFCURVE",
"29 320 OFFCURVE",
"29 320 CURVE",
"29 319 LINE",
"-5 205 OFFCURVE",
"6 107 OFFCURVE",
"60 47 CURVE SMOOTH",
"78 27 OFFCURVE",
"97 14 OFFCURVE",
"126 2 CURVE SMOOTH",
"267 -54 OFFCURVE",
"217 -149 OFFCURVE",
"484 -132 CURVE",
"484 -101 LINE",
"416 -98 OFFCURVE",
"325 -86 OFFCURVE",
"257 -4 CURVE",
"402 22 OFFCURVE",
"504 148 OFFCURVE",
"537 322 CURVE SMOOTH"
);
},
{
closed = 1;
nodes = (
"177 466 OFFCURVE",
"246 588 OFFCURVE",
"352 585 CURVE SMOOTH",
"434 583 OFFCURVE",
"467 467 OFFCURVE",
"436 322 CURVE SMOOTH",
"400 156 OFFCURVE",
"331 -1 OFFCURVE",
"194 12 CURVE SMOOTH",
"102 21 OFFCURVE",
"88 181 OFFCURVE",
"132 322 CURVE SMOOTH"
);
}
);
width = 553;
}
);
unicode = 0051;
},
{
glyphname = R;
lastChange = "2022-06-21 15:32:49 +0000";
layers = (
{
background = {
paths = (
{
closed = 1;
nodes = (
"171 0 LINE",
"171 294 LINE",
"243 294 LINE",
"401 34 LINE",
"326 16 LINE",
"326 0 LINE",
"550 0 LINE",
"550 17 LINE",
"473 34 LINE",
"315 296 LINE",
"388 296 OFFCURVE",
"457 371 OFFCURVE",
"457 453 CURVE SMOOTH",
"457 561 OFFCURVE",
"346 600 OFFCURVE",
"255 600 CURVE SMOOTH",
"21 600 LINE",
"21 584 LINE",
"98 566 LINE",
"98 34 LINE",
"16 16 LINE",
"16 0 LINE"
);
},
{
closed = 1;
nodes = (
"171 573 LINE",
"275 573 LINE SMOOTH",
"339 573 OFFCURVE",
"380 514 OFFCURVE",
"380 452 CURVE SMOOTH",
"380 391 OFFCURVE",
"342 325 OFFCURVE",
"282 325 CURVE SMOOTH",
"171 325 LINE"
);
}
);
};
layerId = "A0FA55D0-E595-4D47-A77D-3C8049EF6A20";
paths = (
{
closed = 1;
nodes = (
"168 0 LINE",
"168 292 LINE",
"187 314 LINE",
"227 314 LINE",
"382 50 LINE",
"363 28 LINE",
"313 28 LINE",
"313 0 LINE",
"528 0 LINE",
"528 28 LINE",
"479 28 LINE",
"304 319 LINE",
"390 334 OFFCURVE",
"449 385 OFFCURVE",
"449 471 CURVE SMOOTH",
"449 573 OFFCURVE",
"363 600 OFFCURVE",
"246 600 CURVE SMOOTH",
"20 600 LINE",
"20 572 LINE",
"70 572 LINE",
"89 550 LINE",
"89 0 LINE"
);
},
{
closed = 1;
nodes = (
"168 550 LINE",
"187 572 LINE",
"267 572 LINE SMOOTH",
"331 572 OFFCURVE",
"365 531 OFFCURVE",
"365 469 CURVE SMOOTH",
"365 409 OFFCURVE",
"334 345 OFFCURVE",
"274 345 CURVE SMOOTH",
"187 345 LINE",
"168 367 LINE"
);
}
);
width = 528;
},
{
associatedMasterId = "A0FA55D0-E595-4D47-A77D-3C8049EF6A20";
layerId = "D25E83D0-CD1F-495A-A3E1-EDDABCC7F014";
paths = (
{
closed = 1;
nodes = (
"89 89 LINE",
"89 36 LINE",
"11 15 LINE",
"11 0 LINE",
"228 0 LINE",
"228 15 LINE",
"162 36 LINE",
"162 89 LINE"
);
},
{
closed = 1;
nodes = (
"162 651 LINE",
"165 652 LINE",
"276 652 LINE SMOOTH",
"377 652 OFFCURVE",
"434 591 OFFCURVE",
"434 499 CURVE SMOOTH",
"434 415 OFFCURVE",
"376 359 OFFCURVE",
"274 359 CURVE SMOOTH",
"162 359 LINE"
);
},
{
closed = 1;
nodes = (
"162 89 LINE",
"162 324 LINE",
"279 324 LINE",
"458 34 LINE",
"389 15 LINE",
"389 0 LINE",
"586 0 LINE",
"586 15 LINE",
"528 33 LINE",
"337 329 LINE",
"443 351 OFFCURVE",
"514 419 OFFCURVE",
"514 499 CURVE SMOOTH",
"514 612 OFFCURVE",
"414 687 OFFCURVE",
"263 687 CURVE SMOOTH",
"32 687 LINE",
"32 672 LINE",
"89 651 LINE",
"89 89 LINE"
);
}
);
width = 600;
},
{
associatedMasterId = "A0FA55D0-E595-4D47-A77D-3C8049EF6A20";
layerId = "DA1E99DF-C8FB-47F0-AE36-18608DDE059D";
name = "Feb 13 20, 14:24";
paths = (
{
closed = 1;
nodes = (
"440 293 LINE",
"578 48 LINE",
"578 46 LINE",
"470 35 LINE",
"470 0 LINE",
"787 0 LINE",
"787 35 LINE",
"679 46 LINE",
"537 296 LINE"
);
},
{
closed = 1;
nodes = (
"253 689 LINE",
"423 689 LINE SMOOTH",
"519 689 OFFCURVE",
"563 639 OFFCURVE",
"563 549 CURVE SMOOTH",
"563 478 OFFCURVE",
"520 398 OFFCURVE",
"425 398 CURVE SMOOTH",
"253 398 LINE"
);
},
{
closed = 1;
nodes = (
"537 296 LINE",
"501 360 LINE",
"605 387 OFFCURVE",
"674 459 OFFCURVE",
"674 543 CURVE SMOOTH",
"674 689 OFFCURVE",
"551 737 OFFCURVE",
"401 737 CURVE SMOOTH",
"43 737 LINE",
"43 702 LINE",
"151 691 LINE",
"151 46 LINE",
"43 35 LINE",
"43 0 LINE",
"361 0 LINE",
"361 35 LINE",
"253 46 LINE",
"253 347 LINE",
"410 347 LINE",
"440 293 LINE"
);
}
);
width = 790;
},
{
layerId = "715E6458-225A-4B30-851F-23A0A4A3DE49";
paths = (
{
closed = 1;
nodes = (
"308 314 LINE",
"410 326 OFFCURVE",
"468 369 OFFCURVE",
"485 470 CURVE SMOOTH",
"500 557 OFFCURVE",
"447 600 OFFCURVE",
"356 600 CURVE",
"225 600 LINE",
"72 600 LINE",
"72 572 LINE",
"122 572 LINE",
"141 550 LINE",
"79 266 LINE",
"20 0 LINE",
"96 0 LINE",
"158 266 LINE",
"164 292 LINE",
"193 314 LINE",
"233 314 LINE",
"360 50 LINE",
"331 28 LINE",
"296 28 LINE",
"296 0 LINE",
"495 0 LINE",
"495 28 LINE",
"445 28 LINE"
);
},
{
closed = 1;
nodes = (
"219 550 LINE",
"248 572 LINE",
"323 572 LINE SMOOTH",
"367 572 OFFCURVE",
"424 529 OFFCURVE",
"411 469 CURVE SMOOTH",
"390 373 OFFCURVE",
"326 345 OFFCURVE",
"266 345 CURVE SMOOTH",
"199 345 LINE",
"180 367 LINE"
);
}
);
width = 515;
}
);
leftMetricsKey = H;
unicode = 0052;
},
{
glyphname = S;
lastChange = "2022-06-21 15:32:49 +0000";
layers = (
{
background = {
paths = (
{
closed = 1;
nodes = (
"348 -10 OFFCURVE",
"428 45 OFFCURVE",
"428 163 CURVE SMOOTH",
"428 259 OFFCURVE",
"331 316 OFFCURVE",
"219 357 CURVE SMOOTH",
"181 371 OFFCURVE",
"120 402 OFFCURVE",
"106 454 CURVE SMOOTH",
"89 518 OFFCURVE",
"145 581 OFFCURVE",
"223 581 CURVE SMOOTH",
"283 581 OFFCURVE",
"324 555 OFFCURVE",
"327 521 CURVE SMOOTH",
"329 484 OFFCURVE",
"310 484 OFFCURVE",
"317 453 CURVE SMOOTH",
"323 428 OFFCURVE",
"357 423 OFFCURVE",
"371 427 CURVE SMOOTH",
"390 432 OFFCURVE",
"418 458 OFFCURVE",
"393 518 CURVE SMOOTH",
"372 569 OFFCURVE",
"311 611 OFFCURVE",
"217 611 CURVE SMOOTH",
"111 611 OFFCURVE",
"42 546 OFFCURVE",
"42 444 CURVE SMOOTH",
"42 375 OFFCURVE",
"106 298 OFFCURVE",
"209 255 CURVE SMOOTH",
"288 222 OFFCURVE",
"358 216 OFFCURVE",
"371 151 CURVE SMOOTH",
"383 89 OFFCURVE",
"317 23 OFFCURVE",
"242 23 CURVE SMOOTH",
"163 23 OFFCURVE",
"81 68 OFFCURVE",
"70 224 CURVE",
"43 224 LINE",
"43 42 LINE",
"63 43 OFFCURVE",
"75 42 OFFCURVE",
"85 42 CURVE",
"148 10 OFFCURVE",
"187 -10 OFFCURVE",
"242 -10 CURVE SMOOTH"
);
}
);
};
layerId = "A0FA55D0-E595-4D47-A77D-3C8049EF6A20";
paths = (
{
closed = 1;
nodes = (
"249 -10 LINE SMOOTH",
"341 -10 OFFCURVE",
"442 37 OFFCURVE",
"442 171 CURVE SMOOTH",
"442 258 OFFCURVE",
"367 312 OFFCURVE",
"255 351 CURVE SMOOTH",
"218 364 OFFCURVE",
"133 402 OFFCURVE",
"118 462 CURVE SMOOTH",
"102 527 OFFCURVE",
"148 575 OFFCURVE",
"226 580 CURVE SMOOTH",
"297 585 OFFCURVE",
"373 499 OFFCURVE",
"383 380 CURVE",
"418 380 LINE",
"418 585 LINE",
"386 585 LINE",
"386 556 LINE",
"363 556 LINE",
"350 575 OFFCURVE",
"307 609 OFFCURVE",
"226 610 CURVE SMOOTH",
"130 611 OFFCURVE",
"50 552 OFFCURVE",
"50 454 CURVE SMOOTH",
"50 356 OFFCURVE",
"106 315 OFFCURVE",
"207 274 CURVE SMOOTH",
"288 238 OFFCURVE",
"359 216 OFFCURVE",
"368 152 CURVE SMOOTH",
"377 88 OFFCURVE",
"313 32 OFFCURVE",
"243 31 CURVE SMOOTH",
"242 31 LINE SMOOTH",
"171 31 OFFCURVE",
"95 110 OFFCURVE",
"85 231 CURVE",
"50 231 LINE",
"50 26 LINE",
"82 26 LINE",
"82 55 LINE",
"105 55 LINE",
"158 10 OFFCURVE",
"178 -9 OFFCURVE",
"243 -10 CURVE SMOOTH"
);
}
);
width = 482;
},
{
associatedMasterId = "A0FA55D0-E595-4D47-A77D-3C8049EF6A20";
background = {
paths = (
{
closed = 1;
nodes = (
"378 -10 OFFCURVE",
"458 45 OFFCURVE",
"458 163 CURVE SMOOTH",
"458 259 OFFCURVE",
"361 316 OFFCURVE",
"249 357 CURVE SMOOTH",
"211 371 OFFCURVE",
"150 402 OFFCURVE",
"136 454 CURVE SMOOTH",
"119 518 OFFCURVE",
"175 581 OFFCURVE",
"253 581 CURVE SMOOTH",
"313 581 OFFCURVE",
"354 555 OFFCURVE",
"357 521 CURVE SMOOTH",
"359 484 OFFCURVE",
"340 484 OFFCURVE",
"347 453 CURVE SMOOTH",
"353 428 OFFCURVE",
"387 423 OFFCURVE",
"401 427 CURVE SMOOTH",
"420 432 OFFCURVE",
"448 458 OFFCURVE",
"423 518 CURVE SMOOTH",
"402 569 OFFCURVE",
"341 611 OFFCURVE",
"247 611 CURVE SMOOTH",
"141 611 OFFCURVE",
"72 546 OFFCURVE",
"72 444 CURVE SMOOTH",
"72 375 OFFCURVE",
"136 298 OFFCURVE",
"239 255 CURVE SMOOTH",
"318 222 OFFCURVE",
"388 216 OFFCURVE",
"401 151 CURVE SMOOTH",
"413 89 OFFCURVE",
"347 23 OFFCURVE",
"272 23 CURVE SMOOTH",
"193 23 OFFCURVE",
"111 68 OFFCURVE",
"100 224 CURVE",
"73 224 LINE",
"73 42 LINE",
"93 43 OFFCURVE",
"105 42 OFFCURVE",
"115 42 CURVE",
"178 10 OFFCURVE",
"217 -10 OFFCURVE",
"272 -10 CURVE SMOOTH"
);
}
);
};
layerId = "CE166A8F-1DD3-440F-8ED6-C9C832933472";
name = "Apr 16 20, 10:27";
paths = (
{
closed = 1;
nodes = (
"371 -10 OFFCURVE",
"472 37 OFFCURVE",
"472 171 CURVE SMOOTH",
"472 258 OFFCURVE",
"397 302 OFFCURVE",
"285 341 CURVE SMOOTH",
"248 354 OFFCURVE",
"153 402 OFFCURVE",
"138 462 CURVE SMOOTH",
"121 530 OFFCURVE",
"173 580 OFFCURVE",
"258 580 CURVE SMOOTH",
"331 580 OFFCURVE",
"357 547 OFFCURVE",
"332 502 CURVE",
"324 477 OFFCURVE",
"328 460 OFFCURVE",
"334 448 CURVE SMOOTH",
"348 420 OFFCURVE",
"380 406 OFFCURVE",
"408 419 CURVE SMOOTH",
"443 435 OFFCURVE",
"446 479 OFFCURVE",
"427 524 CURVE SMOOTH",
"402 583 OFFCURVE",
"333 610 OFFCURVE",
"253 610 CURVE SMOOTH",
"154 610 OFFCURVE",
"70 555 OFFCURVE",
"70 454 CURVE SMOOTH",
"70 356 OFFCURVE",
"136 305 OFFCURVE",
"237 264 CURVE SMOOTH",
"318 228 OFFCURVE",
"389 216 OFFCURVE",
"398 152 CURVE SMOOTH",
"407 88 OFFCURVE",
"342 31 OFFCURVE",
"272 31 CURVE SMOOTH",
"201 31 OFFCURVE",
"125 110 OFFCURVE",
"115 231 CURVE",
"80 231 LINE",
"80 26 LINE",
"112 26 LINE",
"112 55 LINE",
"135 55 LINE",
"190 9 OFFCURVE",
"209 -10 OFFCURVE",
"279 -10 CURVE SMOOTH"
);
}
);
width = 522;
},
{
layerId = "715E6458-225A-4B30-851F-23A0A4A3DE49";
paths = (
{
closed = 1;
nodes = (
"462 575 LINE",
"436 575 LINE",
"429 546 LINE",
"403 546 LINE",
"375 593 OFFCURVE",
"335 607 OFFCURVE",
"254 610 CURVE SMOOTH",
"146 614 OFFCURVE",
"77 524 OFFCURVE",
"81 457 CURVE SMOOTH",
"86 367 OFFCURVE",
"137 333 OFFCURVE",
"211 281 CURVE SMOOTH",
"291 225 OFFCURVE",
"335 192 OFFCURVE",
"324 125 CURVE SMOOTH",
"315 72 OFFCURVE",
"289 13 OFFCURVE",
"221 15 CURVE SMOOTH",
"113 17 OFFCURVE",
"75 126 OFFCURVE",
"88 226 CURVE",
"57 226 LINE",
"20 31 LINE",
"47 31 LINE",
"52 51 LINE",
"75 50 LINE",
"94 32 OFFCURVE",
"156 -5 OFFCURVE",
"203 -9 CURVE SMOOTH",
"314 -18 OFFCURVE",
"382 38 OFFCURVE",
"402 123 CURVE SMOOTH",
"422 210 OFFCURVE",
"377 274 OFFCURVE",
"270 347 CURVE SMOOTH",
"178 410 OFFCURVE",
"168 433 OFFCURVE",
"168 496 CURVE SMOOTH",
"168 541 OFFCURVE",
"201 585 OFFCURVE",
"254 585 CURVE SMOOTH",
"350 585 OFFCURVE",
"407 487 OFFCURVE",
"398 390 CURVE",
"428 390 LINE"
);
}
);
width = 462;
}
);
unicode = 0053;
},
{
glyphname = T;
lastChange = "2022-06-21 15:32:49 +0000";
layers = (
{
background = {
paths = (
{
closed = 1;
nodes = (
"426 0 LINE",
"426 16 LINE",
"347 34 LINE",
"347 568 LINE",
"540 568 LINE",
"552 511 LINE",
"583 511 LINE",
"583 600 LINE",
"46 600 LINE",
"46 511 LINE",
"73 511 LINE",
"88 568 LINE",
"269 568 LINE",
"269 34 LINE",
"192 16 LINE",
"192 0 LINE"
);
}
);
};
layerId = "A0FA55D0-E595-4D47-A77D-3C8049EF6A20";
paths = (
{
closed = 1;
nodes = (
"416 0 LINE",
"416 28 LINE",
"368 28 LINE",
"349 50 LINE",
"349 541 LINE",
"368 563 LINE",
"523 563 LINE",
"539 545 LINE",
"539 497 LINE",
"558 497 LINE",
"604 600 LINE",
"10 600 LINE",
"56 497 LINE",
"75 497 LINE",
"75 545 LINE",
"91 563 LINE",
"248 563 LINE",
"267 541 LINE",
"267 50 LINE",
"248 28 LINE",
"198 28 LINE",
"198 0 LINE"
);
}
);
width = 554;
},
{
associatedMasterId = "A0FA55D0-E595-4D47-A77D-3C8049EF6A20";
layerId = "A23DAF95-20CA-4716-A976-9571BCC557EB";
paths = (
{
closed = 1;
nodes = (
"350 638 LINE",
"565 638 LINE",
"572 687 LINE",
"65 687 LINE",
"65 638 LINE",
"276 638 LINE",
"276 0 LINE",
"350 0 LINE"
);
},
{
closed = 1;
nodes = (
"277 89 LINE",
"277 36 LINE",
"199 15 LINE",
"199 0 LINE",
"416 0 LINE",
"416 15 LINE",
"350 36 LINE",
"350 89 LINE"
);
},
{
closed = 1;
nodes = (
"65 687 LINE",
"44 687 LINE",
"29 687 LINE",
"9 550 LINE",
"24 550 LINE",
"65 638 LINE",
"131 638 LINE",
"131 687 LINE"
);
},
{
closed = 1;
nodes = (
"503 638 LINE",
"569 638 LINE",
"610 550 LINE",
"625 550 LINE",
"605 687 LINE",
"590 687 LINE",
"569 687 LINE",
"503 687 LINE"
);
}
);
width = 650;
},
{
layerId = "715E6458-225A-4B30-851F-23A0A4A3DE49";
paths = (
{
closed = 1;
nodes = (
"40 600 LINE",
"86 497 LINE",
"105 497 LINE",
"105 545 LINE",
"121 563 LINE",
"278 563 LINE",
"297 541 LINE",
"185 28 LINE",
"121 28 LINE",
"121 0 LINE",
"339 0 LINE",
"339 28 LINE",
"291 28 LINE",
"272 50 LINE",
"379 541 LINE",
"398 563 LINE",
"553 563 LINE",
"569 545 LINE",
"569 497 LINE",
"588 497 LINE",
"634 600 LINE"
);
}
);
width = 594;
}
);
unicode = 0054;
},
{
glyphname = U;
lastChange = "2022-06-21 15:32:49 +0000";
layers = (
{
background = {
paths = (
{
closed = 1;
nodes = (
"362 -8 OFFCURVE",
"420 40 OFFCURVE",
"455 111 CURVE",
"455 0 LINE",
"616 0 LINE",
"616 16 LINE",
"533 34 LINE",
"533 566 LINE",
"616 584 LINE",
"616 600 LINE",
"371 600 LINE",
"371 584 LINE",
"455 566 LINE",
"455 156 LINE",
"426 81 OFFCURVE",
"359 39 OFFCURVE",
"310 39 CURVE SMOOTH",
"227 39 OFFCURVE",
"167 100 OFFCURVE",
"167 178 CURVE SMOOTH",
"167 566 LINE",
"253 584 LINE",
"253 600 LINE",
"2 600 LINE",
"2 584 LINE",
"84 566 LINE",
"84 195 LINE SMOOTH",
"84 61 OFFCURVE",
"205 -8 OFFCURVE",
"293 -8 CURVE SMOOTH"
);
}
);
};
layerId = "A0FA55D0-E595-4D47-A77D-3C8049EF6A20";
paths = (
{
closed = 1;
nodes = (
"466 -11 OFFCURVE",
"533 70 OFFCURVE",
"536 243 CURVE SMOOTH",
"538 357 OFFCURVE",
"537 453 OFFCURVE",
"536 539 CURVE SMOOTH",
"536 550 LINE",
"555 572 LINE",
"603 572 LINE",
"603 600 LINE",
"409 600 LINE",
"409 572 LINE",
"459 572 LINE",
"478 550 LINE",
"478 538 LINE SMOOTH",
"477 477 OFFCURVE",
"477 396 OFFCURVE",
"478 229 CURVE SMOOTH",
"479 88 OFFCURVE",
"413 39 OFFCURVE",
"329 38 CURVE SMOOTH",
"235 37 OFFCURVE",
"169 79 OFFCURVE",
"169 218 CURVE SMOOTH",
"169 550 LINE",
"188 572 LINE",
"236 572 LINE",
"236 600 LINE",
"10 600 LINE",
"10 572 LINE",
"60 572 LINE",
"79 550 LINE",
"79 226 LINE SMOOTH",
"79 43 OFFCURVE",
"176 -9 OFFCURVE",
"310 -10 CURVE SMOOTH"
);
}
);
width = 623;
},
{
associatedMasterId = "A0FA55D0-E595-4D47-A77D-3C8049EF6A20";
background = {
paths = (
{
closed = 1;
nodes = (
"380 -8 OFFCURVE",
"438 40 OFFCURVE",
"473 111 CURVE",
"473 0 LINE",
"634 0 LINE",
"634 16 LINE",
"551 34 LINE",
"551 566 LINE",
"634 584 LINE",
"634 600 LINE",
"389 600 LINE",
"389 584 LINE",
"473 566 LINE",
"473 156 LINE",
"444 81 OFFCURVE",
"377 39 OFFCURVE",
"328 39 CURVE SMOOTH",
"245 39 OFFCURVE",
"185 100 OFFCURVE",
"185 178 CURVE SMOOTH",
"185 566 LINE",
"271 584 LINE",
"271 600 LINE",
"20 600 LINE",
"20 584 LINE",
"102 566 LINE",
"102 195 LINE SMOOTH",
"102 61 OFFCURVE",
"223 -8 OFFCURVE",
"311 -8 CURVE SMOOTH"
);
}
);
};
layerId = "9325C160-3CA4-4928-912E-7A7CE4C222FA";
name = "Apr 16 20, 09:40";
paths = (
{
closed = 1;
nodes = (
"380 -8 OFFCURVE",
"438 40 OFFCURVE",
"473 111 CURVE",
"473 0 LINE",
"634 0 LINE",
"634 16 LINE",
"551 34 LINE",
"551 566 LINE",
"634 584 LINE",
"634 600 LINE",
"389 600 LINE",
"389 584 LINE",
"473 566 LINE",
"473 156 LINE",
"444 81 OFFCURVE",
"377 39 OFFCURVE",
"328 39 CURVE SMOOTH",
"245 39 OFFCURVE",
"185 100 OFFCURVE",
"185 178 CURVE SMOOTH",
"185 566 LINE",
"271 584 LINE",
"271 600 LINE",
"20 600 LINE",
"20 584 LINE",
"102 566 LINE",
"102 195 LINE SMOOTH",
"102 61 OFFCURVE",
"223 -8 OFFCURVE",
"311 -8 CURVE SMOOTH"
);
}
);
width = 657;
},
{
layerId = "715E6458-225A-4B30-851F-23A0A4A3DE49";
paths = (
{
closed = 1;
nodes = (
"447 572 LINE",
"497 572 LINE",
"516 550 LINE",
"446 229 LINE SMOOTH",
"415 88 OFFCURVE",
"351 39 OFFCURVE",
"267 38 CURVE SMOOTH",
"173 37 OFFCURVE",
"112 81 OFFCURVE",
"137 198 CURVE SMOOTH",
"213 550 LINE",
"232 572 LINE",
"280 572 LINE",
"280 600 LINE",
"133 600 LINE",
"123 550 LINE",
"47 206 LINE SMOOTH",
"11 45 OFFCURVE",
"114 -9 OFFCURVE",
"248 -10 CURVE SMOOTH",
"404 -11 OFFCURVE",
"468 70 OFFCURVE",
"506 243 CURVE SMOOTH",
"574 550 LINE",
"593 572 LINE",
"641 572 LINE",
"641 600 LINE",
"447 600 LINE"
);
}
);
width = 581;
}
);
unicode = 0055;
},
{
glyphname = V;
lastChange = "2022-06-21 15:32:49 +0000";
layers = (
{
background = {
paths = (
{
closed = 1;
nodes = (
"283 0 LINE",
"493 600 LINE",
"353 600 LINE",
"353 584 LINE",
"439 566 LINE",
"267 68 LINE",
"97 566 LINE",
"178 584 LINE",
"178 600 LINE",
"-70 600 LINE",
"-70 584 LINE",
"12 566 LINE",
"212 0 LINE"
);
}
);
};
layerId = "A0FA55D0-E595-4D47-A77D-3C8049EF6A20";
paths = (
{
closed = 1;
nodes = (
"288 0 LINE",
"480 550 LINE",
"481 550 LINE",
"489 572 LINE",
"539 572 LINE",
"539 600 LINE",
"366 600 LINE",
"366 572 LINE",
"414 572 LINE",
"433 550 LINE",
"433 549 LINE",
"267 68 LINE",
"102 549 LINE",
"121 572 LINE",
"169 572 LINE",
"169 600 LINE",
"-50 600 LINE",
"-50 572 LINE",
"0 572 LINE",
"7 552 LINE",
"202 0 LINE"
);
}
);
width = 519;
},
{
layerId = "715E6458-225A-4B30-851F-23A0A4A3DE49";
paths = (
{
closed = 1;
nodes = (
"363 572 LINE",
"411 572 LINE",
"430 550 LINE",
"430 549 LINE",
"162 68 LINE",
"162 549 LINE",
"181 572 LINE",
"229 572 LINE",
"229 600 LINE",
"30 600 LINE",
"30 572 LINE",
"80 572 LINE",
"87 552 LINE",
"87 0 LINE",
"173 0 LINE",
"492 572 LINE",
"545 572 LINE",
"545 600 LINE",
"363 600 LINE"
);
}
);
width = 495;
},
{
associatedMasterId = "715E6458-225A-4B30-851F-23A0A4A3DE49";
layerId = "3CFF401A-B8F2-4CE3-934F-723E11B9D700";
name = "Dec 1 20, 13:26";
paths = (
{
closed = 1;
nodes = (
"303 572 LINE",
"351 572 LINE",
"370 550 LINE",
"370 549 LINE",
"267 68 LINE",
"102 549 LINE",
"121 572 LINE",
"169 572 LINE",
"169 600 LINE",
"-50 600 LINE",
"-50 572 LINE",
"0 572 LINE",
"7 552 LINE",
"202 0 LINE",
"288 0 LINE",
"423 572 LINE",
"476 572 LINE",
"476 600 LINE",
"303 600 LINE"
);
}
);
width = 476;
}
);
leftKerningGroup = V;
unicode = 0056;
},
{
glyphname = W;
lastChange = "2022-06-21 15:32:49 +0000";
layers = (
{
layerId = "715E6458-225A-4B30-851F-23A0A4A3DE49";
paths = (
{
closed = 1;
nodes = (
"643 572 LINE",
"691 572 LINE",
"710 550 LINE",
"710 549 LINE",
"442 68 LINE",
"442 600 LINE",
"367 600 LINE",
"367 418 LINE",
"172 68 LINE",
"172 549 LINE",
"191 572 LINE",
"239 572 LINE",
"239 600 LINE",
"40 600 LINE",
"40 572 LINE",
"90 572 LINE",
"97 552 LINE",
"97 0 LINE",
"183 0 LINE",
"367 330 LINE",
"367 0 LINE",
"453 0 LINE",
"772 572 LINE",
"788 600 LINE",
"643 600 LINE"
);
}
);
width = 738;
},
{
associatedMasterId = "715E6458-225A-4B30-851F-23A0A4A3DE49";
layerId = "A25AD772-CFB5-4782-94D4-04BC04DF46A5";
name = "Dec 1 20, 13:22";
paths = (
{
closed = 1;
nodes = (
"682 572 LINE",
"732 572 LINE",
"751 550 LINE",
"652 145 LINE",
"634 70 LINE",
"413 600 LINE",
"375 600 LINE",
"348 482 LINE",
"253 68 LINE",
"103 600 LINE",
"20 600 LINE",
"190 0 LINE",
"289 0 LINE",
"376 387 LINE",
"387 434 LINE",
"572 0 LINE",
"675 0 LINE",
"694 82 LINE",
"816 600 LINE",
"682 600 LINE"
);
}
);
width = 816;
},
{
associatedMasterId = "A0FA55D0-E595-4D47-A77D-3C8049EF6A20";
background = {
paths = (
{
closed = 1;
nodes = (
"223 0 LINE",
"319 496 LINE",
"450 0 LINE",
"521 0 LINE",
"715 600 LINE",
"576 600 LINE",
"576 584 LINE",
"662 566 LINE",
"505 68 LINE",
"372 600 LINE",
"302 600 LINE",
"207 68 LINE",
"36 566 LINE",
"117 584 LINE",
"117 600 LINE",
"-130 600 LINE",
"-130 584 LINE",
"-48 566 LINE",
"153 0 LINE"
);
}
);
};
layerId = "15F43E2F-642C-4DEF-9131-E5A629D9F32D";
name = "Dec 1 20, 13:23";
paths = (
{
closed = 1;
nodes = (
"682 572 LINE",
"732 572 LINE",
"751 550 LINE",
"652 145 LINE",
"634 70 LINE",
"413 600 LINE",
"375 600 LINE",
"348 482 LINE",
"253 68 LINE",
"103 600 LINE",
"20 600 LINE",
"190 0 LINE",
"289 0 LINE",
"376 387 LINE",
"387 434 LINE",
"572 0 LINE",
"675 0 LINE",
"694 82 LINE",
"816 600 LINE",
"682 600 LINE"
);
}
);
width = 846;
},
{
background = {
paths = (
{
closed = 1;
nodes = (
"223 0 LINE",
"319 496 LINE",
"450 0 LINE",
"521 0 LINE",
"715 600 LINE",
"576 600 LINE",
"576 584 LINE",
"662 566 LINE",
"505 68 LINE",
"372 600 LINE",
"302 600 LINE",
"207 68 LINE",
"36 566 LINE",
"117 584 LINE",
"117 600 LINE",
"-130 600 LINE",
"-130 584 LINE",
"-48 566 LINE",
"153 0 LINE"
);
}
);
};
layerId = "A0FA55D0-E595-4D47-A77D-3C8049EF6A20";
paths = (
{
closed = 1;
nodes = (
"266 0 LINE",
"396 472 LINE",
"585 0 LINE",
"631 0 LINE",
"761 600 LINE",
"639 600 LINE",
"639 572 LINE",
"687 572 LINE",
"706 550 LINE",
"618 135 LINE",
"440 600 LINE",
"385 600 LINE",
"247 92 LINE",
"103 600 LINE",
"20 600 LINE",
"190 0 LINE"
);
}
);
width = 791;
},
{
associatedMasterId = "715E6458-225A-4B30-851F-23A0A4A3DE49";
layerId = "983FE160-AA5F-4643-B136-7F2C0F7FD91D";
name = "Dec 1 20, 13:29";
paths = (
{
closed = 1;
nodes = (
"266 0 LINE",
"396 472 LINE",
"585 0 LINE",
"631 0 LINE",
"761 600 LINE",
"639 600 LINE",
"639 572 LINE",
"687 572 LINE",
"706 550 LINE",
"618 135 LINE",
"440 600 LINE",
"385 600 LINE",
"247 92 LINE",
"103 600 LINE",
"20 600 LINE",
"190 0 LINE"
);
}
);
width = 791;
}
);
unicode = 0057;
},
{
glyphname = X;
lastChange = "2022-06-21 15:32:49 +0000";
layers = (
{
associatedMasterId = "A0FA55D0-E595-4D47-A77D-3C8049EF6A20";
background = {
paths = (
{
closed = 1;
nodes = (
"205 0 LINE",
"205 18 LINE",
"133 33 LINE",
"302 256 LINE",
"447 33 LINE",
"370 18 LINE",
"370 0 LINE",
"630 0 LINE",
"630 18 LINE",
"548 33 LINE",
"356 317 LINE",
"549 566 LINE",
"641 584 LINE",
"641 600 LINE",
"412 600 LINE",
"412 584 LINE",
"497 566 LINE",
"331 353 LINE",
"180 566 LINE",
"264 584 LINE",
"264 600 LINE",
"-5 600 LINE",
"-5 584 LINE",
"84 566 LINE",
"276 294 LINE",
"78 33 LINE",
"-6 18 LINE",
"-6 0 LINE"
);
}
);
};
guideLines = (
{
angle = 90;
position = "{594, 847}";
}
);
layerId = "C0DFE6EA-E4FB-46A2-8CDD-EBAB17A3C332";
name = "Oct 21 20, 11:41";
paths = (
{
closed = 1;
nodes = (
"223 0 LINE",
"223 28 LINE",
"155 28 LINE",
"130 58 LINE",
"300 273 LINE",
"453 58 LINE",
"428 28 LINE",
"362 28 LINE",
"362 0 LINE",
"647 0 LINE",
"647 28 LINE",
"579 28 LINE",
"562 49 LINE",
"353 339 LINE",
"539 564 LINE",
"603 564 LINE",
"603 600 LINE",
"350 600 LINE",
"350 564 LINE",
"418 564 LINE",
"444 534 LINE",
"320 384 LINE",
"275 443 LINE",
"207 533 LINE",
"233 563 LINE",
"298 563 LINE",
"298 600 LINE",
"14 600 LINE",
"14 563 LINE",
"82 563 LINE",
"98 542 LINE",
"199 409 LINE",
"266 318 LINE",
"34 28 LINE",
"-30 28 LINE",
"-30 0 LINE"
);
},
{
closed = 0;
nodes = (
"6 0 LINE"
);
}
);
width = 617;
},
{
associatedMasterId = "A0FA55D0-E595-4D47-A77D-3C8049EF6A20";
background = {
paths = (
{
closed = 1;
nodes = (
"205 0 LINE",
"205 18 LINE",
"133 33 LINE",
"302 256 LINE",
"447 33 LINE",
"370 18 LINE",
"370 0 LINE",
"630 0 LINE",
"630 18 LINE",
"548 33 LINE",
"356 317 LINE",
"549 566 LINE",
"641 584 LINE",
"641 600 LINE",
"412 600 LINE",
"412 584 LINE",
"497 566 LINE",
"331 353 LINE",
"180 566 LINE",
"264 584 LINE",
"264 600 LINE",
"-5 600 LINE",
"-5 584 LINE",
"84 566 LINE",
"276 294 LINE",
"78 33 LINE",
"-6 18 LINE",
"-6 0 LINE"
);
}
);
};
guideLines = (
{
angle = 90;
position = "{594, 847}";
}
);
layerId = "AB31EA00-DB0B-4E8C-91A8-330DCB40A7BA";
name = "Oct 21 20, 11:43";
paths = (
{
closed = 1;
nodes = (
"223 0 LINE",
"223 28 LINE",
"155 28 LINE",
"130 58 LINE",
"300 273 LINE",
"494 0 LINE",
"594 0 LINE",
"353 339 LINE",
"539 564 LINE",
"603 564 LINE",
"603 600 LINE",
"350 600 LINE",
"350 564 LINE",
"418 564 LINE",
"444 534 LINE",
"320 384 LINE",
"275 443 LINE",
"156 600 LINE",
"54 600 LINE",
"199 409 LINE",
"266 318 LINE",
"34 28 LINE",
"-30 28 LINE",
"-30 0 LINE"
);
},
{
closed = 0;
nodes = (
"6 0 LINE"
);
}
);
width = 617;
},
{
background = {
paths = (
{
closed = 1;
nodes = (
"205 0 LINE",
"205 18 LINE",
"133 33 LINE",
"302 256 LINE",
"447 33 LINE",
"370 18 LINE",
"370 0 LINE",
"630 0 LINE",
"630 18 LINE",
"548 33 LINE",
"356 317 LINE",
"549 566 LINE",
"641 584 LINE",
"641 600 LINE",
"412 600 LINE",
"412 584 LINE",
"497 566 LINE",
"331 353 LINE",
"180 566 LINE",
"264 584 LINE",
"264 600 LINE",
"-5 600 LINE",
"-5 584 LINE",
"84 566 LINE",
"276 294 LINE",
"78 33 LINE",
"-6 18 LINE",
"-6 0 LINE"
);
}
);
};
guideLines = (
{
angle = 90;
position = "{594, 847}";
}
);
layerId = "A0FA55D0-E595-4D47-A77D-3C8049EF6A20";
paths = (
{
closed = 1;
nodes = (
"223 0 LINE",
"223 28 LINE",
"155 28 LINE",
"130 58 LINE",
"300 273 LINE",
"453 58 LINE",
"428 28 LINE",
"362 28 LINE",
"362 0 LINE",
"595 0 LINE",
"353 339 LINE",
"539 564 LINE",
"603 564 LINE",
"603 600 LINE",
"350 600 LINE",
"350 564 LINE",
"418 564 LINE",
"444 534 LINE",
"320 384 LINE",
"156 600 LINE",
"14 600 LINE",
"14 563 LINE",
"82 563 LINE",
"199 409 LINE",
"266 318 LINE",
"34 28 LINE",
"-30 28 LINE",
"-30 0 LINE"
);
},
{
closed = 0;
nodes = (
"6 0 LINE"
);
}
);
width = 623;
},
{
layerId = "715E6458-225A-4B30-851F-23A0A4A3DE49";
paths = (
{
closed = 1;
nodes = (
"471 513 LINE",
"-2 0 LINE",
"49 0 LINE",
"522 513 LINE"
);
},
{
closed = 1;
nodes = (
"340 50 LINE",
"327 28 LINE",
"261 28 LINE",
"261 0 LINE",
"501 0 LINE",
"501 28 LINE",
"444 28 LINE",
"425 50 LINE",
"275 600 LINE",
"128 600 LINE",
"128 572 LINE",
"188 572 LINE",
"202 558 LINE"
);
},
{
closed = 1;
nodes = (
"522 513 LINE",
"577 572 LINE",
"630 572 LINE",
"630 600 LINE",
"438 600 LINE",
"438 572 LINE",
"486 572 LINE",
"505 550 LINE",
"505 549 LINE",
"471 513 LINE"
);
},
{
closed = 1;
nodes = (
"78 87 LINE",
"23 28 LINE",
"-30 28 LINE",
"-30 0 LINE",
"162 0 LINE",
"162 28 LINE",
"114 28 LINE",
"95 50 LINE",
"95 51 LINE",
"129 87 LINE"
);
}
);
width = 650;
}
);
unicode = 0058;
},
{
glyphname = Y;
lastChange = "2022-06-21 15:32:49 +0000";
layers = (
{
background = {
paths = (
{
closed = 1;
nodes = (
"275 0 LINE",
"275 18 LINE",
"225 28 LINE",
"196 35 LINE",
"413 567 LINE",
"498 584 LINE",
"498 600 LINE",
"295 600 LINE",
"295 584 LINE",
"369 567 LINE",
"249 268 LINE",
"42 566 LINE",
"113 584 LINE",
"113 600 LINE",
"-126 600 LINE",
"-126 584 LINE",
"-45 566 LINE",
"210 196 LINE",
"153 35 LINE",
"69 18 LINE",
"69 0 LINE"
);
}
);
};
guideLines = (
{
position = "{-561, 440}";
}
);
layerId = "A0FA55D0-E595-4D47-A77D-3C8049EF6A20";
paths = (
{
closed = 1;
nodes = (
"285 0 LINE",
"285 28 LINE",
"237 28 LINE",
"218 50 LINE",
"218 272 LINE",
"383 572 LINE",
"440 572 LINE",
"440 600 LINE",
"266 600 LINE",
"266 572 LINE",
"314 572 LINE",
"332 548 LINE",
"206 322 LINE",
"205 322 LINE",
"38 600 LINE",
"-50 599 LINE",
"145 272 LINE",
"145 50 LINE",
"126 28 LINE",
"76 28 LINE",
"76 0 LINE"
);
}
);
width = 440;
},
{
associatedMasterId = "A0FA55D0-E595-4D47-A77D-3C8049EF6A20";
background = {
paths = (
{
closed = 1;
nodes = (
"364 0 LINE",
"364 18 LINE",
"314 28 LINE",
"285 35 LINE",
"502 567 LINE",
"587 584 LINE",
"587 600 LINE",
"384 600 LINE",
"384 584 LINE",
"458 567 LINE",
"338 268 LINE",
"131 566 LINE",
"202 584 LINE",
"202 600 LINE",
"-37 600 LINE",
"-37 584 LINE",
"44 566 LINE",
"299 196 LINE",
"242 35 LINE",
"158 18 LINE",
"158 0 LINE"
);
}
);
};
guideLines = (
{
position = "{-472, 440}";
}
);
layerId = "F85BC5EF-B5B3-40FF-AA50-55D469751F34";
name = "Oct 21 20, 11:47";
paths = (
{
closed = 1;
nodes = (
"307 50 LINE",
"307 272 LINE",
"463 549 LINE",
"421 548 LINE",
"379 480 OFFCURVE",
"363 447 OFFCURVE",
"295 322 CURVE",
"294 322 LINE",
"160 545 LINE",
"72 544 LINE",
"234 272 LINE",
"234 50 LINE"
);
},
{
closed = 1;
nodes = (
"374 0 LINE",
"374 28 LINE",
"326 28 LINE",
"307 50 LINE",
"307 72 LINE",
"234 72 LINE",
"234 50 LINE",
"215 28 LINE",
"165 28 LINE",
"165 0 LINE"
);
},
{
closed = 1;
nodes = (
"0 572 LINE",
"50 572 LINE",
"69 550 LINE",
"83 527 LINE",
"160 528 LINE",
"160 546 LINE",
"179 572 LINE",
"227 572 LINE",
"227 600 LINE",
"0 600 LINE"
);
},
{
closed = 1;
nodes = (
"355 600 LINE",
"355 572 LINE",
"403 572 LINE",
"422 546 LINE",
"422 528 LINE",
"450 527 LINE",
"464 550 LINE",
"479 572 LINE",
"529 572 LINE",
"529 600 LINE"
);
}
);
width = 529;
},
{
layerId = "715E6458-225A-4B30-851F-23A0A4A3DE49";
paths = (
{
closed = 1;
nodes = (
"350 572 LINE",
"398 572 LINE",
"416 548 LINE",
"285 322 LINE",
"115 600 LINE",
"30 599 LINE",
"227 270 LINE",
"174 28 LINE",
"114 28 LINE",
"114 0 LINE",
"323 0 LINE",
"323 28 LINE",
"275 28 LINE",
"256 50 LINE",
"303 270 LINE",
"480 572 LINE",
"480 600 LINE",
"350 600 LINE"
);
}
);
width = 480;
}
);
leftMetricsKey = V;
unicode = 0059;
},
{
glyphname = Z;
lastChange = "2022-06-21 15:32:49 +0000";
layers = (
{
background = {
paths = (
{
closed = 1;
nodes = (
"512 0 LINE",
"512 119 LINE",
"478 119 LINE",
"470 36 LINE",
"131 36 LINE",
"506 564 LINE",
"506 600 LINE",
"62 601 LINE",
"62 476 LINE",
"95 476 LINE",
"104 564 LINE",
"404 564 LINE",
"22 25 LINE",
"22 0 LINE"
);
}
);
};
layerId = "A0FA55D0-E595-4D47-A77D-3C8049EF6A20";
paths = (
{
closed = 1;
nodes = (
"455 0 LINE",
"455 145 LINE",
"427 145 LINE",
"427 57 LINE",
"405 38 LINE",
"127 38 LINE",
"127 62 LINE",
"466 543 LINE",
"466 600 LINE",
"83 601 LINE",
"83 456 LINE",
"111 456 LINE",
"111 544 LINE",
"133 563 LINE",
"360 563 LINE",
"360 529 LINE",
"20 46 LINE",
"20 0 LINE"
);
}
);
width = 486;
},
{
associatedMasterId = "A0FA55D0-E595-4D47-A77D-3C8049EF6A20";
layerId = "07647F55-4638-498B-A826-2FFD7F543871";
paths = (
{
closed = 1;
nodes = (
"131 39 LINE",
"563 651 LINE",
"563 687 LINE",
"103 687 LINE",
"103 648 LINE",
"471 648 LINE",
"37 35 LINE",
"37 0 LINE",
"530 0 LINE",
"530 39 LINE"
);
},
{
closed = 1;
nodes = (
"429 0 LINE",
"531 0 LINE",
"547 -1 LINE",
"577 -1 LINE",
"577 106 LINE",
"552 106 LINE",
"531 39 LINE",
"429 39 LINE"
);
},
{
closed = 1;
nodes = (
"203 687 LINE",
"101 687 LINE",
"85 688 LINE",
"55 688 LINE",
"55 581 LINE",
"80 581 LINE",
"101 648 LINE",
"203 648 LINE"
);
}
);
width = 620;
},
{
layerId = "715E6458-225A-4B30-851F-23A0A4A3DE49";
paths = (
{
closed = 1;
nodes = (
"317 0 LINE",
"415 0 LINE",
"449 132 LINE",
"421 132 LINE",
"387 57 LINE",
"365 38 LINE",
"317 38 LINE"
);
},
{
closed = 1;
nodes = (
"272 600 LINE",
"143 600 LINE",
"108 454 LINE",
"136 454 LINE",
"171 544 LINE",
"193 563 LINE",
"272 563 LINE"
);
},
{
closed = 1;
nodes = (
"327 38 LINE",
"133 38 LINE",
"133 49 LINE",
"525 569 LINE",
"525 600 LINE",
"267 600 LINE",
"267 563 LINE",
"412 563 LINE",
"412 551 LINE",
"20 31 LINE",
"20 0 LINE",
"320 0 LINE"
);
}
);
width = 545;
}
);
unicode = 005A;
},
{
glyphname = A_D.liga;
lastChange = "2022-06-21 15:32:49 +0000";
layers = (
{
layerId = "A0FA55D0-E595-4D47-A77D-3C8049EF6A20";
paths = (
{
closed = 1;
nodes = (
"583 0 LINE SMOOTH",
"726 0 OFFCURVE",
"825 115 OFFCURVE",
"825 316 CURVE SMOOTH",
"825 524 OFFCURVE",
"726 608 OFFCURVE",
"583 608 CURVE SMOOTH",
"231 608 LINE",
"231 580 LINE",
"281 580 LINE",
"69 50 LINE",
"68 50 LINE",
"60 28 LINE",
"10 28 LINE",
"10 0 LINE",
"183 0 LINE",
"183 28 LINE",
"135 28 LINE",
"116 50 LINE",
"116 51 LINE",
"194 243 LINE",
"209 255 LINE",
"350 255 LINE",
"380 215 LINE",
"380 50 LINE",
"361 28 LINE",
"311 28 LINE",
"311 0 LINE"
);
},
{
closed = 1;
nodes = (
"332 581 LINE",
"361 580 LINE",
"380 558 LINE",
"380 319 LINE",
"350 279 LINE",
"219 279 LINE",
"212 293 LINE"
);
},
{
closed = 1;
nodes = (
"466 558 LINE",
"485 580 LINE",
"581 580 LINE SMOOTH",
"654 580 OFFCURVE",
"739 521 OFFCURVE",
"739 308 CURVE SMOOTH",
"739 128 OFFCURVE",
"654 28 OFFCURVE",
"581 28 CURVE SMOOTH",
"485 28 LINE",
"466 50 LINE"
);
}
);
width = 865;
},
{
layerId = "715E6458-225A-4B30-851F-23A0A4A3DE49";
paths = (
{
closed = 1;
nodes = (
"322 608 LINE",
"3 28 LINE",
"-50 28 LINE",
"-50 0 LINE",
"132 0 LINE",
"132 28 LINE",
"84 28 LINE",
"65 50 LINE",
"65 51 LINE",
"172 242 LINE",
"172 243 LINE",
"197 255 LINE",
"331 255 LINE",
"347 243 LINE",
"297 0 LINE",
"496 0 LINE SMOOTH",
"639 0 OFFCURVE",
"793 105 OFFCURVE",
"823 306 CURVE SMOOTH",
"854 512 OFFCURVE",
"754 608 OFFCURVE",
"611 608 CURVE SMOOTH"
);
},
{
closed = 1;
nodes = (
"707 118 OFFCURVE",
"567 28 OFFCURVE",
"494 28 CURVE SMOOTH",
"408 28 LINE",
"389 50 LINE",
"494 558 LINE",
"513 580 LINE",
"609 580 LINE SMOOTH",
"682 580 OFFCURVE",
"772 508 OFFCURVE",
"737 298 CURVE SMOOTH"
);
},
{
closed = 1;
nodes = (
"365 575 LINE",
"404 575 LINE",
"418 558 LINE",
"357 290 LINE",
"344 279 LINE",
"207 279 LINE",
"200 293 LINE",
"200 294 LINE",
"338 555 LINE"
);
}
);
width = 829;
}
);
leftMetricsKey = A;
rightMetricsKey = D;
},
{
glyphname = A_E.liga;
lastChange = "2022-06-21 15:32:49 +0000";
layers = (
{
layerId = "A0FA55D0-E595-4D47-A77D-3C8049EF6A20";
paths = (
{
closed = 1;
nodes = (
"722 0 LINE",
"722 105 LINE",
"694 105 LINE",
"694 57 LINE",
"672 38 LINE",
"472 38 LINE",
"453 60 LINE",
"453 289 LINE",
"472 311 LINE",
"621 311 LINE",
"643 292 LINE",
"643 262 LINE",
"671 262 LINE",
"671 394 LINE",
"643 394 LINE",
"643 366 LINE",
"621 347 LINE",
"472 347 LINE",
"453 369 LINE",
"453 540 LINE",
"472 562 LINE",
"620 562 LINE",
"642 543 LINE",
"642 497 LINE",
"670 497 LINE",
"670 600 LINE",
"201 600 LINE",
"201 572 LINE",
"251 572 LINE",
"69 50 LINE",
"68 50 LINE",
"60 28 LINE",
"10 28 LINE",
"10 0 LINE",
"183 0 LINE",
"183 28 LINE",
"135 28 LINE",
"116 50 LINE",
"116 51 LINE",
"182 243 LINE",
"197 255 LINE",
"340 255 LINE",
"370 215 LINE",
"370 50 LINE",
"351 28 LINE",
"301 28 LINE",
"301 0 LINE"
);
},
{
closed = 1;
nodes = (
"282 532 LINE",
"294 572 LINE",
"351 572 LINE",
"370 550 LINE",
"370 319 LINE",
"340 279 LINE",
"207 279 LINE",
"200 293 LINE"
);
}
);
width = 752;
},
{
components = (
{
name = A;
}
);
layerId = "715E6458-225A-4B30-851F-23A0A4A3DE49";
paths = (
{
closed = 1;
nodes = (
"404 526 LINE",
"407 540 LINE",
"436 562 LINE",
"623 562 LINE",
"645 543 LINE",
"654 497 LINE",
"682 497 LINE",
"703 600 LINE",
"402 600 LINE"
);
},
{
closed = 1;
nodes = (
"310 0 LINE",
"587 0 LINE",
"609 105 LINE",
"581 105 LINE",
"571 57 LINE",
"549 38 LINE",
"375 38 LINE",
"346 60 LINE",
"348 68 LINE"
);
},
{
closed = 1;
nodes = (
"393 284 LINE",
"394 289 LINE",
"423 311 LINE",
"582 311 LINE",
"604 292 LINE",
"604 262 LINE",
"632 262 LINE",
"659 394 LINE",
"631 394 LINE",
"622 366 LINE",
"600 347 LINE",
"431 347 LINE",
"412 369 LINE",
"413 375 LINE",
"361 325 LINE",
"360 318 LINE"
);
}
);
width = 693;
}
);
leftMetricsKey = A;
rightMetricsKey = E;
},
{
glyphname = A_F.liga;
lastChange = "2022-06-21 15:32:49 +0000";
layers = (
{
layerId = "A0FA55D0-E595-4D47-A77D-3C8049EF6A20";
paths = (
{
closed = 1;
nodes = (
"193 0 LINE",
"193 28 LINE",
"145 28 LINE",
"126 50 LINE",
"126 51 LINE",
"192 243 LINE",
"207 255 LINE",
"350 255 LINE",
"373 224 LINE",
"373 50 LINE",
"354 28 LINE",
"304 28 LINE",
"304 0 LINE",
"524 0 LINE",
"524 28 LINE",
"475 28 LINE",
"456 51 LINE",
"456 289 LINE",
"475 311 LINE",
"624 311 LINE",
"646 292 LINE",
"646 262 LINE",
"674 262 LINE",
"674 394 LINE",
"646 394 LINE",
"646 366 LINE",
"624 347 LINE",
"475 347 LINE",
"456 369 LINE",
"456 540 LINE",
"475 562 LINE",
"676 562 LINE",
"698 543 LINE",
"698 497 LINE",
"726 497 LINE",
"726 600 LINE",
"201 600 LINE",
"201 572 LINE",
"251 572 LINE",
"69 50 LINE",
"68 50 LINE",
"60 28 LINE",
"10 28 LINE",
"10 0 LINE"
);
},
{
closed = 1;
nodes = (
"292 532 LINE",
"304 572 LINE",
"354 572 LINE",
"373 550 LINE",
"373 310 LINE",
"350 279 LINE",
"217 279 LINE",
"210 293 LINE"
);
}
);
width = 766;
},
{
components = (
{
name = A;
}
);
layerId = "715E6458-225A-4B30-851F-23A0A4A3DE49";
paths = (
{
closed = 1;
nodes = (
"404 526 LINE",
"407 540 LINE",
"436 562 LINE",
"623 562 LINE",
"645 543 LINE",
"654 497 LINE",
"682 497 LINE",
"703 600 LINE",
"402 600 LINE"
);
},
{
closed = 1;
nodes = (
"393 284 LINE",
"394 289 LINE",
"423 311 LINE",
"582 311 LINE",
"604 292 LINE",
"604 262 LINE",
"632 262 LINE",
"659 394 LINE",
"631 394 LINE",
"622 366 LINE",
"600 347 LINE",
"431 347 LINE",
"412 369 LINE",
"413 375 LINE",
"361 325 LINE",
"360 318 LINE"
);
}
);
width = 663;
}
);
leftKerningGroup = A;
leftMetricsKey = A;
},
{
glyphname = A_V.liga;
lastChange = "2022-06-21 15:32:49 +0000";
layers = (
{
layerId = "A0FA55D0-E595-4D47-A77D-3C8049EF6A20";
paths = (
{
closed = 1;
nodes = (
"183 0 LINE",
"183 28 LINE",
"135 28 LINE",
"116 50 LINE",
"116 51 LINE",
"182 243 LINE",
"197 255 LINE",
"364 255 LINE",
"381 242 LINE",
"447 51 LINE",
"428 28 LINE",
"380 28 LINE",
"380 0 LINE",
"555 0 LINE",
"747 550 LINE",
"748 550 LINE",
"756 572 LINE",
"806 572 LINE",
"806 600 LINE",
"633 600 LINE",
"633 572 LINE",
"681 572 LINE",
"700 550 LINE",
"700 549 LINE",
"534 69 LINE",
"369 549 LINE",
"388 572 LINE",
"436 572 LINE",
"436 600 LINE",
"201 600 LINE",
"201 572 LINE",
"251 572 LINE",
"69 50 LINE",
"68 50 LINE",
"60 28 LINE",
"10 28 LINE",
"10 0 LINE"
);
},
{
closed = 1;
nodes = (
"282 531 LINE",
"314 440 LINE",
"364 293 LINE",
"357 279 LINE",
"207 279 LINE",
"200 293 LINE"
);
}
);
width = 786;
},
{
layerId = "715E6458-225A-4B30-851F-23A0A4A3DE49";
paths = (
{
closed = 1;
nodes = (
"609 572 LINE",
"657 572 LINE",
"676 550 LINE",
"676 549 LINE",
"408 68 LINE",
"408 549 LINE",
"427 572 LINE",
"475 572 LINE",
"475 600 LINE",
"322 600 LINE",
"3 28 LINE",
"-50 28 LINE",
"-50 0 LINE",
"132 0 LINE",
"132 28 LINE",
"84 28 LINE",
"65 50 LINE",
"65 51 LINE",
"172 242 LINE",
"172 243 LINE",
"197 255 LINE",
"316 255 LINE",
"333 242 LINE",
"333 51 LINE",
"314 28 LINE",
"266 28 LINE",
"266 0 LINE",
"419 0 LINE",
"738 572 LINE",
"791 572 LINE",
"791 600 LINE",
"609 600 LINE"
);
},
{
closed = 1;
nodes = (
"317 279 LINE",
"207 279 LINE",
"200 293 LINE",
"200 294 LINE",
"333 532 LINE",
"333 292 LINE"
);
}
);
width = 741;
}
);
leftMetricsKey = A;
rightMetricsKey = V;
},
{
glyphname = D_O.liga;
lastChange = "2022-06-21 15:32:49 +0000";
layers = (
{
components = (
{
name = D;
}
);
layerId = "A0FA55D0-E595-4D47-A77D-3C8049EF6A20";
paths = (
{
closed = 1;
nodes = (
"791 -9 OFFCURVE",
"886 113 OFFCURVE",
"886 308 CURVE SMOOTH",
"886 482 OFFCURVE",
"777 610 OFFCURVE",
"629 610 CURVE SMOOTH",
"545 610 OFFCURVE",
"477 577 OFFCURVE",
"430 519 CURVE",
"481 449 LINE",
"506 538 OFFCURVE",
"556 588 OFFCURVE",
"629 588 CURVE SMOOTH",
"730 588 OFFCURVE",
"788 482 OFFCURVE",
"788 297 CURVE SMOOTH",
"788 149 OFFCURVE",
"725 19 OFFCURVE",
"628 15 CURVE SMOOTH",
"549 11 OFFCURVE",
"496 92 OFFCURVE",
"475 191 CURVE",
"426 87 LINE",
"469 29 OFFCURVE",
"536 -9 OFFCURVE",
"629 -9 CURVE SMOOTH"
);
}
);
width = 896;
},
{
components = (
{
name = D;
}
);
layerId = "715E6458-225A-4B30-851F-23A0A4A3DE49";
paths = (
{
closed = 1;
nodes = (
"409 83 LINE",
"436 30 OFFCURVE",
"483 -5 OFFCURVE",
"549 -9 CURVE SMOOTH",
"732 -19 OFFCURVE",
"865 120 OFFCURVE",
"903 322 CURVE SMOOTH",
"931 472 OFFCURVE",
"859 604 OFFCURVE",
"723 610 CURVE SMOOTH",
"636 614 OFFCURVE",
"558 574 OFFCURVE",
"498 509 CURVE",
"536 424 LINE",
"580 519 OFFCURVE",
"639 588 OFFCURVE",
"718 585 CURVE SMOOTH",
"800 582 OFFCURVE",
"833 467 OFFCURVE",
"802 322 CURVE SMOOTH",
"766 156 OFFCURVE",
"697 -2 OFFCURVE",
"560 12 CURVE SMOOTH",
"504 18 OFFCURVE",
"477 80 OFFCURVE",
"474 160 CURVE"
);
}
);
width = 889;
}
);
leftMetricsKey = D;
},
{
glyphname = E_E.liga;
lastChange = "2021-08-31 16:17:03 +0000";
layers = (
{
components = (
{
alignment = -1;
name = E;
transform = "{-1, 0, 0, 1, 481, 0}";
},
{
name = E;
transform = "{1, 0, 0, 1, 220, 0}";
}
);
layerId = "A0FA55D0-E595-4D47-A77D-3C8049EF6A20";
width = 691;
},
{
components = (
{
name = E;
transform = "{1, 0, 0, 1, 184, 0}";
}
);
layerId = "715E6458-225A-4B30-851F-23A0A4A3DE49";
paths = (
{
closed = 1;
nodes = (
"112 543 LINE",
"134 562 LINE",
"308 562 LINE",
"337 540 LINE",
"301 373 LINE",
"272 351 LINE",
"113 351 LINE",
"91 370 LINE",
"91 400 LINE",
"63 400 LINE",
"36 268 LINE",
"64 268 LINE",
"73 296 LINE",
"95 315 LINE",
"264 315 LINE",
"283 293 LINE",
"236 60 LINE",
"207 38 LINE",
"60 38 LINE",
"38 57 LINE",
"29 103 LINE",
"1 103 LINE",
"-20 0 LINE",
"305 0 LINE",
"423 572 LINE",
"488 572 LINE",
"488 600 LINE",
"96 600 LINE",
"74 495 LINE",
"102 495 LINE"
);
}
);
width = 662;
}
);
leftMetricsKey = I;
rightMetricsKey = E;
},
{
glyphname = F_F.liga;
lastChange = "2021-08-31 16:17:03 +0000";
layers = (
{
components = (
{
alignment = -1;
name = F;
transform = "{1, 0, 0, 1, 220, 0}";
},
{
name = F;
transform = "{-1, 0, 0, 1, 481, 0}";
}
);
layerId = "A0FA55D0-E595-4D47-A77D-3C8049EF6A20";
width = 701;
},
{
layerId = "715E6458-225A-4B30-851F-23A0A4A3DE49";
paths = (
{
closed = 1;
nodes = (
"417 540 LINE",
"436 562 LINE",
"593 562 LINE",
"615 543 LINE",
"624 497 LINE",
"652 497 LINE",
"673 600 LINE",
"109 600 LINE",
"88 497 LINE",
"122 497 LINE",
"141 543 LINE",
"163 562 LINE",
"320 562 LINE",
"339 540 LINE",
"303 367 LINE",
"276 346 LINE",
"117 346 LINE",
"95 365 LINE",
"95 395 LINE",
"67 395 LINE",
"40 263 LINE",
"68 263 LINE",
"77 291 LINE",
"99 310 LINE",
"268 310 LINE",
"287 288 LINE",
"233 28 LINE",
"169 28 LINE",
"169 0 LINE",
"383 0 LINE",
"383 28 LINE",
"333 28 LINE",
"314 50 LINE",
"366 290 LINE",
"393 311 LINE",
"552 311 LINE",
"574 292 LINE",
"574 262 LINE",
"602 262 LINE",
"629 394 LINE",
"601 394 LINE",
"592 366 LINE",
"570 347 LINE",
"401 347 LINE",
"382 369 LINE"
);
}
);
width = 653;
}
);
rightMetricsKey = F;
},
{
glyphname = F_H.dlig;
lastChange = "2022-06-21 15:32:49 +0000";
layers = (
{
layerId = "A0FA55D0-E595-4D47-A77D-3C8049EF6A20";
paths = (
{
closed = 1;
nodes = (
"441 0 LINE",
"441 28 LINE",
"391 28 LINE",
"372 50 LINE",
"372 275 LINE",
"391 297 LINE",
"623 297 LINE",
"642 275 LINE",
"642 50 LINE",
"623 28 LINE",
"575 28 LINE",
"575 0 LINE",
"793 0 LINE",
"793 28 LINE",
"743 28 LINE",
"724 50 LINE",
"724 600 LINE",
"575 600 LINE",
"575 572 LINE",
"623 572 LINE",
"642 550 LINE",
"642 353 LINE",
"623 331 LINE",
"391 331 LINE",
"372 353 LINE",
"372 550 LINE",
"391 572 LINE",
"439 572 LINE",
"439 600 LINE",
"372 600 LINE",
"372 601 LINE",
"20 601 LINE",
"20 495 LINE",
"48 495 LINE",
"48 543 LINE",
"70 562 LINE",
"270 562 LINE",
"289 540 LINE",
"289 369 LINE",
"270 347 LINE",
"121 347 LINE",
"99 366 LINE",
"99 393 LINE",
"71 393 LINE",
"71 264 LINE",
"99 264 LINE",
"99 292 LINE",
"121 311 LINE",
"270 311 LINE",
"289 289 LINE",
"289 50 LINE",
"270 28 LINE",
"222 28 LINE",
"222 0 LINE"
);
}
);
width = 813;
},
{
components = (
{
name = H;
transform = "{1, 0, 0, 1, 186, 0}";
}
);
layerId = "715E6458-225A-4B30-851F-23A0A4A3DE49";
paths = (
{
closed = 1;
nodes = (
"338 600 LINE",
"89 600 LINE",
"68 497 LINE",
"102 497 LINE",
"121 543 LINE",
"143 562 LINE",
"300 562 LINE",
"319 540 LINE",
"283 367 LINE",
"256 346 LINE",
"97 346 LINE",
"75 365 LINE",
"75 395 LINE",
"47 395 LINE",
"20 263 LINE",
"48 263 LINE",
"57 291 LINE",
"79 310 LINE",
"248 310 LINE",
"267 288 LINE",
"213 28 LINE",
"149 28 LINE",
"149 0 LINE",
"213 0 LINE"
);
}
);
width = 783;
}
);
leftMetricsKey = F;
rightMetricsKey = H;
},
{
glyphname = H_E.liga;
lastChange = "2022-06-21 15:32:49 +0000";
layers = (
{
components = (
{
name = H;
}
);
layerId = "A0FA55D0-E595-4D47-A77D-3C8049EF6A20";
paths = (
{
closed = 1;
nodes = (
"793 0 LINE",
"793 105 LINE",
"765 105 LINE",
"765 57 LINE",
"743 38 LINE",
"543 38 LINE",
"524 60 LINE",
"524 275 LINE",
"543 297 LINE",
"692 297 LINE",
"714 278 LINE",
"714 248 LINE",
"742 248 LINE",
"742 380 LINE",
"714 380 LINE",
"714 352 LINE",
"692 333 LINE",
"543 333 LINE",
"524 355 LINE",
"524 540 LINE",
"543 562 LINE",
"691 562 LINE",
"713 543 LINE",
"713 497 LINE",
"741 497 LINE",
"741 600 LINE",
"372 600 LINE",
"372 572 LINE",
"422 572 LINE",
"441 550 LINE",
"441 50 LINE",
"422 28 LINE",
"372 28 LINE",
"372 0 LINE"
);
}
);
width = 823;
},
{
components = (
{
name = H;
},
{
alignment = -1;
name = E;
transform = "{1, 0, 0, 1, 333, 0}";
}
);
layerId = "715E6458-225A-4B30-851F-23A0A4A3DE49";
width = 811;
}
);
leftMetricsKey = H;
rightMetricsKey = E;
},
{
glyphname = H_Egrave.liga;
lastChange = "2021-08-31 16:17:03 +0000";
layers = (
{
components = (
{
alignment = -1;
name = H_E.liga;
},
{
name = acutecomb;
transform = "{-1, 0, 0, 1, 503, 175}";
}
);
layerId = "A0FA55D0-E595-4D47-A77D-3C8049EF6A20";
width = 823;
},
{
components = (
{
alignment = -1;
name = H_E.liga;
}
);
layerId = "715E6458-225A-4B30-851F-23A0A4A3DE49";
paths = (
{
closed = 1;
nodes = (
"721 677 LINE",
"670 679 OFFCURVE",
"627 704 OFFCURVE",
"620 742 CURVE SMOOTH",
"620 746 OFFCURVE",
"619 750 OFFCURVE",
"620 754 CURVE SMOOTH",
"620 757 OFFCURVE",
"621 758 OFFCURVE",
"623 759 CURVE SMOOTH",
"626 760 OFFCURVE",
"632 759 OFFCURVE",
"643 757 CURVE SMOOTH",
"647 756 OFFCURVE",
"652 756 OFFCURVE",
"656 757 CURVE SMOOTH",
"678 764 OFFCURVE",
"688 782 OFFCURVE",
"680 806 CURVE SMOOTH",
"673 828 OFFCURVE",
"649 841 OFFCURVE",
"624 833 CURVE SMOOTH",
"594 824 OFFCURVE",
"574 786 OFFCURVE",
"588 743 CURVE SMOOTH",
"603 696 OFFCURVE",
"648 663 OFFCURVE",
"725 662 CURVE"
);
}
);
width = 811;
}
);
leftMetricsKey = H;
rightMetricsKey = E;
},
{
glyphname = M_E.liga;
lastChange = "2022-06-21 15:32:49 +0000";
layers = (
{
layerId = "A0FA55D0-E595-4D47-A77D-3C8049EF6A20";
paths = (
{
closed = 1;
nodes = (
"203 0 LINE",
"203 28 LINE",
"155 28 LINE",
"136 50 LINE",
"136 396 LINE",
"300 0 LINE",
"334 0 LINE",
"518 501 LINE",
"518 50 LINE",
"499 28 LINE",
"449 28 LINE",
"449 0 LINE",
"870 0 LINE",
"870 105 LINE",
"842 105 LINE",
"842 57 LINE",
"820 38 LINE",
"620 38 LINE",
"601 60 LINE",
"601 289 LINE",
"620 311 LINE",
"769 311 LINE",
"791 292 LINE",
"791 262 LINE",
"819 262 LINE",
"819 394 LINE",
"791 394 LINE",
"791 366 LINE",
"769 347 LINE",
"620 347 LINE",
"601 369 LINE",
"601 540 LINE",
"620 562 LINE",
"768 562 LINE",
"790 543 LINE",
"790 497 LINE",
"818 497 LINE",
"818 600 LINE",
"515 600 LINE",
"341 121 LINE",
"143 600 LINE",
"89 600 LINE",
"89 50 LINE",
"70 28 LINE",
"20 28 LINE",
"20 0 LINE"
);
}
);
width = 900;
},
{
layerId = "715E6458-225A-4B30-851F-23A0A4A3DE49";
paths = (
{
closed = 1;
nodes = (
"715 562 LINE",
"862 562 LINE",
"884 543 LINE",
"893 497 LINE",
"921 497 LINE",
"942 600 LINE",
"606 600 LINE",
"336 128 LINE",
"237 600 LINE",
"191 600 LINE",
"63 28 LINE",
"0 28 LINE",
"0 0 LINE",
"183 0 LINE",
"183 28 LINE",
"135 28 LINE",
"116 50 LINE",
"194 396 LINE",
"280 0 LINE",
"314 0 LINE",
"598 499 LINE",
"552 290 LINE",
"493 28 LINE",
"429 28 LINE",
"429 0 LINE",
"826 0 LINE",
"848 105 LINE",
"820 105 LINE",
"810 57 LINE",
"788 38 LINE",
"614 38 LINE",
"584 60 LINE",
"628 264 LINE",
"633 289 LINE",
"662 311 LINE",
"821 311 LINE",
"843 292 LINE",
"843 262 LINE",
"871 262 LINE",
"898 394 LINE",
"870 394 LINE",
"861 366 LINE",
"839 347 LINE",
"670 347 LINE",
"651 369 LINE",
"688 542 LINE"
);
}
);
width = 932;
}
);
leftMetricsKey = M;
rightMetricsKey = E;
},
{
glyphname = N_D.liga;
lastChange = "2022-06-21 15:32:50 +0000";
layers = (
{
layerId = "A0FA55D0-E595-4D47-A77D-3C8049EF6A20";
paths = (
{
closed = 1;
nodes = (
"225 0 LINE",
"225 28 LINE",
"177 28 LINE",
"158 50 LINE",
"158 72 LINE",
"154 434 LINE",
"425 0 LINE",
"690 0 LINE SMOOTH",
"833 0 OFFCURVE",
"932 115 OFFCURVE",
"932 316 CURVE SMOOTH",
"932 524 OFFCURVE",
"833 608 OFFCURVE",
"690 608 CURVE SMOOTH",
"418 608 LINE",
"418 572 LINE",
"468 572 LINE",
"487 550 LINE",
"487 70 LINE",
"144 600 LINE",
"20 600 LINE",
"20 572 LINE",
"70 572 LINE",
"89 540 LINE",
"106 511 LINE",
"106 50 LINE",
"87 28 LINE",
"37 28 LINE",
"37 0 LINE"
);
},
{
closed = 1;
nodes = (
"573 558 LINE",
"592 580 LINE",
"688 580 LINE SMOOTH",
"761 580 OFFCURVE",
"846 521 OFFCURVE",
"846 308 CURVE SMOOTH",
"846 128 OFFCURVE",
"761 28 OFFCURVE",
"688 28 CURVE SMOOTH",
"592 28 LINE",
"573 50 LINE"
);
}
);
width = 972;
},
{
layerId = "715E6458-225A-4B30-851F-23A0A4A3DE49";
paths = (
{
closed = 1;
nodes = (
"415 600 LINE",
"415 572 LINE",
"465 572 LINE",
"483 551 LINE",
"469 474 LINE",
"387 70 LINE",
"179 600 LINE",
"141 600 LINE",
"10 28 LINE",
"-50 28 LINE",
"-50 0 LINE",
"138 0 LINE",
"138 28 LINE",
"90 28 LINE",
"71 50 LINE",
"71 72 LINE",
"153 434 LINE",
"325 0 LINE",
"569 0 LINE SMOOTH",
"712 0 OFFCURVE",
"866 98 OFFCURVE",
"896 299 CURVE SMOOTH",
"927 505 OFFCURVE",
"827 601 OFFCURVE",
"684 601 CURVE SMOOTH"
);
},
{
closed = 1;
nodes = (
"780 111 OFFCURVE",
"640 28 OFFCURVE",
"567 28 CURVE SMOOTH",
"481 28 LINE",
"462 50 LINE",
"567 551 LINE",
"586 573 LINE",
"682 573 LINE SMOOTH",
"755 573 OFFCURVE",
"845 501 OFFCURVE",
"810 291 CURVE SMOOTH"
);
}
);
width = 902;
}
);
rightMetricsKey = D;
},
{
glyphname = N_R.liga;
lastChange = "2022-06-21 15:32:50 +0000";
layers = (
{
layerId = "A0FA55D0-E595-4D47-A77D-3C8049EF6A20";
paths = (
{
closed = 1;
nodes = (
"208 0 LINE",
"208 28 LINE",
"160 28 LINE",
"141 50 LINE",
"141 72 LINE",
"137 434 LINE",
"408 0 LINE",
"549 0 LINE",
"549 292 LINE",
"568 314 LINE",
"608 314 LINE",
"763 50 LINE",
"744 28 LINE",
"694 28 LINE",
"694 0 LINE",
"909 0 LINE",
"909 28 LINE",
"860 28 LINE",
"685 319 LINE",
"771 334 OFFCURVE",
"830 385 OFFCURVE",
"830 471 CURVE SMOOTH",
"830 573 OFFCURVE",
"744 600 OFFCURVE",
"627 600 CURVE SMOOTH",
"401 600 LINE",
"401 572 LINE",
"451 572 LINE",
"470 550 LINE",
"470 70 LINE",
"127 600 LINE",
"89 600 LINE",
"89 50 LINE",
"70 28 LINE",
"20 28 LINE",
"20 0 LINE"
);
},
{
closed = 1;
nodes = (
"549 550 LINE",
"568 572 LINE",
"648 572 LINE SMOOTH",
"712 572 OFFCURVE",
"746 531 OFFCURVE",
"746 469 CURVE SMOOTH",
"746 409 OFFCURVE",
"715 345 OFFCURVE",
"655 345 CURVE SMOOTH",
"568 345 LINE",
"549 367 LINE"
);
}
);
width = 909;
},
{
components = (
{
name = N;
}
);
layerId = "715E6458-225A-4B30-851F-23A0A4A3DE49";
paths = (
{
closed = 1;
nodes = (
"683 314 LINE",
"785 326 OFFCURVE",
"843 369 OFFCURVE",
"860 470 CURVE SMOOTH",
"875 557 OFFCURVE",
"822 600 OFFCURVE",
"731 600 CURVE",
"600 600 LINE",
"462 600 LINE",
"462 572 LINE",
"512 572 LINE",
"531 550 LINE",
"415 0 LINE",
"477 0 LINE",
"533 266 LINE",
"539 292 LINE",
"568 314 LINE",
"608 314 LINE",
"735 50 LINE",
"706 28 LINE",
"671 28 LINE",
"671 0 LINE",
"870 0 LINE",
"870 28 LINE",
"820 28 LINE"
);
},
{
closed = 1;
nodes = (
"594 550 LINE",
"623 572 LINE",
"698 572 LINE SMOOTH",
"742 572 OFFCURVE",
"799 529 OFFCURVE",
"786 469 CURVE SMOOTH",
"765 373 OFFCURVE",
"701 345 OFFCURVE",
"641 345 CURVE SMOOTH",
"574 345 LINE",
"555 367 LINE"
);
}
);
width = 890;
}
);
leftMetricsKey = N;
rightMetricsKey = R;
},
{
glyphname = N_T.liga;
lastChange = "2022-06-21 15:32:50 +0000";
layers = (
{
components = (
{
name = N;
}
);
layerId = "A0FA55D0-E595-4D47-A77D-3C8049EF6A20";
paths = (
{
closed = 1;
nodes = (
"609 0 LINE",
"609 28 LINE",
"561 28 LINE",
"542 50 LINE",
"542 541 LINE",
"561 563 LINE",
"676 563 LINE",
"692 545 LINE",
"692 497 LINE",
"711 497 LINE",
"757 600 LINE",
"253 600 LINE",
"299 497 LINE",
"318 497 LINE",
"318 545 LINE",
"334 563 LINE",
"451 563 LINE",
"470 541 LINE",
"470 50 LINE",
"451 28 LINE",
"401 28 LINE",
"411 0 LINE"
);
}
);
width = 707;
},
{
layerId = "715E6458-225A-4B30-851F-23A0A4A3DE49";
paths = (
{
closed = 1;
nodes = (
"293 600 LINE",
"339 497 LINE",
"358 497 LINE",
"358 545 LINE",
"374 563 LINE",
"501 563 LINE",
"514 548 LINE",
"417 70 LINE",
"209 600 LINE",
"171 600 LINE",
"40 28 LINE",
"-20 28 LINE",
"-20 0 LINE",
"168 0 LINE",
"168 28 LINE",
"120 28 LINE",
"101 50 LINE",
"101 72 LINE",
"183 434 LINE",
"355 0 LINE",
"551 0 LINE",
"551 28 LINE",
"503 28 LINE",
"484 50 LINE",
"591 541 LINE",
"610 563 LINE",
"725 563 LINE",
"741 545 LINE",
"741 497 LINE",
"760 497 LINE",
"806 600 LINE"
);
}
);
width = 766;
}
);
leftMetricsKey = N;
rightMetricsKey = T;
},
{
glyphname = O_A.dlig;
lastChange = "2022-06-21 15:32:50 +0000";
layers = (
{
components = (
{
alignment = -1;
name = A;
transform = "{0.47076, 0, 0, 0.47076, 355, 152}";
}
);
layerId = "A0FA55D0-E595-4D47-A77D-3C8049EF6A20";
paths = (
{
closed = 1;
nodes = (
"409 -9 OFFCURVE",
"486 41 OFFCURVE",
"527 128 CURVE",
"433 128 LINE",
"405 62 OFFCURVE",
"360 18 OFFCURVE",
"304 15 CURVE SMOOTH",
"197 11 OFFCURVE",
"140 156 OFFCURVE",
"140 297 CURVE SMOOTH",
"140 481 OFFCURVE",
"198 588 OFFCURVE",
"305 588 CURVE SMOOTH",
"369 588 OFFCURVE",
"416 544 OFFCURVE",
"442 465 CURVE",
"527 466 LINE",
"484 554 OFFCURVE",
"403 610 OFFCURVE",
"305 610 CURVE SMOOTH",
"144 610 OFFCURVE",
"40 487 OFFCURVE",
"40 306 CURVE SMOOTH",
"40 138 OFFCURVE",
"120 -9 OFFCURVE",
"305 -9 CURVE SMOOTH"
);
}
);
width = 658;
},
{
components = (
{
alignment = -1;
name = A;
transform = "{0.47076, 0, 0, 0.47076, 335, 152}";
}
);
layerId = "715E6458-225A-4B30-851F-23A0A4A3DE49";
paths = (
{
closed = 1;
nodes = (
"542 484 LINE",
"514 556 OFFCURVE",
"455 606 OFFCURVE",
"373 610 CURVE SMOOTH",
"219 617 OFFCURVE",
"92 486 OFFCURVE",
"46 322 CURVE SMOOTH",
"1 163 OFFCURVE",
"54 -2 OFFCURVE",
"199 -9 CURVE SMOOTH",
"298 -13 OFFCURVE",
"383 25 OFFCURVE",
"446 93 CURVE",
"364 93 LINE",
"326 39 OFFCURVE",
"276 6 OFFCURVE",
"210 12 CURVE SMOOTH",
"118 21 OFFCURVE",
"104 181 OFFCURVE",
"148 322 CURVE SMOOTH",
"193 466 OFFCURVE",
"262 588 OFFCURVE",
"368 585 CURVE SMOOTH",
"416 584 OFFCURVE",
"447 544 OFFCURVE",
"458 482 CURVE"
);
}
);
width = 584;
}
);
leftMetricsKey = O;
rightMetricsKey = O;
},
{
glyphname = O_C.liga;
lastChange = "2022-06-21 15:32:50 +0000";
layers = (
{
layerId = "A0FA55D0-E595-4D47-A77D-3C8049EF6A20";
paths = (
{
closed = 1;
nodes = (
"678 -10 OFFCURVE",
"779 88 OFFCURVE",
"793 196 CURVE",
"761 207 LINE",
"733 87 OFFCURVE",
"630 33 OFFCURVE",
"569 33 CURVE SMOOTH",
"538 33 OFFCURVE",
"509 43 OFFCURVE",
"483 64 CURVE",
"537 123 OFFCURVE",
"562 212 OFFCURVE",
"562 308 CURVE SMOOTH",
"562 409 OFFCURVE",
"525 493 OFFCURVE",
"468 546 CURVE",
"494 568 OFFCURVE",
"526 580 OFFCURVE",
"562 581 CURVE SMOOTH",
"623 582 OFFCURVE",
"650 551 OFFCURVE",
"645 503 CURVE",
"636 477 OFFCURVE",
"640 460 OFFCURVE",
"647 448 CURVE SMOOTH",
"662 422 OFFCURVE",
"694 407 OFFCURVE",
"721 419 CURVE SMOOTH",
"756 434 OFFCURVE",
"773 479 OFFCURVE",
"754 524 CURVE SMOOTH",
"733 573 OFFCURVE",
"649 610 OFFCURVE",
"560 610 CURVE SMOOTH",
"512 608 OFFCURVE",
"468 596 OFFCURVE",
"431 575 CURVE",
"394 598 OFFCURVE",
"352 610 OFFCURVE",
"308 610 CURVE SMOOTH",
"305 610 LINE SMOOTH",
"144 610 OFFCURVE",
"40 487 OFFCURVE",
"40 306 CURVE SMOOTH",
"40 138 OFFCURVE",
"119 -9 OFFCURVE",
"304 -9 CURVE SMOOTH",
"308 -9 LINE SMOOTH",
"358 -9 OFFCURVE",
"401 3 OFFCURVE",
"436 25 CURVE",
"474 2 OFFCURVE",
"518 -10 OFFCURVE",
"569 -10 CURVE SMOOTH"
);
},
{
closed = 1;
nodes = (
"140 481 OFFCURVE",
"199 588 OFFCURVE",
"306 588 CURVE SMOOTH",
"421 588 OFFCURVE",
"464 451 OFFCURVE",
"464 297 CURVE SMOOTH",
"464 165 OFFCURVE",
"406 18 OFFCURVE",
"304 15 CURVE SMOOTH",
"197 11 OFFCURVE",
"140 156 OFFCURVE",
"140 297 CURVE SMOOTH"
);
}
);
width = 853;
},
{
layerId = "715E6458-225A-4B30-851F-23A0A4A3DE49";
paths = (
{
closed = 1;
nodes = (
"789 569 OFFCURVE",
"702 608 OFFCURVE",
"633 611 CURVE SMOOTH",
"576 614 OFFCURVE",
"524 599 OFFCURVE",
"479 572 CURVE",
"451 594 OFFCURVE",
"415 608 OFFCURVE",
"373 610 CURVE SMOOTH",
"219 617 OFFCURVE",
"92 486 OFFCURVE",
"46 322 CURVE SMOOTH",
"1 163 OFFCURVE",
"54 -2 OFFCURVE",
"199 -9 CURVE SMOOTH",
"269 -12 OFFCURVE",
"333 6 OFFCURVE",
"386 41 CURVE",
"421 9 OFFCURVE",
"467 -10 OFFCURVE",
"524 -10 CURVE SMOOTH",
"616 -10 OFFCURVE",
"711 24 OFFCURVE",
"757 175 CURVE",
"720 175 LINE",
"696 93 OFFCURVE",
"629 22 OFFCURVE",
"534 22 CURVE SMOOTH",
"495 22 OFFCURVE",
"462 46 OFFCURVE",
"439 86 CURVE",
"495 144 OFFCURVE",
"535 226 OFFCURVE",
"553 322 CURVE SMOOTH",
"569 405 OFFCURVE",
"553 483 OFFCURVE",
"514 536 CURVE",
"544 568 OFFCURVE",
"582 586 OFFCURVE",
"629 584 CURVE SMOOTH",
"667 582 OFFCURVE",
"721 544 OFFCURVE",
"708 502 CURVE SMOOTH",
"700 477 OFFCURVE",
"704 460 OFFCURVE",
"711 448 CURVE SMOOTH",
"726 422 OFFCURVE",
"757 416 OFFCURVE",
"785 428 CURVE SMOOTH",
"820 443 OFFCURVE",
"827 479 OFFCURVE",
"808 524 CURVE SMOOTH"
);
},
{
closed = 1;
nodes = (
"416 156 OFFCURVE",
"347 -1 OFFCURVE",
"210 12 CURVE SMOOTH",
"118 21 OFFCURVE",
"104 181 OFFCURVE",
"148 322 CURVE SMOOTH",
"193 466 OFFCURVE",
"262 588 OFFCURVE",
"368 585 CURVE SMOOTH",
"450 583 OFFCURVE",
"483 467 OFFCURVE",
"452 322 CURVE SMOOTH"
);
}
);
width = 838;
}
);
leftMetricsKey = O;
rightMetricsKey = C;
},
{
glyphname = O_E.dlig;
lastChange = "2022-06-21 15:32:50 +0000";
layers = (
{
components = (
{
alignment = -1;
name = E;
transform = "{0.47076, 0, 0, 0.47076, 192, 450}";
}
);
layerId = "A0FA55D0-E595-4D47-A77D-3C8049EF6A20";
paths = (
{
closed = 1;
nodes = (
"467 -9 OFFCURVE",
"562 113 OFFCURVE",
"562 308 CURVE SMOOTH",
"562 421 OFFCURVE",
"516 515 OFFCURVE",
"444 567 CURVE",
"411 528 LINE",
"445 479 OFFCURVE",
"463 400 OFFCURVE",
"463 297 CURVE SMOOTH",
"463 149 OFFCURVE",
"400 19 OFFCURVE",
"303 15 CURVE SMOOTH",
"196 11 OFFCURVE",
"139 156 OFFCURVE",
"139 297 CURVE SMOOTH",
"139 392 OFFCURVE",
"154 465 OFFCURVE",
"184 515 CURVE",
"164 571 LINE",
"86 521 OFFCURVE",
"40 426 OFFCURVE",
"40 306 CURVE SMOOTH",
"40 138 OFFCURVE",
"120 -9 OFFCURVE",
"305 -9 CURVE SMOOTH"
);
}
);
width = 602;
},
{
components = (
{
alignment = -1;
name = E;
transform = "{0.47076, 0, 0, 0.47076, 242, 450}";
}
);
layerId = "715E6458-225A-4B30-851F-23A0A4A3DE49";
paths = (
{
closed = 1;
nodes = (
"191 549 LINE",
"123 496 OFFCURVE",
"72 414 OFFCURVE",
"46 322 CURVE SMOOTH",
"1 163 OFFCURVE",
"54 -2 OFFCURVE",
"199 -9 CURVE SMOOTH",
"382 -18 OFFCURVE",
"515 120 OFFCURVE",
"553 322 CURVE SMOOTH",
"568 402 OFFCURVE",
"554 477 OFFCURVE",
"518 531 CURVE",
"458 483 LINE",
"467 439 OFFCURVE",
"465 383 OFFCURVE",
"452 322 CURVE SMOOTH",
"416 156 OFFCURVE",
"347 -1 OFFCURVE",
"210 12 CURVE SMOOTH",
"118 21 OFFCURVE",
"104 181 OFFCURVE",
"148 322 CURVE SMOOTH",
"166 379 OFFCURVE",
"188 433 OFFCURVE",
"214 477 CURVE"
);
}
);
width = 589;
}
);
leftMetricsKey = O;
rightMetricsKey = O;
},
{
glyphname = O_E.liga;
lastChange = "2022-06-21 15:32:50 +0000";
layers = (
{
associatedMasterId = "A0FA55D0-E595-4D47-A77D-3C8049EF6A20";
layerId = "0E874D74-E5D0-4FDD-98E2-D6B3D069E9EF";
name = "Oct 30 20, 11:42";
paths = (
{
closed = 1;
nodes = (
"687 47 LINE",
"665 28 LINE",
"465 28 LINE",
"446 50 LINE",
"446 289 LINE",
"465 311 LINE",
"614 311 LINE",
"636 292 LINE",
"636 262 LINE",
"664 262 LINE",
"664 394 LINE",
"636 394 LINE",
"636 366 LINE",
"614 347 LINE",
"465 347 LINE",
"446 369 LINE",
"446 550 LINE",
"465 572 LINE",
"613 572 LINE",
"635 553 LINE",
"635 507 LINE",
"663 507 LINE",
"663 610 LINE",
"363 610 LINE",
"143 610 OFFCURVE",
"40 496 OFFCURVE",
"40 306 CURVE SMOOTH",
"40 129 OFFCURVE",
"119 -8 OFFCURVE",
"363 -10 CURVE",
"715 -10 LINE",
"715 95 LINE",
"687 95 LINE"
);
},
{
closed = 1;
nodes = (
"140 489 OFFCURVE",
"197 586 OFFCURVE",
"363 588 CURVE",
"363 15 LINE",
"205 16 OFFCURVE",
"140 146 OFFCURVE",
"140 297 CURVE SMOOTH"
);
}
);
width = 735;
},
{
layerId = "A0FA55D0-E595-4D47-A77D-3C8049EF6A20";
paths = (
{
closed = 1;
nodes = (
"313 -9 OFFCURVE",
"322 -9 OFFCURVE",
"330 -8 CURVE",
"812 -8 LINE",
"812 97 LINE",
"784 97 LINE",
"784 49 LINE",
"762 30 LINE",
"498 30 LINE",
"479 52 LINE",
"479 59 LINE",
"531 113 OFFCURVE",
"560 195 OFFCURVE",
"562 299 CURVE",
"572 311 LINE",
"721 311 LINE",
"743 292 LINE",
"743 262 LINE",
"771 262 LINE",
"771 394 LINE",
"743 394 LINE",
"743 366 LINE",
"721 347 LINE",
"572 347 LINE",
"558 363 LINE",
"547 440 OFFCURVE",
"514 505 OFFCURVE",
"465 549 CURVE",
"465 550 LINE",
"484 572 LINE",
"720 572 LINE",
"742 553 LINE",
"742 507 LINE",
"770 507 LINE",
"770 610 LINE",
"305 610 LINE SMOOTH",
"144 610 OFFCURVE",
"40 487 OFFCURVE",
"40 306 CURVE SMOOTH",
"40 128 OFFCURVE",
"128 -9 OFFCURVE",
"305 -9 CURVE SMOOTH"
);
},
{
closed = 1;
nodes = (
"140 481 OFFCURVE",
"198 588 OFFCURVE",
"305 588 CURVE SMOOTH",
"406 588 OFFCURVE",
"464 482 OFFCURVE",
"464 297 CURVE SMOOTH",
"464 149 OFFCURVE",
"401 19 OFFCURVE",
"304 15 CURVE SMOOTH",
"197 11 OFFCURVE",
"140 156 OFFCURVE",
"140 297 CURVE SMOOTH"
);
}
);
width = 842;
},
{
components = (
{
name = O;
}
);
layerId = "715E6458-225A-4B30-851F-23A0A4A3DE49";
paths = (
{
closed = 1;
nodes = (
"508 526 LINE",
"511 540 LINE",
"540 562 LINE",
"773 562 LINE",
"795 543 LINE",
"804 497 LINE",
"832 497 LINE",
"853 600 LINE",
"416 600 LINE"
);
},
{
closed = 1;
nodes = (
"280 0 LINE",
"737 0 LINE",
"759 105 LINE",
"731 105 LINE",
"721 57 LINE",
"699 38 LINE",
"435 38 LINE",
"406 60 LINE",
"408 68 LINE"
);
},
{
closed = 1;
nodes = (
"543 284 LINE",
"544 289 LINE",
"573 311 LINE",
"732 311 LINE",
"754 292 LINE",
"754 262 LINE",
"782 262 LINE",
"809 394 LINE",
"781 394 LINE",
"772 366 LINE",
"750 347 LINE",
"581 347 LINE",
"562 369 LINE",
"563 375 LINE",
"511 325 LINE",
"510 318 LINE"
);
}
);
width = 843;
}
);
leftMetricsKey = O;
rightMetricsKey = E;
},
{
glyphname = O_G.liga;
lastChange = "2022-06-21 15:32:50 +0000";
layers = (
{
components = (
{
name = O;
}
);
layerId = "A0FA55D0-E595-4D47-A77D-3C8049EF6A20";
paths = (
{
closed = 1;
nodes = (
"803 -182 OFFCURVE",
"884 -84 OFFCURVE",
"884 45 CURVE SMOOTH",
"884 185 LINE",
"885 304 LINE",
"731 248 LINE",
"731 225 LINE",
"790 225 LINE",
"812 206 LINE",
"812 153 LINE",
"813 84 LINE",
"683 -30 OFFCURVE",
"569 39 OFFCURVE",
"529 205 CURVE",
"470 111 LINE",
"514 34 OFFCURVE",
"586 -10 OFFCURVE",
"664 -10 CURVE SMOOTH",
"766 -10 OFFCURVE",
"812 49 OFFCURVE",
"812 49 CURVE",
"808 -89 OFFCURVE",
"785 -146 OFFCURVE",
"716 -133 CURVE",
"688 -119 OFFCURVE",
"700 -90 OFFCURVE",
"675 -86 CURVE SMOOTH",
"644 -81 OFFCURVE",
"626 -104 OFFCURVE",
"622 -123 CURVE SMOOTH",
"615 -154 OFFCURVE",
"638 -179 OFFCURVE",
"703 -180 CURVE SMOOTH"
);
},
{
closed = 1;
nodes = (
"517 391 LINE",
"531 512 OFFCURVE",
"601 579 OFFCURVE",
"687 581 CURVE SMOOTH",
"804 583 OFFCURVE",
"866 485 OFFCURVE",
"875 379 CURVE",
"910 379 LINE",
"910 584 LINE",
"878 584 LINE",
"878 555 LINE",
"855 555 LINE",
"855 555 OFFCURVE",
"807 610 OFFCURVE",
"685 610 CURVE SMOOTH",
"587 610 OFFCURVE",
"513 566 OFFCURVE",
"468 492 CURVE"
);
}
);
width = 937;
},
{
associatedMasterId = "A0FA55D0-E595-4D47-A77D-3C8049EF6A20";
components = (
{
name = O;
},
{
alignment = -1;
name = G;
transform = "{1, 0, 0, 1, 257, 0}";
}
);
layerId = "6A539336-F989-4F9D-88B2-961BD75E50D5";
name = "Apr 30 20, 17:25";
width = 812;
},
{
components = (
{
name = O;
}
);
layerId = "715E6458-225A-4B30-851F-23A0A4A3DE49";
paths = (
{
closed = 1;
nodes = (
"389 133 LINE",
"419 48 OFFCURVE",
"487 -14 OFFCURVE",
"587 -14 CURVE SMOOTH",
"650 -14 OFFCURVE",
"709 15 OFFCURVE",
"751 73 CURVE",
"725 -54 LINE",
"707 -127 OFFCURVE",
"688 -161 OFFCURVE",
"652 -155 CURVE SMOOTH",
"635 -152 OFFCURVE",
"626 -140 OFFCURVE",
"623 -118 CURVE",
"624 -97 OFFCURVE",
"619 -87 OFFCURVE",
"612 -79 CURVE SMOOTH",
"597 -62 OFFCURVE",
"572 -57 OFFCURVE",
"552 -71 CURVE SMOOTH",
"530 -86 OFFCURVE",
"527 -123 OFFCURVE",
"548 -152 CURVE SMOOTH",
"566 -176 OFFCURVE",
"600 -184 OFFCURVE",
"649 -186 CURVE SMOOTH",
"712 -189 OFFCURVE",
"772 -138 OFFCURVE",
"789 -54 CURVE SMOOTH",
"858 285 LINE",
"827 291 LINE",
"694 248 LINE",
"694 225 LINE",
"753 225 LINE",
"775 206 LINE",
"760 121 LINE",
"724 57 OFFCURVE",
"666 12 OFFCURVE",
"597 12 CURVE SMOOTH",
"524 12 OFFCURVE",
"470 105 OFFCURVE",
"471 224 CURVE"
);
},
{
closed = 1;
nodes = (
"488 346 LINE",
"515 466 OFFCURVE",
"569 566 OFFCURVE",
"658 582 CURVE SMOOTH",
"766 601 OFFCURVE",
"837 499 OFFCURVE",
"827 390 CURVE",
"857 390 LINE",
"891 575 LINE",
"865 575 LINE",
"858 546 LINE",
"832 546 LINE",
"798 601 OFFCURVE",
"732 616 OFFCURVE",
"655 610 CURVE SMOOTH",
"575 604 OFFCURVE",
"508 561 OFFCURVE",
"459 497 CURVE"
);
}
);
width = 901;
}
);
leftMetricsKey = O;
rightMetricsKey = "=G-20";
},
{
glyphname = O_N.liga;
lastChange = "2025-03-06 08:53:35 +0000";
layers = (
{
layerId = "A0FA55D0-E595-4D47-A77D-3C8049EF6A20";
paths = (
{
closed = 1;
nodes = (
"455 -9 OFFCURVE",
"520 76 OFFCURVE",
"542 297 CURVE",
"733 0 LINE",
"836 0 LINE",
"837 497 LINE",
"837 550 LINE",
"856 572 LINE",
"904 572 LINE",
"904 600 LINE",
"716 600 LINE",
"716 572 LINE",
"766 572 LINE",
"785 550 LINE",
"785 70 LINE",
"491 521 LINE",
"491 522 LINE",
"445 577 OFFCURVE",
"380 610 OFFCURVE",
"305 610 CURVE SMOOTH",
"144 610 OFFCURVE",
"40 487 OFFCURVE",
"40 306 CURVE SMOOTH",
"40 138 OFFCURVE",
"120 -9 OFFCURVE",
"305 -9 CURVE SMOOTH"
);
},
{
closed = 1;
nodes = (
"140 481 OFFCURVE",
"198 588 OFFCURVE",
"305 588 CURVE SMOOTH",
"406 588 OFFCURVE",
"464 482 OFFCURVE",
"464 297 CURVE SMOOTH",
"464 149 OFFCURVE",
"401 19 OFFCURVE",
"304 15 CURVE SMOOTH",
"197 11 OFFCURVE",
"140 156 OFFCURVE",
"140 297 CURVE SMOOTH"
);
}
);
width = 924;
},
{
layerId = "715E6458-225A-4B30-851F-23A0A4A3DE49";
paths = (
{
closed = 1;
nodes = (
"732 572 LINE",
"782 572 LINE",
"801 550 LINE",
"704 70 LINE",
"547 470 LINE",
"522 550 OFFCURVE",
"461 606 OFFCURVE",
"373 610 CURVE SMOOTH",
"219 617 OFFCURVE",
"92 486 OFFCURVE",
"46 322 CURVE SMOOTH",
"1 163 OFFCURVE",
"54 -2 OFFCURVE",
"199 -9 CURVE SMOOTH",
"363 -17 OFFCURVE",
"490 93 OFFCURVE",
"526 292 CURVE",
"642 0 LINE",
"735 0 LINE",
"853 550 LINE",
"872 572 LINE",
"920 572 LINE",
"920 600 LINE",
"732 600 LINE"
);
},
{
closed = 1;
nodes = (
"416 156 OFFCURVE",
"347 -1 OFFCURVE",
"210 12 CURVE SMOOTH",
"118 21 OFFCURVE",
"104 181 OFFCURVE",
"148 322 CURVE SMOOTH",
"193 466 OFFCURVE",
"262 588 OFFCURVE",
"368 585 CURVE SMOOTH",
"450 583 OFFCURVE",
"483 467 OFFCURVE",
"452 322 CURVE SMOOTH"
);
}
);
width = 880;
}
);
leftMetricsKey = O;
rightMetricsKey = N;
},
{
glyphname = O_O.liga;
lastChange = "2022-06-21 15:32:50 +0000";
layers = (
{
layerId = "A0FA55D0-E595-4D47-A77D-3C8049EF6A20";
paths = (
{
closed = 1;
nodes = (
"308 -9 LINE SMOOTH",
"354 -9 OFFCURVE",
"393 1 OFFCURVE",
"426 19 CURVE",
"460 1 OFFCURVE",
"502 -9 OFFCURVE",
"550 -9 CURVE SMOOTH",
"554 -9 LINE SMOOTH",
"729 -9 OFFCURVE",
"808 138 OFFCURVE",
"808 308 CURVE SMOOTH",
"808 487 OFFCURVE",
"694 610 OFFCURVE",
"554 610 CURVE SMOOTH",
"551 610 LINE SMOOTH",
"503 610 OFFCURVE",
"460 599 OFFCURVE",
"424 579 CURVE",
"389 599 OFFCURVE",
"350 610 OFFCURVE",
"308 610 CURVE SMOOTH",
"305 610 LINE SMOOTH",
"144 610 OFFCURVE",
"40 487 OFFCURVE",
"40 306 CURVE SMOOTH",
"40 138 OFFCURVE",
"119 -9 OFFCURVE",
"304 -9 CURVE SMOOTH"
);
},
{
closed = 1;
nodes = (
"140 481 OFFCURVE",
"199 588 OFFCURVE",
"306 588 CURVE SMOOTH",
"421 588 OFFCURVE",
"464 453 OFFCURVE",
"464 297 CURVE SMOOTH",
"464 165 OFFCURVE",
"407 19 OFFCURVE",
"304 15 CURVE SMOOTH",
"197 11 OFFCURVE",
"140 156 OFFCURVE",
"140 297 CURVE SMOOTH"
);
},
{
closed = 1;
nodes = (
"485 576 OFFCURVE",
"516 588 OFFCURVE",
"552 588 CURVE SMOOTH",
"653 588 OFFCURVE",
"710 482 OFFCURVE",
"710 297 CURVE SMOOTH",
"710 149 OFFCURVE",
"647 19 OFFCURVE",
"550 15 CURVE SMOOTH",
"518 14 OFFCURVE",
"490 26 OFFCURVE",
"467 48 CURVE",
"532 106 OFFCURVE",
"562 203 OFFCURVE",
"562 308 CURVE SMOOTH",
"562 414 OFFCURVE",
"522 500 OFFCURVE",
"461 553 CURVE"
);
}
);
width = 838;
},
{
layerId = "715E6458-225A-4B30-851F-23A0A4A3DE49";
paths = (
{
closed = 1;
nodes = (
"577 613 OFFCURVE",
"526 598 OFFCURVE",
"481 571 CURVE",
"452 594 OFFCURVE",
"416 608 OFFCURVE",
"373 610 CURVE SMOOTH",
"219 617 OFFCURVE",
"92 486 OFFCURVE",
"46 322 CURVE SMOOTH",
"1 163 OFFCURVE",
"54 -2 OFFCURVE",
"199 -9 CURVE SMOOTH",
"259 -12 OFFCURVE",
"314 1 OFFCURVE",
"362 27 CURVE",
"387 6 OFFCURVE",
"419 -7 OFFCURVE",
"458 -9 CURVE SMOOTH",
"641 -18 OFFCURVE",
"774 120 OFFCURVE",
"812 322 CURVE SMOOTH",
"840 472 OFFCURVE",
"768 604 OFFCURVE",
"632 610 CURVE SMOOTH"
);
},
{
closed = 1;
nodes = (
"118 21 OFFCURVE",
"104 181 OFFCURVE",
"148 322 CURVE SMOOTH",
"193 466 OFFCURVE",
"262 588 OFFCURVE",
"368 585 CURVE SMOOTH",
"450 583 OFFCURVE",
"483 467 OFFCURVE",
"452 322 CURVE SMOOTH",
"416 156 OFFCURVE",
"347 -1 OFFCURVE",
"210 12 CURVE SMOOTH"
);
},
{
closed = 1;
nodes = (
"675 156 OFFCURVE",
"606 -1 OFFCURVE",
"469 12 CURVE SMOOTH",
"442 15 OFFCURVE",
"421 31 OFFCURVE",
"407 57 CURVE",
"480 115 OFFCURVE",
"532 208 OFFCURVE",
"553 322 CURVE SMOOTH",
"568 404 OFFCURVE",
"554 480 OFFCURVE",
"515 534 CURVE",
"547 567 OFFCURVE",
"584 586 OFFCURVE",
"627 585 CURVE SMOOTH",
"709 583 OFFCURVE",
"742 467 OFFCURVE",
"711 322 CURVE SMOOTH"
);
}
);
width = 838;
}
);
leftMetricsKey = O;
rightMetricsKey = "=O-10";
},
{
glyphname = O_R.dlig;
lastChange = "2022-06-21 15:32:50 +0000";
layers = (
{
components = (
{
alignment = -1;
name = R;
transform = "{0.47076, 0, 0, 0.47076, 391, 155}";
}
);
layerId = "A0FA55D0-E595-4D47-A77D-3C8049EF6A20";
paths = (
{
closed = 1;
nodes = (
"409 -9 OFFCURVE",
"486 41 OFFCURVE",
"527 128 CURVE",
"433 128 LINE",
"405 62 OFFCURVE",
"360 18 OFFCURVE",
"304 15 CURVE SMOOTH",
"197 11 OFFCURVE",
"140 156 OFFCURVE",
"140 297 CURVE SMOOTH",
"140 481 OFFCURVE",
"198 588 OFFCURVE",
"305 588 CURVE SMOOTH",
"369 588 OFFCURVE",
"416 544 OFFCURVE",
"442 465 CURVE",
"527 466 LINE",
"484 554 OFFCURVE",
"403 610 OFFCURVE",
"305 610 CURVE SMOOTH",
"144 610 OFFCURVE",
"40 487 OFFCURVE",
"40 306 CURVE SMOOTH",
"40 138 OFFCURVE",
"120 -9 OFFCURVE",
"305 -9 CURVE SMOOTH"
);
}
);
width = 680;
},
{
associatedMasterId = "A0FA55D0-E595-4D47-A77D-3C8049EF6A20";
components = (
{
name = R;
transform = "{0.31863, 0, 0, 0.31863, 221, 491}";
}
);
layerId = "639CA5AB-0FA8-46AA-BF68-4F235CFB7B49";
name = "Oct 26 20, 11:00";
paths = (
{
closed = 1;
nodes = (
"380 564 LINE",
"434 523 OFFCURVE",
"464 431 OFFCURVE",
"464 297 CURVE SMOOTH",
"464 149 OFFCURVE",
"401 19 OFFCURVE",
"304 15 CURVE SMOOTH",
"197 11 OFFCURVE",
"140 156 OFFCURVE",
"140 297 CURVE SMOOTH",
"140 422 OFFCURVE",
"167 512 OFFCURVE",
"218 556 CURVE",
"218 597 LINE",
"108 560 OFFCURVE",
"40 452 OFFCURVE",
"40 306 CURVE SMOOTH",
"40 138 OFFCURVE",
"119 -9 OFFCURVE",
"304 -9 CURVE SMOOTH",
"308 -9 LINE SMOOTH",
"483 -9 OFFCURVE",
"562 138 OFFCURVE",
"562 308 CURVE SMOOTH",
"562 455 OFFCURVE",
"485 564 OFFCURVE",
"380 599 CURVE"
);
}
);
width = 602;
},
{
components = (
{
alignment = -1;
name = R;
transform = "{0.47076, 0, 0, 0.47076, 391, 155}";
}
);
layerId = "715E6458-225A-4B30-851F-23A0A4A3DE49";
paths = (
{
closed = 1;
nodes = (
"542 483 LINE",
"515 556 OFFCURVE",
"456 606 OFFCURVE",
"373 610 CURVE SMOOTH",
"219 617 OFFCURVE",
"92 486 OFFCURVE",
"46 322 CURVE SMOOTH",
"1 163 OFFCURVE",
"54 -2 OFFCURVE",
"199 -9 CURVE SMOOTH",
"308 -14 OFFCURVE",
"399 32 OFFCURVE",
"463 114 CURVE",
"378 115 LINE",
"338 48 OFFCURVE",
"284 5 OFFCURVE",
"210 12 CURVE SMOOTH",
"118 21 OFFCURVE",
"104 181 OFFCURVE",
"148 322 CURVE SMOOTH",
"193 466 OFFCURVE",
"262 588 OFFCURVE",
"368 585 CURVE SMOOTH",
"416 584 OFFCURVE",
"447 543 OFFCURVE",
"459 481 CURVE"
);
}
);
width = 634;
}
);
leftMetricsKey = O;
},
{
glyphname = Q_L.dlig;
lastChange = "2022-06-21 15:32:50 +0000";
layers = (
{
components = (
{
alignment = -1;
name = L;
transform = "{0.47076, 0, 0, 0.47076, 348, 159}";
}
);
layerId = "A0FA55D0-E595-4D47-A77D-3C8049EF6A20";
paths = (
{
closed = 1;
nodes = (
"545 -148 LINE",
"475 -142 OFFCURVE",
"421 -83 OFFCURVE",
"373 -1 CURVE",
"429 13 OFFCURVE",
"474 45 OFFCURVE",
"506 92 CURVE",
"416 94 LINE",
"389 47 OFFCURVE",
"350 17 OFFCURVE",
"304 15 CURVE SMOOTH",
"197 11 OFFCURVE",
"140 156 OFFCURVE",
"140 297 CURVE SMOOTH",
"140 481 OFFCURVE",
"198 588 OFFCURVE",
"305 588 CURVE SMOOTH",
"358 588 OFFCURVE",
"399 559 OFFCURVE",
"426 505 CURVE",
"504 505 LINE",
"458 571 OFFCURVE",
"388 610 OFFCURVE",
"305 610 CURVE SMOOTH",
"144 610 OFFCURVE",
"40 487 OFFCURVE",
"40 306 CURVE SMOOTH",
"40 155 OFFCURVE",
"105 21 OFFCURVE",
"253 -5 CURVE",
"301 -52 OFFCURVE",
"368 -135 OFFCURVE",
"442 -160 CURVE SMOOTH",
"478 -172 OFFCURVE",
"513 -178 OFFCURVE",
"545 -179 CURVE"
);
}
);
width = 605;
},
{
associatedMasterId = "A0FA55D0-E595-4D47-A77D-3C8049EF6A20";
components = (
{
name = L;
transform = "{0.47076, 0, 0, 0.47076, 203, 402}";
}
);
layerId = "76E7340A-849A-4EDA-93AE-125C4C2F3BFE";
name = "Oct 26 20, 11:04";
paths = (
{
closed = 1;
nodes = (
"500 26 OFFCURVE",
"562 158 OFFCURVE",
"562 308 CURVE SMOOTH",
"562 455 OFFCURVE",
"485 564 OFFCURVE",
"380 599 CURVE",
"380 564 LINE",
"434 523 OFFCURVE",
"464 431 OFFCURVE",
"464 297 CURVE SMOOTH",
"464 149 OFFCURVE",
"401 19 OFFCURVE",
"304 15 CURVE SMOOTH",
"197 11 OFFCURVE",
"140 156 OFFCURVE",
"140 297 CURVE SMOOTH",
"140 422 OFFCURVE",
"167 512 OFFCURVE",
"218 556 CURVE",
"218 597 LINE",
"108 560 OFFCURVE",
"40 452 OFFCURVE",
"40 306 CURVE SMOOTH",
"40 159 OFFCURVE",
"100 29 OFFCURVE",
"239 -2 CURVE",
"240 -3 OFFCURVE",
"242 -3 OFFCURVE",
"243 -4 CURVE SMOOTH",
"291 -51 OFFCURVE",
"359 -135 OFFCURVE",
"433 -160 CURVE SMOOTH",
"469 -172 OFFCURVE",
"504 -178 OFFCURVE",
"536 -179 CURVE",
"536 -148 LINE",
"467 -142 OFFCURVE",
"413 -84 OFFCURVE",
"365 -3 CURVE"
);
}
);
width = 602;
},
{
components = (
{
alignment = -1;
name = L;
transform = "{0.47076, 0, 0, 0.47076, 222, 441}";
}
);
layerId = "715E6458-225A-4B30-851F-23A0A4A3DE49";
paths = (
{
closed = 1;
nodes = (
"444 476 LINE",
"451 433 OFFCURVE",
"448 380 OFFCURVE",
"436 322 CURVE SMOOTH",
"400 156 OFFCURVE",
"331 -1 OFFCURVE",
"194 12 CURVE SMOOTH",
"102 21 OFFCURVE",
"88 181 OFFCURVE",
"132 322 CURVE SMOOTH",
"151 383 OFFCURVE",
"175 441 OFFCURVE",
"204 486 CURVE",
"197 564 LINE",
"120 512 OFFCURVE",
"61 423 OFFCURVE",
"30 322 CURVE",
"30 320 LINE",
"29 320 OFFCURVE",
"29 320 OFFCURVE",
"29 320 CURVE",
"29 319 LINE",
"-5 205 OFFCURVE",
"6 107 OFFCURVE",
"60 47 CURVE SMOOTH",
"78 27 OFFCURVE",
"97 14 OFFCURVE",
"126 2 CURVE SMOOTH",
"267 -54 OFFCURVE",
"217 -149 OFFCURVE",
"484 -132 CURVE",
"484 -101 LINE",
"416 -98 OFFCURVE",
"325 -86 OFFCURVE",
"257 -4 CURVE",
"402 22 OFFCURVE",
"504 148 OFFCURVE",
"537 322 CURVE SMOOTH",
"555 418 OFFCURVE",
"532 507 OFFCURVE",
"477 560 CURVE"
);
}
);
width = 553;
}
);
leftMetricsKey = Q;
rightMetricsKey = Q;
},
{
glyphname = T_R.liga;
lastChange = "2022-06-21 15:32:50 +0000";
layers = (
{
layerId = "A0FA55D0-E595-4D47-A77D-3C8049EF6A20";
paths = (
{
closed = 1;
nodes = (
"417 0 LINE",
"417 28 LINE",
"368 28 LINE",
"349 50 LINE",
"349 292 LINE",
"368 314 LINE",
"408 314 LINE",
"563 50 LINE",
"544 28 LINE",
"494 28 LINE",
"494 0 LINE",
"709 0 LINE",
"709 28 LINE",
"660 28 LINE",
"485 319 LINE",
"571 334 OFFCURVE",
"630 385 OFFCURVE",
"630 471 CURVE SMOOTH",
"630 573 OFFCURVE",
"544 600 OFFCURVE",
"427 600 CURVE SMOOTH",
"10 600 LINE",
"56 497 LINE",
"75 497 LINE",
"75 545 LINE",
"91 563 LINE",
"248 563 LINE",
"267 541 LINE",
"267 50 LINE",
"248 28 LINE",
"198 28 LINE",
"198 0 LINE"
);
},
{
closed = 1;
nodes = (
"349 550 LINE",
"368 572 LINE",
"448 572 LINE SMOOTH",
"512 572 OFFCURVE",
"546 531 OFFCURVE",
"546 469 CURVE SMOOTH",
"546 409 OFFCURVE",
"515 345 OFFCURVE",
"455 345 CURVE SMOOTH",
"368 345 LINE",
"349 367 LINE"
);
}
);
width = 709;
},
{
layerId = "715E6458-225A-4B30-851F-23A0A4A3DE49";
paths = (
{
closed = 1;
nodes = (
"466 314 LINE",
"568 326 OFFCURVE",
"626 369 OFFCURVE",
"643 470 CURVE SMOOTH",
"658 557 OFFCURVE",
"605 600 OFFCURVE",
"514 600 CURVE SMOOTH",
"40 600 LINE",
"86 497 LINE",
"105 497 LINE",
"105 545 LINE",
"121 563 LINE",
"278 563 LINE",
"297 541 LINE",
"235 255 LINE",
"184 28 LINE",
"121 28 LINE",
"121 0 LINE",
"333 0 LINE",
"333 28 LINE",
"285 28 LINE",
"266 50 LINE",
"271 73 LINE",
"316 266 LINE",
"322 292 LINE",
"351 314 LINE",
"391 314 LINE",
"518 50 LINE",
"489 28 LINE",
"454 28 LINE",
"454 0 LINE",
"653 0 LINE",
"653 28 LINE",
"603 28 LINE"
);
},
{
closed = 1;
nodes = (
"338 367 LINE",
"377 550 LINE",
"406 572 LINE",
"481 572 LINE SMOOTH",
"525 572 OFFCURVE",
"582 529 OFFCURVE",
"569 469 CURVE SMOOTH",
"548 373 OFFCURVE",
"484 345 OFFCURVE",
"424 345 CURVE SMOOTH",
"357 345 LINE"
);
}
);
width = 673;
}
);
leftMetricsKey = T;
rightMetricsKey = R;
},
{
glyphname = T_T.liga;
lastChange = "2022-06-21 15:32:50 +0000";
layers = (
{
layerId = "A0FA55D0-E595-4D47-A77D-3C8049EF6A20";
paths = (
{
closed = 1;
nodes = (
"790 0 LINE",
"790 28 LINE",
"742 28 LINE",
"723 50 LINE",
"723 541 LINE",
"742 563 LINE",
"897 563 LINE",
"913 545 LINE",
"913 497 LINE",
"932 497 LINE",
"978 600 LINE",
"10 600 LINE",
"56 497 LINE",
"75 497 LINE",
"75 545 LINE",
"91 563 LINE",
"248 563 LINE",
"267 541 LINE",
"267 50 LINE",
"248 28 LINE",
"198 28 LINE",
"198 0 LINE",
"416 0 LINE",
"416 28 LINE",
"368 28 LINE",
"349 50 LINE",
"349 541 LINE",
"368 563 LINE",
"622 563 LINE",
"641 541 LINE",
"641 50 LINE",
"622 28 LINE",
"572 28 LINE",
"572 0 LINE"
);
}
);
width = 928;
},
{
layerId = "715E6458-225A-4B30-851F-23A0A4A3DE49";
paths = (
{
closed = 1;
nodes = (
"424 600 LINE",
"505 563 LINE",
"662 563 LINE",
"681 541 LINE",
"569 28 LINE",
"505 28 LINE",
"505 0 LINE",
"723 0 LINE",
"723 28 LINE",
"675 28 LINE",
"656 50 LINE",
"763 541 LINE",
"782 563 LINE",
"937 563 LINE",
"953 545 LINE",
"953 497 LINE",
"972 497 LINE",
"1018 600 LINE"
);
},
{
closed = 1;
nodes = (
"40 600 LINE",
"86 497 LINE",
"105 497 LINE",
"105 545 LINE",
"121 563 LINE",
"278 563 LINE",
"297 541 LINE",
"185 28 LINE",
"121 28 LINE",
"121 0 LINE",
"339 0 LINE",
"339 28 LINE",
"291 28 LINE",
"272 50 LINE",
"379 541 LINE",
"398 563 LINE",
"553 563 LINE",
"634 600 LINE"
);
}
);
width = 978;
}
);
leftMetricsKey = T;
rightMetricsKey = T;
},
{
glyphname = T_h.liga;
lastChange = "2022-06-21 15:32:50 +0000";
layers = (
{
components = (
{
name = T;
}
);
layerId = "A0FA55D0-E595-4D47-A77D-3C8049EF6A20";
paths = (
{
closed = 1;
nodes = (
"679 0 LINE",
"679 28 LINE",
"631 28 LINE",
"612 50 LINE",
"612 306 LINE",
"639 380 OFFCURVE",
"666 408 OFFCURVE",
"711 411 CURVE SMOOTH",
"766 415 OFFCURVE",
"802 377 OFFCURVE",
"802 281 CURVE SMOOTH",
"802 40 LINE",
"793 28 LINE",
"733 28 LINE",
"733 0 LINE",
"942 0 LINE",
"942 28 LINE",
"884 28 LINE",
"875 40 LINE",
"875 331 LINE SMOOTH",
"875 404 OFFCURVE",
"817 450 OFFCURVE",
"737 450 CURVE SMOOTH",
"679 450 OFFCURVE",
"640 420 OFFCURVE",
"612 356 CURVE",
"612 600 LINE",
"539 600 LINE",
"539 50 LINE",
"520 28 LINE",
"470 28 LINE",
"470 0 LINE"
);
}
);
width = 952;
},
{
layerId = "715E6458-225A-4B30-851F-23A0A4A3DE49";
paths = (
{
closed = 1;
nodes = (
"797 45 LINE",
"789 53 LINE",
"840 293 LINE SMOOTH",
"856 370 OFFCURVE",
"821 450 OFFCURVE",
"721 450 CURVE SMOOTH",
"662 450 OFFCURVE",
"628 411 OFFCURVE",
"609 382 CURVE",
"652 600 LINE",
"40 600 LINE",
"86 497 LINE",
"105 497 LINE",
"105 545 LINE",
"121 563 LINE",
"278 563 LINE",
"297 541 LINE",
"185 28 LINE",
"121 28 LINE",
"121 0 LINE",
"339 0 LINE",
"339 28 LINE",
"291 28 LINE",
"272 50 LINE",
"379 541 LINE",
"398 563 LINE",
"553 563 LINE",
"569 545 LINE",
"523 309 LINE",
"462 0 LINE",
"531 0 LINE",
"595 315 LINE",
"619 362 OFFCURVE",
"659 408 OFFCURVE",
"695 411 CURVE",
"750 411 OFFCURVE",
"779 355 OFFCURVE",
"761 264 CURVE SMOOTH",
"726 90 LINE SMOOTH",
"715 33 OFFCURVE",
"717 -10 OFFCURVE",
"763 -10 CURVE SMOOTH",
"781 -10 OFFCURVE",
"794 5 OFFCURVE",
"827 39 CURVE SMOOTH",
"901 117 LINE",
"865 117 LINE"
);
}
);
width = 916;
}
);
leftMetricsKey = T;
rightMetricsKey = h;
},
{
glyphname = U_B.liga;
lastChange = "2022-06-21 15:32:50 +0000";
layers = (
{
components = (
{
alignment = -1;
name = B;
transform = "{1, 0, 0, 1, 367, 0}";
}
);
layerId = "A0FA55D0-E595-4D47-A77D-3C8049EF6A20";
paths = (
{
closed = 1;
nodes = (
"466 -11 OFFCURVE",
"533 70 OFFCURVE",
"536 243 CURVE SMOOTH",
"538 357 OFFCURVE",
"537 453 OFFCURVE",
"536 539 CURVE SMOOTH",
"536 550 LINE",
"555 572 LINE",
"603 572 LINE",
"603 600 LINE",
"459 572 LINE",
"478 550 LINE",
"478 538 LINE SMOOTH",
"477 477 OFFCURVE",
"477 396 OFFCURVE",
"478 229 CURVE SMOOTH",
"479 88 OFFCURVE",
"413 39 OFFCURVE",
"329 38 CURVE SMOOTH",
"235 37 OFFCURVE",
"169 79 OFFCURVE",
"169 218 CURVE SMOOTH",
"169 550 LINE",
"188 572 LINE",
"236 572 LINE",
"236 600 LINE",
"10 600 LINE",
"10 572 LINE",
"60 572 LINE",
"79 550 LINE",
"79 226 LINE SMOOTH",
"79 43 OFFCURVE",
"176 -9 OFFCURVE",
"310 -10 CURVE SMOOTH"
);
}
);
width = 888;
},
{
associatedMasterId = "715E6458-225A-4B30-851F-23A0A4A3DE49";
components = (
{
name = B;
transform = "{1, 0, 0, 1, 337, 0}";
}
);
layerId = "2D9FEA09-A1CA-44A3-93A5-C194ED1CD1DC";
name = "Dec 2 20, 09:59";
paths = (
{
closed = 1;
nodes = (
"445 572 LINE",
"495 572 LINE",
"514 550 LINE",
"444 229 LINE SMOOTH",
"413 88 OFFCURVE",
"349 39 OFFCURVE",
"265 38 CURVE SMOOTH",
"171 37 OFFCURVE",
"110 81 OFFCURVE",
"135 198 CURVE SMOOTH",
"211 550 LINE",
"230 572 LINE",
"278 572 LINE",
"278 600 LINE",
"131 600 LINE",
"121 550 LINE",
"45 206 LINE SMOOTH",
"9 45 OFFCURVE",
"112 -9 OFFCURVE",
"246 -10 CURVE SMOOTH",
"402 -11 OFFCURVE",
"466 70 OFFCURVE",
"504 243 CURVE SMOOTH",
"572 550 LINE",
"591 572 LINE",
"639 572 LINE",
"639 600 LINE",
"445 600 LINE"
);
}
);
width = 1110;
},
{
layerId = "715E6458-225A-4B30-851F-23A0A4A3DE49";
paths = (
{
closed = 1;
nodes = (
"874 547 OFFCURVE",
"817 600 OFFCURVE",
"732 600 CURVE SMOOTH",
"447 600 LINE",
"447 572 LINE",
"497 572 LINE",
"516 550 LINE",
"446 229 LINE SMOOTH",
"415 88 OFFCURVE",
"351 39 OFFCURVE",
"267 38 CURVE SMOOTH",
"173 37 OFFCURVE",
"112 81 OFFCURVE",
"137 198 CURVE SMOOTH",
"213 550 LINE",
"232 572 LINE",
"280 572 LINE",
"280 600 LINE",
"133 600 LINE",
"123 550 LINE",
"47 206 LINE SMOOTH",
"11 45 OFFCURVE",
"114 -9 OFFCURVE",
"248 -10 CURVE SMOOTH",
"361 -10 OFFCURVE",
"406 27 OFFCURVE",
"449 95 CURVE",
"427 0 LINE",
"600 0 LINE SMOOTH",
"733 0 OFFCURVE",
"809 27 OFFCURVE",
"829 173 CURVE SMOOTH",
"837 235 OFFCURVE",
"817 318 OFFCURVE",
"699 330 CURVE",
"791 342 OFFCURVE",
"843 369 OFFCURVE",
"861 471 CURVE SMOOTH"
);
},
{
closed = 1;
nodes = (
"776 393 OFFCURVE",
"702 345 OFFCURVE",
"642 345 CURVE SMOOTH",
"575 345 LINE",
"556 367 LINE",
"595 550 LINE",
"624 572 LINE",
"699 572 LINE SMOOTH",
"743 572 OFFCURVE",
"796 530 OFFCURVE",
"787 469 CURVE SMOOTH"
);
},
{
closed = 1;
nodes = (
"732 101 OFFCURVE",
"686 28 OFFCURVE",
"607 28 CURVE SMOOTH",
"513 28 LINE",
"484 50 LINE",
"540 292 LINE",
"569 314 LINE",
"644 314 LINE SMOOTH",
"723 314 OFFCURVE",
"754 234 OFFCURVE",
"743 168 CURVE SMOOTH"
);
}
);
width = 883;
}
);
leftMetricsKey = U;
rightMetricsKey = B;
},
{
glyphname = U_D.liga;
lastChange = "2022-06-21 15:32:50 +0000";
layers = (
{
components = (
{
name = D;
transform = "{1, 0, 0, 1, 381, -1}";
}
);
layerId = "A0FA55D0-E595-4D47-A77D-3C8049EF6A20";
paths = (
{
closed = 1;
nodes = (
"466 -11 OFFCURVE",
"533 70 OFFCURVE",
"536 243 CURVE SMOOTH",
"538 357 OFFCURVE",
"537 453 OFFCURVE",
"536 539 CURVE",
"478 538 LINE",
"477 477 OFFCURVE",
"477 396 OFFCURVE",
"478 229 CURVE SMOOTH",
"479 88 OFFCURVE",
"413 39 OFFCURVE",
"329 38 CURVE SMOOTH",
"235 37 OFFCURVE",
"169 79 OFFCURVE",
"169 218 CURVE SMOOTH",
"169 560 LINE",
"188 582 LINE",
"236 582 LINE",
"236 610 LINE",
"10 610 LINE",
"10 582 LINE",
"60 582 LINE",
"79 560 LINE",
"79 226 LINE SMOOTH",
"79 43 OFFCURVE",
"176 -9 OFFCURVE",
"310 -10 CURVE SMOOTH"
);
}
);
width = 955;
},
{
layerId = "715E6458-225A-4B30-851F-23A0A4A3DE49";
paths = (
{
closed = 1;
nodes = (
"447 608 LINE",
"447 580 LINE",
"497 580 LINE",
"516 558 LINE",
"446 229 LINE SMOOTH",
"416 88 OFFCURVE",
"351 39 OFFCURVE",
"267 38 CURVE SMOOTH",
"173 37 OFFCURVE",
"112 81 OFFCURVE",
"137 198 CURVE SMOOTH",
"213 550 LINE",
"232 572 LINE",
"280 572 LINE",
"280 600 LINE",
"133 600 LINE",
"123 550 LINE",
"47 206 LINE SMOOTH",
"11 45 OFFCURVE",
"114 -9 OFFCURVE",
"248 -10 CURVE SMOOTH",
"359 -11 OFFCURVE",
"424 30 OFFCURVE",
"466 117 CURVE",
"439 0 LINE",
"602 0 LINE SMOOTH",
"744 0 OFFCURVE",
"899 105 OFFCURVE",
"929 306 CURVE SMOOTH",
"960 512 OFFCURVE",
"860 608 OFFCURVE",
"717 608 CURVE SMOOTH"
);
},
{
closed = 1;
nodes = (
"813 118 OFFCURVE",
"673 28 OFFCURVE",
"600 28 CURVE SMOOTH",
"514 28 LINE",
"495 50 LINE",
"600 558 LINE",
"619 580 LINE",
"715 580 LINE SMOOTH",
"788 580 OFFCURVE",
"878 508 OFFCURVE",
"843 298 CURVE SMOOTH"
);
}
);
width = 955;
}
);
leftMetricsKey = U;
},
{
glyphname = U_P.liga;
lastChange = "2022-06-21 15:32:50 +0000";
layers = (
{
components = (
{
name = U;
}
);
layerId = "A0FA55D0-E595-4D47-A77D-3C8049EF6A20";
paths = (
{
closed = 1;
nodes = (
"618 0 LINE",
"618 28 LINE",
"569 28 LINE",
"550 50 LINE",
"550 292 LINE",
"569 314 LINE",
"628 314 LINE SMOOTH",
"745 314 OFFCURVE",
"831 367 OFFCURVE",
"831 471 CURVE SMOOTH",
"831 573 OFFCURVE",
"745 600 OFFCURVE",
"628 600 CURVE SMOOTH",
"398 600 LINE",
"398 572 LINE",
"448 572 LINE",
"467 550 LINE",
"467 50 LINE",
"448 28 LINE",
"398 28 LINE",
"398 0 LINE"
);
},
{
closed = 1;
nodes = (
"550 550 LINE",
"569 572 LINE",
"649 572 LINE SMOOTH",
"713 572 OFFCURVE",
"747 531 OFFCURVE",
"747 469 CURVE SMOOTH",
"747 409 OFFCURVE",
"716 345 OFFCURVE",
"656 345 CURVE SMOOTH",
"569 345 LINE",
"550 367 LINE"
);
}
);
width = 871;
},
{
layerId = "715E6458-225A-4B30-851F-23A0A4A3DE49";
paths = (
{
closed = 1;
nodes = (
"447 600 LINE",
"447 572 LINE",
"497 572 LINE",
"516 550 LINE",
"446 229 LINE SMOOTH",
"415 88 OFFCURVE",
"351 39 OFFCURVE",
"267 38 CURVE SMOOTH",
"173 37 OFFCURVE",
"112 81 OFFCURVE",
"137 198 CURVE SMOOTH",
"213 550 LINE",
"232 572 LINE",
"280 572 LINE",
"280 600 LINE",
"133 600 LINE",
"123 550 LINE",
"47 206 LINE SMOOTH",
"11 45 OFFCURVE",
"114 -9 OFFCURVE",
"248 -10 CURVE SMOOTH",
"404 -11 OFFCURVE",
"468 70 OFFCURVE",
"506 243 CURVE SMOOTH",
"517 293 LINE",
"545 314 LINE",
"647 314 OFFCURVE",
"720 321 OFFCURVE",
"768 353 CURVE SMOOTH",
"804 377 OFFCURVE",
"827 413 OFFCURVE",
"837 471 CURVE SMOOTH",
"852 557 OFFCURVE",
"799 600 OFFCURVE",
"708 600 CURVE SMOOTH"
);
},
{
closed = 1;
nodes = (
"758 436 OFFCURVE",
"741 408 OFFCURVE",
"719 387 CURVE SMOOTH",
"690 360 OFFCURVE",
"652 345 OFFCURVE",
"618 345 CURVE SMOOTH",
"551 345 LINE",
"533 366 LINE",
"574 550 LINE",
"600 572 LINE",
"675 572 LINE SMOOTH",
"719 572 OFFCURVE",
"772 530 OFFCURVE",
"763 469 CURVE SMOOTH"
);
}
);
width = 820;
}
);
leftMetricsKey = U;
rightMetricsKey = P;
},
{
glyphname = V_A.liga;
lastChange = "2022-06-21 15:32:50 +0000";
layers = (
{
components = (
{
name = V;
}
);
layerId = "A0FA55D0-E595-4D47-A77D-3C8049EF6A20";
paths = (
{
closed = 1;
nodes = (
"306 51 LINE",
"373 243 LINE",
"388 255 LINE",
"555 255 LINE",
"572 242 LINE",
"638 51 LINE",
"619 28 LINE",
"571 28 LINE",
"571 0 LINE",
"790 0 LINE",
"790 28 LINE",
"740 28 LINE",
"733 48 LINE",
"538 600 LINE",
"392 600 LINE",
"392 572 LINE",
"442 572 LINE",
"260 50 LINE",
"259 50 LINE",
"251 28 LINE",
"201 28 LINE",
"201 0 LINE"
);
},
{
closed = 1;
nodes = (
"473 532 LINE",
"555 293 LINE",
"548 279 LINE",
"398 279 LINE",
"391 293 LINE"
);
}
);
width = 850;
},
{
components = (
{
name = V;
}
);
layerId = "715E6458-225A-4B30-851F-23A0A4A3DE49";
paths = (
{
closed = 1;
nodes = (
"546 48 LINE",
"546 600 LINE",
"460 600 LINE",
"141 28 LINE",
"88 28 LINE",
"88 0 LINE",
"201 51 LINE",
"310 242 LINE",
"310 243 LINE",
"335 255 LINE",
"454 255 LINE",
"471 242 LINE",
"471 51 LINE",
"452 28 LINE",
"404 28 LINE",
"404 0 LINE",
"603 0 LINE",
"603 28 LINE",
"553 28 LINE"
);
},
{
closed = 1;
nodes = (
"345 279 LINE",
"338 293 LINE",
"338 294 LINE",
"471 532 LINE",
"471 292 LINE",
"455 279 LINE"
);
}
);
width = 653;
}
);
leftMetricsKey = V;
rightKerningGroup = A;
rightMetricsKey = A;
},
{
glyphname = W_A.liga;
lastChange = "2022-06-21 15:32:50 +0000";
layers = (
{
layerId = "A0FA55D0-E595-4D47-A77D-3C8049EF6A20";
paths = (
{
closed = 1;
nodes = (
"266 0 LINE",
"396 472 LINE",
"585 0 LINE",
"631 0 LINE",
"682 235 LINE",
"685 243 LINE",
"694 255 LINE",
"830 255 LINE",
"847 242 LINE",
"913 51 LINE",
"894 28 LINE",
"846 28 LINE",
"846 0 LINE",
"1065 0 LINE",
"1065 28 LINE",
"1015 28 LINE",
"1008 48 LINE",
"813 600 LINE",
"639 600 LINE",
"639 572 LINE",
"687 572 LINE",
"706 550 LINE",
"618 135 LINE",
"440 600 LINE",
"385 600 LINE",
"247 92 LINE",
"103 600 LINE",
"20 600 LINE",
"190 0 LINE"
);
},
{
closed = 1;
nodes = (
"744 523 LINE",
"748 532 LINE",
"830 293 LINE",
"823 279 LINE",
"704 279 LINE",
"697 294 LINE",
"696 301 LINE"
);
}
);
width = 1125;
},
{
layerId = "715E6458-225A-4B30-851F-23A0A4A3DE49";
paths = (
{
closed = 1;
nodes = (
"825 48 LINE",
"825 600 LINE",
"643 600 LINE",
"643 572 LINE",
"691 572 LINE",
"710 550 LINE",
"710 549 LINE",
"442 68 LINE",
"442 600 LINE",
"367 600 LINE",
"367 418 LINE",
"172 68 LINE",
"172 549 LINE",
"191 572 LINE",
"239 572 LINE",
"239 600 LINE",
"40 600 LINE",
"40 572 LINE",
"90 572 LINE",
"97 552 LINE",
"97 0 LINE",
"183 0 LINE",
"367 330 LINE",
"367 0 LINE",
"453 0 LINE",
"589 242 LINE",
"589 243 LINE",
"614 255 LINE",
"733 255 LINE",
"750 242 LINE",
"750 51 LINE",
"731 28 LINE",
"683 28 LINE",
"683 0 LINE",
"882 0 LINE",
"882 28 LINE",
"832 28 LINE"
);
},
{
closed = 1;
nodes = (
"734 279 LINE",
"624 279 LINE",
"617 293 LINE",
"617 294 LINE",
"750 532 LINE",
"750 292 LINE"
);
}
);
width = 932;
}
);
leftMetricsKey = W;
rightMetricsKey = A;
},
{
glyphname = E_Eacute.001;
lastChange = "2022-06-21 15:32:50 +0000";
layers = (
{
components = (
{
name = acutecomb;
transform = "{1, 0, 0, 1, 210, 0}";
}
);
layerId = "A0FA55D0-E595-4D47-A77D-3C8049EF6A20";
paths = (
{
closed = 1;
nodes = (
"441 0 LINE",
"441 105 LINE",
"413 105 LINE",
"413 57 LINE",
"391 38 LINE",
"191 38 LINE",
"172 60 LINE",
"172 289 LINE",
"191 311 LINE",
"340 311 LINE",
"362 292 LINE",
"362 262 LINE",
"390 262 LINE",
"390 394 LINE",
"362 394 LINE",
"362 366 LINE",
"340 347 LINE",
"191 347 LINE",
"172 369 LINE",
"172 600 LINE",
"89 599 LINE",
"89 50 LINE",
"70 28 LINE",
"20 28 LINE",
"20 0 LINE"
);
}
);
width = 471;
},
{
components = (
{
name = acute;
transform = "{1, 0, 0, 1, 284, 0}";
}
);
layerId = "715E6458-225A-4B30-851F-23A0A4A3DE49";
paths = (
{
closed = 1;
nodes = (
"356 57 LINE",
"334 38 LINE",
"160 38 LINE",
"131 60 LINE",
"179 289 LINE",
"208 311 LINE",
"367 311 LINE",
"389 292 LINE",
"389 262 LINE",
"417 262 LINE",
"444 394 LINE",
"416 394 LINE",
"407 366 LINE",
"385 347 LINE",
"216 347 LINE",
"197 369 LINE",
"244 600 LINE",
"163 600 LINE",
"45 28 LINE",
"-20 28 LINE",
"-20 0 LINE",
"372 0 LINE",
"394 105 LINE",
"366 105 LINE"
);
}
);
width = 452;
}
);
leftMetricsKey = E;
rightMetricsKey = E;
},
{
glyphname = E_Egrave.001;
lastChange = "2022-06-21 15:32:50 +0000";
layers = (
{
components = (
{
name = acutecomb;
transform = "{-1, 0, 0, 1, 406, 0}";
}
);
layerId = "A0FA55D0-E595-4D47-A77D-3C8049EF6A20";
paths = (
{
closed = 1;
nodes = (
"441 0 LINE",
"441 105 LINE",
"413 105 LINE",
"413 57 LINE",
"391 38 LINE",
"191 38 LINE",
"172 60 LINE",
"172 289 LINE",
"191 311 LINE",
"340 311 LINE",
"362 292 LINE",
"362 262 LINE",
"390 262 LINE",
"390 394 LINE",
"362 394 LINE",
"362 366 LINE",
"340 347 LINE",
"191 347 LINE",
"172 369 LINE",
"172 600 LINE",
"89 599 LINE",
"89 50 LINE",
"70 28 LINE",
"20 28 LINE",
"20 0 LINE"
);
}
);
width = 471;
},
{
components = (
{
alignment = -1;
name = acute;
transform = "{-1, 0, 0, 1, 480, 0}";
}
);
layerId = "715E6458-225A-4B30-851F-23A0A4A3DE49";
paths = (
{
closed = 1;
nodes = (
"356 57 LINE",
"334 38 LINE",
"160 38 LINE",
"131 60 LINE",
"179 289 LINE",
"208 311 LINE",
"367 311 LINE",
"389 292 LINE",
"389 262 LINE",
"417 262 LINE",
"444 394 LINE",
"416 394 LINE",
"407 366 LINE",
"385 347 LINE",
"216 347 LINE",
"197 369 LINE",
"244 600 LINE",
"163 600 LINE",
"45 28 LINE",
"-20 28 LINE",
"-20 0 LINE",
"372 0 LINE",
"394 105 LINE",
"366 105 LINE"
);
}
);
width = 455;
}
);
leftMetricsKey = E;
rightMetricsKey = E;
},
{
glyphname = a;
lastChange = "2022-06-21 15:32:50 +0000";
layers = (
{
background = {
paths = (
{
closed = 1;
nodes = (
"275 -10 OFFCURVE",
"311 20 OFFCURVE",
"338 78 CURVE",
"338 0 LINE",
"492 56 LINE",
"492 79 LINE",
"433 79 LINE",
"411 98 LINE",
"411 440 LINE",
"389 440 LINE",
"357 407 LINE",
"327 435 OFFCURVE",
"283 450 OFFCURVE",
"229 450 CURVE SMOOTH",
"110 450 OFFCURVE",
"30 359 OFFCURVE",
"30 226 CURVE SMOOTH",
"30 86 OFFCURVE",
"107 -10 OFFCURVE",
"222 -10 CURVE SMOOTH"
);
},
{
closed = 1;
nodes = (
"161 26 OFFCURVE",
"115 105 OFFCURVE",
"115 226 CURVE SMOOTH",
"115 343 OFFCURVE",
"157 424 OFFCURVE",
"239 424 CURVE SMOOTH",
"297 424 OFFCURVE",
"335 386 OFFCURVE",
"336 331 CURVE SMOOTH",
"338 148 LINE",
"338 129 LINE",
"320 87 OFFCURVE",
"302 60 OFFCURVE",
"282 45 CURVE SMOOTH",
"264 33 OFFCURVE",
"245 26 OFFCURVE",
"229 26 CURVE SMOOTH"
);
}
);
};
guideLines = (
{
position = "{229, 440}";
}
);
layerId = "A0FA55D0-E595-4D47-A77D-3C8049EF6A20";
paths = (
{
closed = 1;
nodes = (
"275 -10 OFFCURVE",
"311 25 OFFCURVE",
"338 83 CURVE",
"360 83 LINE",
"360 0 LINE",
"411 0 LINE",
"411 440 LINE",
"389 440 LINE",
"357 407 LINE",
"327 435 OFFCURVE",
"283 450 OFFCURVE",
"229 450 CURVE SMOOTH",
"110 450 OFFCURVE",
"30 359 OFFCURVE",
"30 226 CURVE SMOOTH",
"30 86 OFFCURVE",
"107 -10 OFFCURVE",
"222 -10 CURVE SMOOTH"
);
},
{
closed = 1;
nodes = (
"115 343 OFFCURVE",
"157 424 OFFCURVE",
"239 424 CURVE SMOOTH",
"297 424 OFFCURVE",
"335 386 OFFCURVE",
"336 331 CURVE SMOOTH",
"338 148 LINE",
"338 129 LINE",
"320 87 OFFCURVE",
"302 60 OFFCURVE",
"282 45 CURVE SMOOTH",
"264 33 OFFCURVE",
"245 26 OFFCURVE",
"229 26 CURVE SMOOTH",
"161 26 OFFCURVE",
"115 105 OFFCURVE",
"115 226 CURVE SMOOTH"
);
}
);
width = 481;
},
{
associatedMasterId = "A0FA55D0-E595-4D47-A77D-3C8049EF6A20";
background = {
paths = (
{
closed = 1;
nodes = (
"253 -10 OFFCURVE",
"289 20 OFFCURVE",
"316 78 CURVE",
"316 0 LINE",
"470 56 LINE",
"470 79 LINE",
"411 79 LINE",
"389 98 LINE",
"389 440 LINE",
"367 440 LINE",
"335 407 LINE",
"305 435 OFFCURVE",
"261 450 OFFCURVE",
"207 450 CURVE SMOOTH",
"88 450 OFFCURVE",
"8 359 OFFCURVE",
"8 226 CURVE SMOOTH",
"8 86 OFFCURVE",
"85 -10 OFFCURVE",
"200 -10 CURVE SMOOTH"
);
},
{
closed = 1;
nodes = (
"139 26 OFFCURVE",
"93 105 OFFCURVE",
"93 226 CURVE SMOOTH",
"93 343 OFFCURVE",
"135 424 OFFCURVE",
"217 424 CURVE SMOOTH",
"275 424 OFFCURVE",
"313 386 OFFCURVE",
"314 331 CURVE SMOOTH",
"316 148 LINE",
"316 129 LINE",
"298 87 OFFCURVE",
"280 60 OFFCURVE",
"260 45 CURVE SMOOTH",
"242 33 OFFCURVE",
"223 26 OFFCURVE",
"207 26 CURVE SMOOTH"
);
}
);
};
guideLines = (
{
position = "{207, 440}";
}
);
layerId = "E1685CBE-1E55-4E9D-8470-86F8343BCB7A";
name = "Nov 27 20, 11:46";
paths = (
{
closed = 1;
nodes = (
"388 45 LINE",
"380 53 LINE",
"420 248 LINE",
"459 440 LINE",
"437 440 LINE",
"405 387 LINE",
"394 416 OFFCURVE",
"354 450 OFFCURVE",
"290 450 CURVE SMOOTH",
"161 450 OFFCURVE",
"69 364 OFFCURVE",
"40 247 CURVE SMOOTH",
"9 122 OFFCURVE",
"45 -10 OFFCURVE",
"170 -10 CURVE SMOOTH",
"223 -10 OFFCURVE",
"268 24 OFFCURVE",
"315 82 CURVE",
"305 29 OFFCURVE",
"310 -10 OFFCURVE",
"354 -10 CURVE SMOOTH",
"372 -10 OFFCURVE",
"386 4 OFFCURVE",
"418 39 CURVE SMOOTH",
"489 117 LINE",
"456 117 LINE"
);
},
{
closed = 1;
nodes = (
"237 26 OFFCURVE",
"177 26 CURVE SMOOTH",
"109 26 OFFCURVE",
"98 119 OFFCURVE",
"125 237 CURVE SMOOTH",
"152 354 OFFCURVE",
"218 424 OFFCURVE",
"300 424 CURVE SMOOTH",
"348 424 OFFCURVE",
"378 385 OFFCURVE",
"367 331 CURVE SMOOTH",
"350 248 LINE",
"326 135 LINE",
"275 67 OFFCURVE"
);
}
);
width = 507;
},
{
layerId = "715E6458-225A-4B30-851F-23A0A4A3DE49";
paths = (
{
closed = 1;
nodes = (
"388 45 LINE",
"380 53 LINE",
"420 248 LINE",
"459 440 LINE",
"437 440 LINE",
"405 387 LINE",
"394 416 OFFCURVE",
"354 450 OFFCURVE",
"290 450 CURVE SMOOTH",
"161 450 OFFCURVE",
"69 364 OFFCURVE",
"40 247 CURVE SMOOTH",
"9 122 OFFCURVE",
"45 -10 OFFCURVE",
"170 -10 CURVE SMOOTH",
"223 -10 OFFCURVE",
"268 24 OFFCURVE",
"315 82 CURVE",
"305 29 OFFCURVE",
"310 -10 OFFCURVE",
"354 -10 CURVE SMOOTH",
"372 -10 OFFCURVE",
"386 4 OFFCURVE",
"418 39 CURVE SMOOTH",
"489 117 LINE",
"456 117 LINE"
);
},
{
closed = 1;
nodes = (
"237 26 OFFCURVE",
"177 26 CURVE SMOOTH",
"109 26 OFFCURVE",
"98 119 OFFCURVE",
"125 237 CURVE SMOOTH",
"152 354 OFFCURVE",
"218 424 OFFCURVE",
"300 424 CURVE SMOOTH",
"348 424 OFFCURVE",
"378 385 OFFCURVE",
"367 331 CURVE SMOOTH",
"350 248 LINE",
"326 135 LINE",
"275 67 OFFCURVE"
);
}
);
width = 504;
}
);
leftKerningGroup = lowercase_vowel;
leftMetricsKey = a;
unicode = 0061;
},
{
glyphname = ae;
lastChange = "2022-06-21 15:32:50 +0000";
layers = (
{
background = {
components = (
{
name = e;
transform = "{1, 0, 0, 1, 311, 0}";
}
);
paths = (
{
closed = 1;
nodes = (
"318 -10 OFFCURVE",
"390 92 OFFCURVE",
"390 222 CURVE SMOOTH",
"390 224 LINE SMOOTH",
"390 353 OFFCURVE",
"308 450 OFFCURVE",
"189 450 CURVE SMOOTH",
"139 450 OFFCURVE",
"69 426 OFFCURVE",
"52 386 CURVE SMOOTH",
"38 353 OFFCURVE",
"50 319 OFFCURVE",
"76 308 CURVE SMOOTH",
"97 299 OFFCURVE",
"120 310 OFFCURVE",
"131 330 CURVE SMOOTH",
"136 339 OFFCURVE",
"139 351 OFFCURVE",
"133 370 CURVE",
"129 406 OFFCURVE",
"151 425 OFFCURVE",
"189 425 CURVE SMOOTH",
"268 425 OFFCURVE",
"293 350 OFFCURVE",
"301 253 CURVE",
"115 254 OFFCURVE",
"41 192 OFFCURVE",
"41 117 CURVE SMOOTH",
"41 42 OFFCURVE",
"89 -6 OFFCURVE",
"189 -10 CURVE SMOOTH"
);
},
{
closed = 1;
nodes = (
"146 29 OFFCURVE",
"120 56 OFFCURVE",
"120 107 CURVE SMOOTH",
"120 173 OFFCURVE",
"149 228 OFFCURVE",
"302 227 CURVE",
"302 105 OFFCURVE",
"258 29 OFFCURVE",
"189 29 CURVE SMOOTH"
);
}
);
};
components = (
{
name = e;
transform = "{1, 0, 0, 1, 272, 0}";
}
);
layerId = "A0FA55D0-E595-4D47-A77D-3C8049EF6A20";
paths = (
{
closed = 1;
nodes = (
"302 -10 OFFCURVE",
"384 73 OFFCURVE",
"390 222 CURVE",
"368 375 OFFCURVE",
"315 450 OFFCURVE",
"196 450 CURVE SMOOTH",
"189 450 LINE SMOOTH",
"139 450 OFFCURVE",
"69 426 OFFCURVE",
"52 386 CURVE SMOOTH",
"38 353 OFFCURVE",
"50 319 OFFCURVE",
"76 308 CURVE SMOOTH",
"97 299 OFFCURVE",
"120 310 OFFCURVE",
"131 330 CURVE SMOOTH",
"136 339 OFFCURVE",
"139 351 OFFCURVE",
"133 370 CURVE",
"129 406 OFFCURVE",
"151 425 OFFCURVE",
"189 425 CURVE SMOOTH",
"197 425 LINE SMOOTH",
"269 425 OFFCURVE",
"284 368 OFFCURVE",
"301 283 CURVE",
"175 274 OFFCURVE",
"41 232 OFFCURVE",
"31 127 CURVE SMOOTH",
"23 38 OFFCURVE",
"69 -10 OFFCURVE",
"189 -10 CURVE SMOOTH"
);
},
{
closed = 1;
nodes = (
"110 203 OFFCURVE",
"209 252 OFFCURVE",
"302 251 CURVE",
"302 213 LINE SMOOTH",
"302 93 OFFCURVE",
"245 19 OFFCURVE",
"189 19 CURVE SMOOTH",
"121 19 OFFCURVE",
"110 66 OFFCURVE",
"110 107 CURVE SMOOTH"
);
}
);
width = 725;
},
{
layerId = "715E6458-225A-4B30-851F-23A0A4A3DE49";
paths = (
{
closed = 1;
nodes = (
"390 215 OFFCURVE",
"392 226 OFFCURVE",
"395 237 CURVE SMOOTH",
"401 260 LINE",
"748 260 LINE",
"748 291 LINE",
"711 291 LINE",
"702 379 OFFCURVE",
"647 451 OFFCURVE",
"554 451 CURVE SMOOTH",
"537 451 OFFCURVE",
"520 449 OFFCURVE",
"503 446 CURVE",
"456 436 OFFCURVE",
"415 411 OFFCURVE",
"382 356 CURVE",
"359 414 OFFCURVE",
"313 450 OFFCURVE",
"246 450 CURVE SMOOTH",
"184 450 OFFCURVE",
"118 425 OFFCURVE",
"102 386 CURVE SMOOTH",
"88 353 OFFCURVE",
"100 319 OFFCURVE",
"126 308 CURVE SMOOTH",
"147 299 OFFCURVE",
"170 310 OFFCURVE",
"181 330 CURVE SMOOTH",
"186 339 OFFCURVE",
"189 351 OFFCURVE",
"183 370 CURVE",
"179 408 OFFCURVE",
"200 425 OFFCURVE",
"247 425 CURVE SMOOTH",
"319 425 OFFCURVE",
"332 367 OFFCURVE",
"321 283 CURVE",
"195 274 OFFCURVE",
"41 232 OFFCURVE",
"31 127 CURVE SMOOTH",
"23 38 OFFCURVE",
"69 -10 OFFCURVE",
"189 -10 CURVE SMOOTH",
"249 -10 OFFCURVE",
"300 13 OFFCURVE",
"335 57 CURVE",
"362 16 OFFCURVE",
"404 -10 OFFCURVE",
"460 -10 CURVE SMOOTH",
"528 -10 OFFCURVE",
"588 18 OFFCURVE",
"642 129 CURVE",
"602 129 LINE",
"571 72 OFFCURVE",
"530 16 OFFCURVE",
"467 16 CURVE SMOOTH",
"410 16 OFFCURVE",
"379 89 OFFCURVE",
"386 183 CURVE",
"389 204 LINE"
);
},
{
closed = 1;
nodes = (
"519 427 OFFCURVE",
"532 429 OFFCURVE",
"547 429 CURVE SMOOTH",
"598 429 OFFCURVE",
"628 370 OFFCURVE",
"629 291 CURVE",
"410 291 LINE",
"431 356 OFFCURVE",
"461 404 OFFCURVE",
"507 422 CURVE SMOOTH"
);
},
{
closed = 1;
nodes = (
"121 10 OFFCURVE",
"110 66 OFFCURVE",
"110 107 CURVE SMOOTH",
"110 203 OFFCURVE",
"226 252 OFFCURVE",
"319 251 CURVE",
"312 138 OFFCURVE",
"277 10 OFFCURVE",
"189 10 CURVE SMOOTH"
);
}
);
width = 763;
}
);
leftKerningGroup = lowercase_vowel;
leftMetricsKey = o;
rightMetricsKey = n;
unicode = 00E6;
},
{
glyphname = b;
lastChange = "2022-06-21 15:32:50 +0000";
layers = (
{
background = {
components = (
{
name = empattement_haut_gauche;
transform = "{1, 0, 0, 1, -20, 0}";
}
);
paths = (
{
closed = 1;
nodes = (
"392 -10 OFFCURVE",
"462 83 OFFCURVE",
"462 216 CURVE SMOOTH",
"462 348 OFFCURVE",
"395 450 OFFCURVE",
"273 450 CURVE SMOOTH",
"219 450 OFFCURVE",
"191 423 OFFCURVE",
"154 384 CURVE",
"154 508 LINE",
"81 508 LINE",
"82 0 LINE",
"115 0 LINE",
"125 58 LINE",
"146 58 LINE",
"170 14 OFFCURVE",
"220 -10 OFFCURVE",
"273 -10 CURVE SMOOTH"
);
},
{
closed = 1;
nodes = (
"245 25 OFFCURVE",
"199 21 OFFCURVE",
"156 119 CURVE",
"154 313 LINE",
"178 384 OFFCURVE",
"218 416 OFFCURVE",
"273 416 CURVE SMOOTH",
"350 416 OFFCURVE",
"377 318 OFFCURVE",
"377 216 CURVE SMOOTH",
"377 99 OFFCURVE",
"335 28 OFFCURVE",
"273 26 CURVE SMOOTH"
);
}
);
};
components = (
{
name = empattement_haut_gauche;
transform = "{1, 0, 0, 1, -20, 0}";
}
);
guideLines = (
{
position = "{4, 799}";
},
{
position = "{69, 585}";
}
);
layerId = "A0FA55D0-E595-4D47-A77D-3C8049EF6A20";
paths = (
{
closed = 1;
nodes = (
"392 -10 OFFCURVE",
"462 83 OFFCURVE",
"462 216 CURVE SMOOTH",
"462 348 OFFCURVE",
"395 450 OFFCURVE",
"273 450 CURVE SMOOTH",
"219 450 OFFCURVE",
"191 423 OFFCURVE",
"154 384 CURVE",
"154 508 LINE",
"81 508 LINE",
"82 0 LINE",
"125 0 LINE",
"125 83 LINE",
"146 83 LINE",
"170 14 OFFCURVE",
"220 -10 OFFCURVE",
"273 -10 CURVE SMOOTH"
);
},
{
closed = 1;
nodes = (
"178 384 OFFCURVE",
"218 416 OFFCURVE",
"273 416 CURVE SMOOTH",
"350 416 OFFCURVE",
"377 318 OFFCURVE",
"377 216 CURVE SMOOTH",
"377 99 OFFCURVE",
"335 28 OFFCURVE",
"273 26 CURVE SMOOTH",
"245 25 OFFCURVE",
"199 21 OFFCURVE",
"156 119 CURVE",
"154 313 LINE"
);
}
);
width = 492;
},
{
associatedMasterId = "A0FA55D0-E595-4D47-A77D-3C8049EF6A20";
components = (
{
name = empattement_haut_gauche;
transform = "{1, 0, 0, 1, -20, 0}";
}
);
guideLines = (
{
position = "{6, 799}";
},
{
position = "{71, 585}";
}
);
layerId = "357F1BE1-8EC0-4863-8A3B-0280DC6B0220";
name = "Apr 14 20, 16:06";
paths = (
{
closed = 1;
nodes = (
"81 531 LINE",
"81 213 LINE SMOOTH",
"81 43 OFFCURVE",
"172 -10 OFFCURVE",
"280 -10 CURVE SMOOTH",
"283 -10 LINE SMOOTH",
"413 -10 OFFCURVE",
"479 95 OFFCURVE",
"479 221 CURVE SMOOTH",
"479 355 OFFCURVE",
"395 450 OFFCURVE",
"283 450 CURVE SMOOTH",
"281 450 LINE SMOOTH",
"231 450 OFFCURVE",
"188 433 OFFCURVE",
"154 383 CURVE",
"154 541 LINE"
);
},
{
closed = 1;
nodes = (
"162 354 OFFCURVE",
"201 425 OFFCURVE",
"280 425 CURVE SMOOTH",
"281 425 LINE SMOOTH",
"355 425 OFFCURVE",
"393 351 OFFCURVE",
"393 213 CURVE SMOOTH",
"393 108 OFFCURVE",
"353 18 OFFCURVE",
"281 15 CURVE SMOOTH",
"207 12 OFFCURVE",
"162 102 OFFCURVE",
"162 217 CURVE SMOOTH"
);
}
);
width = 499;
},
{
layerId = "715E6458-225A-4B30-851F-23A0A4A3DE49";
paths = (
{
closed = 1;
nodes = (
"271 450 OFFCURVE",
"236 416 OFFCURVE",
"189 358 CURVE",
"238 600 LINE",
"86 600 LINE",
"86 572 LINE",
"136 572 LINE",
"155 547 LINE",
"84 192 LINE",
"45 0 LINE",
"67 0 LINE",
"99 53 LINE",
"110 24 OFFCURVE",
"150 -10 OFFCURVE",
"214 -10 CURVE SMOOTH",
"343 -10 OFFCURVE",
"435 76 OFFCURVE",
"464 193 CURVE SMOOTH",
"495 318 OFFCURVE",
"449 450 OFFCURVE",
"324 450 CURVE SMOOTH"
);
},
{
closed = 1;
nodes = (
"352 86 OFFCURVE",
"286 16 OFFCURVE",
"204 16 CURVE SMOOTH",
"156 16 OFFCURVE",
"126 55 OFFCURVE",
"137 109 CURVE SMOOTH",
"154 192 LINE",
"178 305 LINE",
"229 373 OFFCURVE",
"257 414 OFFCURVE",
"317 414 CURVE SMOOTH",
"385 414 OFFCURVE",
"406 321 OFFCURVE",
"379 203 CURVE SMOOTH"
);
}
);
width = 503;
}
);
unicode = 0062;
},
{
glyphname = c;
lastChange = "2024-06-12 15:14:18 +0000";
layers = (
{
annotations = (
{
position = "{308.015, 305.826}";
type = Text;
}
);
associatedMasterId = "A0FA55D0-E595-4D47-A77D-3C8049EF6A20";
layerId = "35BF4486-9420-4B5B-86B5-1EEE10FA2C01";
name = "Feb 11 20, 11:58";
paths = (
{
closed = 1;
nodes = (
"353 551 LINE",
"390 538 OFFCURVE",
"418 511 OFFCURVE",
"418 462 CURVE",
"410 423 OFFCURVE",
"386 426 OFFCURVE",
"386 393 CURVE SMOOTH",
"386 353 OFFCURVE",
"414 340 OFFCURVE",
"431 340 CURVE SMOOTH",
"492 340 OFFCURVE",
"500 382 OFFCURVE",
"488 459 CURVE",
"486 497 OFFCURVE",
"459 562 OFFCURVE",
"370 586 CURVE"
);
},
{
closed = 1;
nodes = (
"274 560 LINE",
"278 561 OFFCURVE",
"282 561 OFFCURVE",
"287 561 CURVE SMOOTH",
"310 561 OFFCURVE",
"333 558 OFFCURVE",
"353 551 CURVE",
"370 586 LINE",
"348 592 OFFCURVE",
"322 595 OFFCURVE",
"291 595 CURVE SMOOTH",
"285 595 OFFCURVE",
"279 595 OFFCURVE",
"274 594 CURVE"
);
},
{
closed = 1;
nodes = (
"274 594 LINE",
"126 586 OFFCURVE",
"20 468 OFFCURVE",
"20 295 CURVE SMOOTH",
"20 126 OFFCURVE",
"110 -10 OFFCURVE",
"281 -10 CURVE SMOOTH",
"455 -10 OFFCURVE",
"535 109 OFFCURVE",
"535 144 CURVE",
"449 144 LINE",
"420 95 OFFCURVE",
"402 35 OFFCURVE",
"287 35 CURVE SMOOTH",
"187 35 OFFCURVE",
"134 143 OFFCURVE",
"134 285 CURVE",
"144 461 OFFCURVE",
"182 552 OFFCURVE",
"274 560 CURVE"
);
}
);
width = 555;
},
{
background = {
paths = (
{
closed = 1;
nodes = (
"312 -10 OFFCURVE",
"386 62 OFFCURVE",
"397 143 CURVE",
"374 151 LINE",
"345 77 OFFCURVE",
"276 29 OFFCURVE",
"231 29 CURVE SMOOTH",
"161 29 OFFCURVE",
"109 110 OFFCURVE",
"119 260 CURVE SMOOTH",
"127 353 OFFCURVE",
"157 425 OFFCURVE",
"231 425 CURVE SMOOTH",
"269 425 OFFCURVE",
"291 406 OFFCURVE",
"287 370 CURVE",
"281 351 OFFCURVE",
"284 339 OFFCURVE",
"289 330 CURVE SMOOTH",
"300 310 OFFCURVE",
"323 299 OFFCURVE",
"344 308 CURVE SMOOTH",
"370 319 OFFCURVE",
"382 353 OFFCURVE",
"368 386 CURVE SMOOTH",
"351 426 OFFCURVE",
"281 450 OFFCURVE",
"231 450 CURVE SMOOTH",
"112 450 OFFCURVE",
"30 353 OFFCURVE",
"30 224 CURVE SMOOTH",
"30 92 OFFCURVE",
"107 -10 OFFCURVE",
"231 -10 CURVE SMOOTH"
);
}
);
};
layerId = "A0FA55D0-E595-4D47-A77D-3C8049EF6A20";
paths = (
{
closed = 1;
nodes = (
"246 -10 OFFCURVE",
"260 -8 OFFCURVE",
"274 -3 CURVE SMOOTH",
"337 16 OFFCURVE",
"388 77 OFFCURVE",
"397 143 CURVE",
"374 151 LINE",
"354 100 OFFCURVE",
"315 61 OFFCURVE",
"278 42 CURVE SMOOTH",
"261 34 OFFCURVE",
"245 29 OFFCURVE",
"231 29 CURVE SMOOTH",
"165 29 OFFCURVE",
"115 101 OFFCURVE",
"118 235 CURVE SMOOTH",
"118 243 OFFCURVE",
"118 251 OFFCURVE",
"119 260 CURVE SMOOTH",
"127 349 OFFCURVE",
"155 419 OFFCURVE",
"223 425 CURVE SMOOTH",
"231 425 LINE SMOOTH",
"269 425 OFFCURVE",
"291 406 OFFCURVE",
"287 370 CURVE",
"281 351 OFFCURVE",
"284 339 OFFCURVE",
"289 330 CURVE SMOOTH",
"300 310 OFFCURVE",
"323 299 OFFCURVE",
"344 308 CURVE SMOOTH",
"370 319 OFFCURVE",
"382 353 OFFCURVE",
"368 386 CURVE SMOOTH",
"351 426 OFFCURVE",
"281 450 OFFCURVE",
"231 450 CURVE SMOOTH",
"224 450 LINE SMOOTH",
"112 446 OFFCURVE",
"35 355 OFFCURVE",
"30 235 CURVE SMOOTH",
"30 224 LINE SMOOTH",
"30 92 OFFCURVE",
"107 -10 OFFCURVE",
"231 -10 CURVE SMOOTH"
);
}
);
width = 407;
},
{
associatedMasterId = "A0FA55D0-E595-4D47-A77D-3C8049EF6A20";
layerId = "CC27757F-346C-4778-A692-04A9FDD58C31";
name = "Apr 14 20, 14:14";
paths = (
{
closed = 1;
nodes = (
"40 92 OFFCURVE",
"108 -10 OFFCURVE",
"236 -10 CURVE SMOOTH",
"367 -10 OFFCURVE",
"427 79 OFFCURVE",
"427 106 CURVE",
"363 106 LINE",
"341 69 OFFCURVE",
"327 24 OFFCURVE",
"241 24 CURVE SMOOTH",
"166 24 OFFCURVE",
"126 105 OFFCURVE",
"126 212 CURVE SMOOTH",
"126 354 OFFCURVE",
"164 422 OFFCURVE",
"241 424 CURVE SMOOTH",
"290 425 OFFCURVE",
"339 406 OFFCURVE",
"339 335 CURVE",
"336 271 LINE",
"371 271 LINE",
"409 380 LINE",
"359 420 OFFCURVE",
"306 450 OFFCURVE",
"244 450 CURVE SMOOTH",
"118 450 OFFCURVE",
"40 355 OFFCURVE",
"40 219 CURVE SMOOTH"
);
}
);
width = 447;
},
{
layerId = "715E6458-225A-4B30-851F-23A0A4A3DE49";
paths = (
{
closed = 1;
nodes = (
"383 419 OFFCURVE",
"319 448 OFFCURVE",
"268 450 CURVE SMOOTH",
"149 455 OFFCURVE",
"67 372 OFFCURVE",
"38 247 CURVE SMOOTH",
"9 122 OFFCURVE",
"63 -10 OFFCURVE",
"188 -10 CURVE SMOOTH",
"256 -10 OFFCURVE",
"316 18 OFFCURVE",
"370 129 CURVE",
"330 129 LINE",
"299 72 OFFCURVE",
"258 16 OFFCURVE",
"195 16 CURVE SMOOTH",
"127 16 OFFCURVE",
"96 119 OFFCURVE",
"123 237 CURVE SMOOTH",
"150 352 OFFCURVE",
"174 436 OFFCURVE",
"265 430 CURVE SMOOTH",
"293 428 OFFCURVE",
"319 401 OFFCURVE",
"316 370 CURVE",
"310 351 OFFCURVE",
"313 339 OFFCURVE",
"318 330 CURVE SMOOTH",
"329 310 OFFCURVE",
"352 299 OFFCURVE",
"373 308 CURVE SMOOTH",
"399 319 OFFCURVE",
"411 353 OFFCURVE",
"397 386 CURVE SMOOTH"
);
}
);
width = 403;
}
);
leftKerningGroup = lowercase_consonant;
rightMetricsKey = e;
unicode = 0063;
},
{
glyphname = ccedilla;
lastChange = "2022-06-21 15:32:50 +0000";
layers = (
{
components = (
{
name = c;
}
);
layerId = "A0FA55D0-E595-4D47-A77D-3C8049EF6A20";
paths = (
{
closed = 1;
nodes = (
"272 -179 OFFCURVE",
"299 -138 OFFCURVE",
"298 -99 CURVE SMOOTH",
"297 -61 OFFCURVE",
"276 -29 OFFCURVE",
"215 -29 CURVE",
"215 -16 LINE",
"229 12 LINE",
"186 27 LINE",
"155 -37 LINE",
"155 -58 LINE",
"197 -56 OFFCURVE",
"262 -60 OFFCURVE",
"267 -99 CURVE SMOOTH",
"273 -143 OFFCURVE",
"235 -163 OFFCURVE",
"216 -163 CURVE SMOOTH",
"193 -163 OFFCURVE",
"176 -148 OFFCURVE",
"163 -124 CURVE",
"141 -133 LINE",
"151 -159 OFFCURVE",
"176 -179 OFFCURVE",
"218 -179 CURVE SMOOTH"
);
}
);
width = 407;
},
{
associatedMasterId = "A0FA55D0-E595-4D47-A77D-3C8049EF6A20";
components = (
{
name = c;
}
);
layerId = "6B2104F7-FEBB-4FE8-9052-2B3AC0301521";
name = "Oct 27 20, 16:02";
paths = (
{
closed = 1;
nodes = (
"188 5 LINE",
"159 -65 LINE",
"159 -73 LINE",
"165 -71 OFFCURVE",
"182 -68 OFFCURVE",
"200 -68 CURVE SMOOTH",
"223 -68 OFFCURVE",
"261 -68 OFFCURVE",
"261 -93 CURVE SMOOTH",
"261 -139 OFFCURVE",
"222 -145 OFFCURVE",
"185 -145 CURVE SMOOTH",
"168 -145 OFFCURVE",
"150 -141 OFFCURVE",
"129 -131 CURVE",
"117 -156 LINE",
"139 -169 OFFCURVE",
"166 -176 OFFCURVE",
"197 -176 CURVE SMOOTH",
"239 -176 OFFCURVE",
"300 -152 OFFCURVE",
"303 -106 CURVE SMOOTH",
"307 -48 OFFCURVE",
"255 -24 OFFCURVE",
"219 -33 CURVE",
"211 -24 LINE",
"222 5 LINE"
);
}
);
width = 407;
},
{
components = (
{
name = c;
}
);
layerId = "715E6458-225A-4B30-851F-23A0A4A3DE49";
paths = (
{
closed = 1;
nodes = (
"144 -35 LINE",
"160 -8 LINE",
"119 11 LINE",
"82 -50 LINE",
"80 -71 LINE",
"122 -73 OFFCURVE",
"187 -83 OFFCURVE",
"188 -122 CURVE SMOOTH",
"189 -167 OFFCURVE",
"150 -183 OFFCURVE",
"131 -181 CURVE SMOOTH",
"108 -179 OFFCURVE",
"93 -162 OFFCURVE",
"82 -137 CURVE",
"59 -144 LINE",
"67 -171 OFFCURVE",
"90 -193 OFFCURVE",
"132 -197 CURVE SMOOTH",
"185 -202 OFFCURVE",
"216 -164 OFFCURVE",
"219 -125 CURVE SMOOTH",
"222 -87 OFFCURVE",
"203 -53 OFFCURVE",
"143 -48 CURVE"
);
}
);
width = 403;
}
);
leftMetricsKey = c;
rightMetricsKey = c;
unicode = 00E7;
},
{
glyphname = d;
lastChange = "2022-06-21 15:32:50 +0000";
layers = (
{
background = {
paths = (
{
closed = 1;
nodes = (
"276 -10 OFFCURVE",
"311 17 OFFCURVE",
"338 76 CURVE",
"338 0 LINE",
"492 56 LINE",
"492 79 LINE",
"433 79 LINE",
"411 98 LINE",
"411 600 LINE",
"271 600 LINE",
"271 572 LINE",
"319 572 LINE",
"338 550 LINE",
"338 423 LINE",
"310 441 OFFCURVE",
"272 450 OFFCURVE",
"229 450 CURVE SMOOTH",
"110 450 OFFCURVE",
"30 357 OFFCURVE",
"30 224 CURVE SMOOTH",
"30 93 OFFCURVE",
"100 -10 OFFCURVE",
"222 -10 CURVE SMOOTH"
);
},
{
closed = 1;
nodes = (
"217 24 OFFCURVE",
"207 26 OFFCURVE",
"197 31 CURVE SMOOTH",
"147 52 OFFCURVE",
"115 124 OFFCURVE",
"115 224 CURVE SMOOTH",
"115 341 OFFCURVE",
"157 424 OFFCURVE",
"239 424 CURVE SMOOTH",
"297 424 OFFCURVE",
"335 386 OFFCURVE",
"336 331 CURVE SMOOTH",
"338 173 LINE",
"338 127 LINE",
"315 83 OFFCURVE",
"297 55 OFFCURVE",
"277 40 CURVE SMOOTH",
"260 29 OFFCURVE",
"244 24 OFFCURVE",
"229 24 CURVE SMOOTH"
);
}
);
};
guideLines = (
{
position = "{233, -60}";
}
);
layerId = "A0FA55D0-E595-4D47-A77D-3C8049EF6A20";
paths = (
{
closed = 1;
nodes = (
"276 -10 OFFCURVE",
"311 17 OFFCURVE",
"338 76 CURVE",
"367 76 LINE",
"367 0 LINE",
"411 0 LINE",
"411 550 LINE",
"430 572 LINE",
"478 572 LINE",
"478 600 LINE",
"271 600 LINE",
"271 572 LINE",
"319 572 LINE",
"338 550 LINE",
"338 423 LINE",
"310 441 OFFCURVE",
"272 450 OFFCURVE",
"229 450 CURVE SMOOTH",
"110 450 OFFCURVE",
"30 357 OFFCURVE",
"30 224 CURVE SMOOTH",
"30 93 OFFCURVE",
"100 -10 OFFCURVE",
"222 -10 CURVE SMOOTH"
);
},
{
closed = 1;
nodes = (
"115 341 OFFCURVE",
"157 424 OFFCURVE",
"239 424 CURVE SMOOTH",
"297 424 OFFCURVE",
"335 386 OFFCURVE",
"336 331 CURVE SMOOTH",
"338 173 LINE",
"338 127 LINE",
"315 83 OFFCURVE",
"297 55 OFFCURVE",
"277 40 CURVE SMOOTH",
"260 29 OFFCURVE",
"244 24 OFFCURVE",
"229 24 CURVE SMOOTH",
"217 24 OFFCURVE",
"207 26 OFFCURVE",
"197 31 CURVE SMOOTH",
"147 52 OFFCURVE",
"115 124 OFFCURVE",
"115 224 CURVE SMOOTH"
);
}
);
width = 478;
},
{
associatedMasterId = "A0FA55D0-E595-4D47-A77D-3C8049EF6A20";
guideLines = (
{
position = "{223, -60}";
}
);
layerId = "967B9BAA-C3F1-4210-9B1A-3F192DAB1295";
name = "Apr 14 20, 15:51";
paths = (
{
closed = 1;
nodes = (
"401 98 LINE",
"401 550 LINE",
"420 572 LINE",
"468 572 LINE",
"468 600 LINE",
"261 600 LINE",
"261 572 LINE",
"309 572 LINE",
"328 550 LINE",
"328 423 LINE",
"300 441 OFFCURVE",
"262 450 OFFCURVE",
"219 450 CURVE SMOOTH",
"100 450 OFFCURVE",
"20 357 OFFCURVE",
"20 224 CURVE SMOOTH",
"20 93 OFFCURVE",
"90 -10 OFFCURVE",
"212 -10 CURVE SMOOTH",
"266 -10 OFFCURVE",
"301 17 OFFCURVE",
"328 76 CURVE",
"328 0 LINE",
"482 61 LINE",
"482 79 LINE",
"423 79 LINE"
);
},
{
closed = 1;
nodes = (
"250 29 OFFCURVE",
"234 24 OFFCURVE",
"219 24 CURVE SMOOTH",
"207 24 OFFCURVE",
"197 26 OFFCURVE",
"187 31 CURVE SMOOTH",
"137 52 OFFCURVE",
"105 124 OFFCURVE",
"105 224 CURVE SMOOTH",
"105 341 OFFCURVE",
"147 424 OFFCURVE",
"229 424 CURVE SMOOTH",
"287 424 OFFCURVE",
"325 386 OFFCURVE",
"326 331 CURVE SMOOTH",
"328 173 LINE",
"328 127 LINE",
"305 83 OFFCURVE",
"287 55 OFFCURVE",
"267 40 CURVE SMOOTH"
);
}
);
width = 492;
},
{
layerId = "715E6458-225A-4B30-851F-23A0A4A3DE49";
paths = (
{
closed = 1;
nodes = (
"380 53 LINE",
"420 248 LINE",
"459 439 LINE",
"492 600 LINE",
"344 600 LINE",
"344 572 LINE",
"394 572 LINE",
"413 547 LINE",
"386 415 LINE",
"366 434 OFFCURVE",
"334 450 OFFCURVE",
"290 450 CURVE SMOOTH",
"161 450 OFFCURVE",
"69 364 OFFCURVE",
"40 247 CURVE SMOOTH",
"9 122 OFFCURVE",
"45 -10 OFFCURVE",
"170 -10 CURVE SMOOTH",
"223 -10 OFFCURVE",
"268 24 OFFCURVE",
"315 82 CURVE",
"305 29 OFFCURVE",
"310 -10 OFFCURVE",
"354 -10 CURVE SMOOTH",
"372 -10 OFFCURVE",
"386 4 OFFCURVE",
"418 39 CURVE SMOOTH",
"489 117 LINE",
"456 117 LINE",
"388 45 LINE"
);
},
{
closed = 1;
nodes = (
"326 135 LINE",
"275 67 OFFCURVE",
"237 26 OFFCURVE",
"177 26 CURVE SMOOTH",
"109 26 OFFCURVE",
"98 119 OFFCURVE",
"125 237 CURVE SMOOTH",
"152 354 OFFCURVE",
"218 424 OFFCURVE",
"300 424 CURVE SMOOTH",
"348 424 OFFCURVE",
"378 385 OFFCURVE",
"367 331 CURVE SMOOTH",
"350 248 LINE"
);
}
);
width = 507;
}
);
leftKerningGroup = lowercase_consonant;
unicode = 0064;
},
{
glyphname = e;
lastChange = "2022-06-21 15:32:50 +0000";
layers = (
{
background = {
paths = (
{
closed = 1;
nodes = (
"312 -10 OFFCURVE",
"386 62 OFFCURVE",
"397 143 CURVE",
"374 151 LINE",
"345 77 OFFCURVE",
"276 29 OFFCURVE",
"231 29 CURVE SMOOTH",
"161 29 OFFCURVE",
"109 110 OFFCURVE",
"119 260 CURVE",
"443 260 LINE",
"443 290 LINE",
"409 290 LINE",
"396 370 OFFCURVE",
"336 450 OFFCURVE",
"231 450 CURVE SMOOTH",
"115 450 OFFCURVE",
"30 357 OFFCURVE",
"30 224 CURVE SMOOTH",
"30 92 OFFCURVE",
"107 -10 OFFCURVE",
"231 -10 CURVE SMOOTH"
);
},
{
closed = 1;
nodes = (
"130 364 OFFCURVE",
"168 423 OFFCURVE",
"231 423 CURVE SMOOTH",
"306 423 OFFCURVE",
"326 348 OFFCURVE",
"325 291 CURVE",
"119 291 LINE"
);
}
);
};
layerId = "A0FA55D0-E595-4D47-A77D-3C8049EF6A20";
paths = (
{
closed = 1;
nodes = (
"312 -10 OFFCURVE",
"386 62 OFFCURVE",
"397 143 CURVE",
"374 151 LINE",
"345 77 OFFCURVE",
"276 29 OFFCURVE",
"231 29 CURVE SMOOTH",
"161 29 OFFCURVE",
"109 110 OFFCURVE",
"119 260 CURVE",
"443 260 LINE",
"443 290 LINE",
"409 290 LINE",
"396 370 OFFCURVE",
"336 450 OFFCURVE",
"231 450 CURVE SMOOTH",
"115 450 OFFCURVE",
"30 357 OFFCURVE",
"30 224 CURVE SMOOTH",
"30 92 OFFCURVE",
"107 -10 OFFCURVE",
"231 -10 CURVE SMOOTH"
);
},
{
closed = 1;
nodes = (
"130 364 OFFCURVE",
"168 423 OFFCURVE",
"231 423 CURVE SMOOTH",
"306 423 OFFCURVE",
"326 348 OFFCURVE",
"325 291 CURVE",
"119 291 LINE"
);
}
);
width = 453;
},
{
associatedMasterId = "A0FA55D0-E595-4D47-A77D-3C8049EF6A20";
layerId = "E2C3A12F-48CA-4A16-A5FA-B4CD185BDD70";
name = "Apr 14 20, 15:54";
paths = (
{
closed = 1;
nodes = (
"266 29 OFFCURVE",
"221 29 CURVE SMOOTH",
"151 29 OFFCURVE",
"99 110 OFFCURVE",
"109 260 CURVE",
"401 260 LINE",
"401 348 OFFCURVE",
"339 450 OFFCURVE",
"221 450 CURVE SMOOTH",
"105 450 OFFCURVE",
"20 357 OFFCURVE",
"20 224 CURVE SMOOTH",
"20 92 OFFCURVE",
"97 -10 OFFCURVE",
"221 -10 CURVE SMOOTH",
"302 -10 OFFCURVE",
"376 62 OFFCURVE",
"387 143 CURVE",
"364 151 LINE",
"335 77 OFFCURVE"
);
},
{
closed = 1;
nodes = (
"296 423 OFFCURVE",
"316 348 OFFCURVE",
"315 291 CURVE",
"109 291 LINE",
"120 364 OFFCURVE",
"158 423 OFFCURVE",
"221 423 CURVE SMOOTH"
);
}
);
width = 421;
},
{
layerId = "715E6458-225A-4B30-851F-23A0A4A3DE49";
paths = (
{
closed = 1;
nodes = (
"476 260 LINE",
"476 291 LINE",
"439 291 LINE",
"430 379 OFFCURVE",
"375 451 OFFCURVE",
"282 451 CURVE SMOOTH",
"265 451 OFFCURVE",
"248 449 OFFCURVE",
"231 446 CURVE SMOOTH",
"138 427 OFFCURVE",
"65 351 OFFCURVE",
"38 247 CURVE SMOOTH",
"7 122 OFFCURVE",
"63 -10 OFFCURVE",
"188 -10 CURVE SMOOTH",
"256 -10 OFFCURVE",
"316 18 OFFCURVE",
"370 129 CURVE",
"330 129 LINE",
"299 72 OFFCURVE",
"258 16 OFFCURVE",
"195 16 CURVE SMOOTH",
"127 16 OFFCURVE",
"96 119 OFFCURVE",
"123 237 CURVE SMOOTH",
"129 260 LINE"
);
},
{
closed = 1;
nodes = (
"247 427 OFFCURVE",
"260 429 OFFCURVE",
"275 429 CURVE SMOOTH",
"326 429 OFFCURVE",
"356 370 OFFCURVE",
"357 291 CURVE",
"138 291 LINE",
"159 356 OFFCURVE",
"189 404 OFFCURVE",
"235 422 CURVE SMOOTH"
);
}
);
width = 476;
}
);
leftKerningGroup = lowercase_vowel;
unicode = 0065;
},
{
glyphname = f;
lastChange = "2022-06-21 15:32:50 +0000";
layers = (
{
background = {
paths = (
{
closed = 1;
nodes = (
"229 0 LINE",
"229 28 LINE",
"181 28 LINE",
"162 50 LINE",
"162 393 LINE",
"178 407 LINE",
"269 407 LINE",
"269 440 LINE",
"163 440 LINE",
"165 529 OFFCURVE",
"186 575 OFFCURVE",
"227 572 CURVE SMOOTH",
"244 570 OFFCURVE",
"254 560 OFFCURVE",
"260 538 CURVE",
"260 517 OFFCURVE",
"267 507 OFFCURVE",
"275 500 CURVE SMOOTH",
"292 485 OFFCURVE",
"317 482 OFFCURVE",
"335 498 CURVE SMOOTH",
"356 516 OFFCURVE",
"355 553 OFFCURVE",
"331 579 CURVE SMOOTH",
"310 602 OFFCURVE",
"276 606 OFFCURVE",
"227 603 CURVE SMOOTH",
"161 597 OFFCURVE",
"108 535 OFFCURVE",
"93 440 CURVE",
"27 440 LINE",
"27 407 LINE",
"72 407 LINE",
"89 393 LINE",
"89 50 LINE",
"70 28 LINE",
"20 28 LINE",
"21 0 LINE"
);
}
);
};
layerId = "A0FA55D0-E595-4D47-A77D-3C8049EF6A20";
paths = (
{
closed = 1;
nodes = (
"229 0 LINE",
"229 28 LINE",
"181 28 LINE",
"162 50 LINE",
"162 393 LINE",
"178 407 LINE",
"269 407 LINE",
"269 440 LINE",
"163 440 LINE",
"165 529 OFFCURVE",
"186 575 OFFCURVE",
"227 572 CURVE SMOOTH",
"244 570 OFFCURVE",
"254 560 OFFCURVE",
"260 538 CURVE",
"260 517 OFFCURVE",
"267 507 OFFCURVE",
"275 500 CURVE SMOOTH",
"292 485 OFFCURVE",
"317 482 OFFCURVE",
"335 498 CURVE SMOOTH",
"356 516 OFFCURVE",
"355 553 OFFCURVE",
"331 579 CURVE SMOOTH",
"310 602 OFFCURVE",
"276 606 OFFCURVE",
"227 603 CURVE SMOOTH",
"161 597 OFFCURVE",
"108 535 OFFCURVE",
"93 440 CURVE",
"27 440 LINE",
"27 407 LINE",
"72 407 LINE",
"89 393 LINE",
"89 50 LINE",
"70 28 LINE",
"20 28 LINE",
"21 0 LINE"
);
}
);
width = 290;
},
{
associatedMasterId = "A0FA55D0-E595-4D47-A77D-3C8049EF6A20";
layerId = "67EF8E09-4A01-47D6-8399-A1C39D0E5004";
name = "Apr 14 20, 16:51";
paths = (
{
closed = 1;
nodes = (
"140 68 LINE",
"140 393 LINE",
"156 407 LINE",
"247 407 LINE",
"247 440 LINE",
"141 440 LINE",
"143 529 OFFCURVE",
"164 575 OFFCURVE",
"205 572 CURVE SMOOTH",
"222 570 OFFCURVE",
"232 560 OFFCURVE",
"238 538 CURVE",
"238 517 OFFCURVE",
"245 507 OFFCURVE",
"253 500 CURVE SMOOTH",
"270 485 OFFCURVE",
"295 482 OFFCURVE",
"313 498 CURVE SMOOTH",
"334 516 OFFCURVE",
"333 553 OFFCURVE",
"309 579 CURVE SMOOTH",
"288 602 OFFCURVE",
"254 606 OFFCURVE",
"205 603 CURVE",
"139 597 OFFCURVE",
"86 535 OFFCURVE",
"71 440 CURVE",
"5 440 LINE",
"5 407 LINE",
"50 407 LINE",
"67 393 LINE",
"67 67 LINE"
);
},
{
closed = 1;
nodes = (
"67 133 LINE",
"67 50 LINE",
"67 0 LINE",
"207 0 LINE",
"207 28 LINE",
"159 28 LINE",
"140 50 LINE",
"140 79 LINE",
"140 133 LINE"
);
}
);
width = 258;
},
{
layerId = "715E6458-225A-4B30-851F-23A0A4A3DE49";
paths = (
{
closed = 1;
nodes = (
"83 0 LINE",
"160 393 LINE",
"162 393 LINE",
"178 407 LINE",
"249 407 LINE",
"249 440 LINE",
"170 440 LINE",
"187 541 OFFCURVE",
"206 587 OFFCURVE",
"250 579 CURVE SMOOTH",
"267 576 OFFCURVE",
"276 564 OFFCURVE",
"279 542 CURVE",
"278 521 OFFCURVE",
"283 511 OFFCURVE",
"290 503 CURVE SMOOTH",
"305 486 OFFCURVE",
"330 481 OFFCURVE",
"350 495 CURVE SMOOTH",
"372 510 OFFCURVE",
"375 547 OFFCURVE",
"354 576 CURVE SMOOTH",
"336 600 OFFCURVE",
"302 608 OFFCURVE",
"253 610 CURVE SMOOTH",
"173 614 OFFCURVE",
"119 537 OFFCURVE",
"100 440 CURVE",
"30 440 LINE",
"30 407 LINE",
"75 407 LINE",
"91 394 LINE",
"15 0 LINE"
);
}
);
width = 218;
}
);
unicode = 0066;
},
{
glyphname = g;
lastChange = "2022-06-21 15:32:50 +0000";
layers = (
{
background = {
paths = (
{
closed = 1;
nodes = (
"237 -159 OFFCURVE",
"241 -158 OFFCURVE",
"245 -158 CURVE SMOOTH",
"335 -151 OFFCURVE",
"412 -57 OFFCURVE",
"412 46 CURVE SMOOTH",
"412 194 LINE",
"411 440 LINE",
"389 440 LINE",
"357 405 LINE",
"327 430 OFFCURVE",
"283 450 OFFCURVE",
"229 450 CURVE SMOOTH",
"110 450 OFFCURVE",
"30 357 OFFCURVE",
"30 224 CURVE SMOOTH",
"30 64 OFFCURVE",
"109 -10 OFFCURVE",
"222 -10 CURVE SMOOTH",
"274 -10 OFFCURVE",
"312 17 OFFCURVE",
"338 76 CURVE",
"338 -40 OFFCURVE",
"339 -101 OFFCURVE",
"269 -121 CURVE SMOOTH",
"255 -125 OFFCURVE",
"244 -128 OFFCURVE",
"234 -128 CURVE SMOOTH",
"233 -128 LINE SMOOTH",
"216 -126 OFFCURVE",
"206 -116 OFFCURVE",
"200 -94 CURVE",
"200 -73 OFFCURVE",
"193 -63 OFFCURVE",
"185 -56 CURVE SMOOTH",
"168 -41 OFFCURVE",
"143 -38 OFFCURVE",
"125 -54 CURVE SMOOTH",
"104 -72 OFFCURVE",
"105 -109 OFFCURVE",
"129 -135 CURVE SMOOTH",
"150 -158 OFFCURVE",
"184 -162 OFFCURVE",
"233 -159 CURVE SMOOTH"
);
},
{
closed = 1;
nodes = (
"154 24 OFFCURVE",
"115 122 OFFCURVE",
"115 224 CURVE SMOOTH",
"115 341 OFFCURVE",
"157 424 OFFCURVE",
"239 424 CURVE SMOOTH",
"297 424 OFFCURVE",
"335 381 OFFCURVE",
"336 326 CURVE SMOOTH",
"338 194 LINE",
"338 126 LINE",
"308 66 OFFCURVE",
"281 24 OFFCURVE",
"229 24 CURVE SMOOTH"
);
}
);
};
layerId = "A0FA55D0-E595-4D47-A77D-3C8049EF6A20";
paths = (
{
closed = 1;
nodes = (
"237 -180 OFFCURVE",
"241 -179 OFFCURVE",
"245 -179 CURVE SMOOTH",
"335 -179 OFFCURVE",
"412 -78 OFFCURVE",
"412 46 CURVE SMOOTH",
"412 194 LINE",
"411 440 LINE",
"389 440 LINE",
"357 405 LINE",
"356 406 OFFCURVE",
"355 407 OFFCURVE",
"354 407 CURVE",
"324 431 OFFCURVE",
"281 450 OFFCURVE",
"229 450 CURVE SMOOTH",
"110 450 OFFCURVE",
"30 357 OFFCURVE",
"30 224 CURVE SMOOTH",
"30 64 OFFCURVE",
"109 -10 OFFCURVE",
"222 -10 CURVE SMOOTH",
"274 -10 OFFCURVE",
"312 17 OFFCURVE",
"338 76 CURVE",
"338 -61 OFFCURVE",
"339 -122 OFFCURVE",
"269 -142 CURVE SMOOTH",
"255 -146 OFFCURVE",
"244 -149 OFFCURVE",
"234 -149 CURVE SMOOTH",
"233 -149 LINE SMOOTH",
"216 -149 OFFCURVE",
"206 -137 OFFCURVE",
"200 -115 CURVE",
"200 -94 OFFCURVE",
"193 -84 OFFCURVE",
"185 -77 CURVE SMOOTH",
"168 -62 OFFCURVE",
"143 -59 OFFCURVE",
"125 -75 CURVE SMOOTH",
"104 -93 OFFCURVE",
"105 -130 OFFCURVE",
"129 -156 CURVE SMOOTH",
"150 -179 OFFCURVE",
"184 -180 OFFCURVE",
"233 -180 CURVE SMOOTH"
);
},
{
closed = 1;
nodes = (
"115 341 OFFCURVE",
"157 424 OFFCURVE",
"239 424 CURVE SMOOTH",
"297 424 OFFCURVE",
"335 381 OFFCURVE",
"336 326 CURVE SMOOTH",
"338 194 LINE",
"338 126 LINE",
"308 66 OFFCURVE",
"281 24 OFFCURVE",
"229 24 CURVE SMOOTH",
"154 24 OFFCURVE",
"115 122 OFFCURVE",
"115 224 CURVE SMOOTH"
);
}
);
width = 472;
},
{
associatedMasterId = "A0FA55D0-E595-4D47-A77D-3C8049EF6A20";
layerId = "133E341F-A7F6-4A3D-B779-579ED403AA2F";
name = "1";
paths = (
{
closed = 1;
nodes = (
"450 49 LINE",
"450 21 LINE SMOOTH",
"450 4 OFFCURVE",
"449 -29 OFFCURVE",
"446 -60 CURVE SMOOTH",
"445 -69 OFFCURVE",
"439 -90 OFFCURVE",
"432 -111 CURVE SMOOTH",
"426 -128 OFFCURVE",
"414 -145 OFFCURVE",
"403 -154 CURVE",
"391 -163 OFFCURVE",
"373 -168 OFFCURVE",
"358 -166 CURVE SMOOTH",
"328 -162 OFFCURVE",
"299 -140 OFFCURVE",
"286 -112 CURVE",
"167 -112 LINE",
"167 -136 OFFCURVE",
"219 -168 OFFCURVE",
"297 -194 CURVE SMOOTH",
"315 -200 OFFCURVE",
"337 -204 OFFCURVE",
"353 -204 CURVE SMOOTH",
"385 -204 OFFCURVE",
"424 -192 OFFCURVE",
"452 -175 CURVE",
"513 -133 OFFCURVE",
"553 -55 OFFCURVE",
"547 22 CURVE SMOOTH",
"545 48 LINE"
);
},
{
closed = 1;
nodes = (
"214 35 OFFCURVE",
"152 141 OFFCURVE",
"152 301 CURVE SMOOTH",
"152 457 OFFCURVE",
"209 561 OFFCURVE",
"318 561 CURVE SMOOTH",
"395 561 OFFCURVE",
"446 511 OFFCURVE",
"447 437 CURVE SMOOTH",
"450 135 LINE",
"408 74 OFFCURVE",
"350 35 OFFCURVE",
"304 35 CURVE SMOOTH"
);
},
{
closed = 1;
nodes = (
"548 9 LINE",
"546 586 LINE",
"504 586 LINE",
"475 543 LINE",
"435 576 OFFCURVE",
"376 595 OFFCURVE",
"305 595 CURVE SMOOTH",
"146 595 OFFCURVE",
"40 478 OFFCURVE",
"40 302 CURVE SMOOTH",
"40 115 OFFCURVE",
"142 -10 OFFCURVE",
"295 -10 CURVE SMOOTH",
"359 -10 OFFCURVE",
"421 15 OFFCURVE",
"450 53 CURVE",
"450 9 LINE"
);
}
);
width = 638;
},
{
layerId = "715E6458-225A-4B30-851F-23A0A4A3DE49";
paths = (
{
closed = 1;
nodes = (
"437 440 LINE",
"405 387 LINE",
"394 416 OFFCURVE",
"354 450 OFFCURVE",
"290 450 CURVE SMOOTH",
"161 450 OFFCURVE",
"69 364 OFFCURVE",
"40 247 CURVE SMOOTH",
"9 122 OFFCURVE",
"45 -10 OFFCURVE",
"170 -10 CURVE SMOOTH",
"223 -10 OFFCURVE",
"268 24 OFFCURVE",
"315 82 CURVE",
"312 61 LINE",
"289 -54 LINE",
"271 -127 OFFCURVE",
"252 -161 OFFCURVE",
"216 -155 CURVE SMOOTH",
"199 -152 OFFCURVE",
"190 -140 OFFCURVE",
"187 -118 CURVE",
"188 -97 OFFCURVE",
"183 -87 OFFCURVE",
"176 -79 CURVE SMOOTH",
"161 -62 OFFCURVE",
"136 -57 OFFCURVE",
"116 -71 CURVE SMOOTH",
"94 -86 OFFCURVE",
"91 -123 OFFCURVE",
"112 -152 CURVE SMOOTH",
"130 -176 OFFCURVE",
"164 -184 OFFCURVE",
"213 -186 CURVE SMOOTH",
"276 -189 OFFCURVE",
"339 -138 OFFCURVE",
"358 -54 CURVE",
"459 440 LINE"
);
},
{
closed = 1;
nodes = (
"109 26 OFFCURVE",
"98 119 OFFCURVE",
"125 237 CURVE SMOOTH",
"152 354 OFFCURVE",
"218 424 OFFCURVE",
"300 424 CURVE SMOOTH",
"348 424 OFFCURVE",
"378 385 OFFCURVE",
"367 331 CURVE SMOOTH",
"326 135 LINE",
"275 67 OFFCURVE",
"237 26 OFFCURVE",
"177 26 CURVE SMOOTH"
);
}
);
width = 469;
}
);
leftKerningGroup = lowercase_consonant;
leftMetricsKey = o;
unicode = 0067;
},
{
glyphname = h;
lastChange = "2022-06-21 15:32:50 +0000";
layers = (
{
background = {
components = (
{
name = empattement_haut_gauche;
transform = "{1, 0, 0, 1, -10, 0}";
}
);
paths = (
{
closed = 1;
nodes = (
"231 0 LINE",
"231 28 LINE",
"183 28 LINE",
"164 50 LINE",
"164 306 LINE",
"191 380 OFFCURVE",
"218 408 OFFCURVE",
"263 411 CURVE SMOOTH",
"318 411 OFFCURVE",
"354 377 OFFCURVE",
"354 281 CURVE SMOOTH",
"354 40 LINE",
"345 28 LINE",
"285 28 LINE",
"285 0 LINE",
"494 0 LINE",
"494 28 LINE",
"436 28 LINE",
"427 40 LINE",
"427 331 LINE SMOOTH",
"427 404 OFFCURVE",
"369 450 OFFCURVE",
"289 450 CURVE SMOOTH",
"231 450 OFFCURVE",
"192 420 OFFCURVE",
"164 356 CURVE",
"164 481 LINE",
"91 481 LINE",
"91 50 LINE",
"72 28 LINE",
"22 28 LINE",
"22 0 LINE"
);
}
);
};
components = (
{
name = empattement_haut_gauche;
transform = "{1, 0, 0, 1, -10, 0}";
}
);
layerId = "A0FA55D0-E595-4D47-A77D-3C8049EF6A20";
paths = (
{
closed = 1;
nodes = (
"231 0 LINE",
"231 28 LINE",
"183 28 LINE",
"164 50 LINE",
"164 306 LINE",
"191 380 OFFCURVE",
"218 408 OFFCURVE",
"263 411 CURVE SMOOTH",
"318 411 OFFCURVE",
"354 377 OFFCURVE",
"354 281 CURVE SMOOTH",
"354 40 LINE",
"345 28 LINE",
"285 28 LINE",
"285 0 LINE",
"494 0 LINE",
"494 28 LINE",
"436 28 LINE",
"427 40 LINE",
"427 331 LINE SMOOTH",
"427 404 OFFCURVE",
"369 450 OFFCURVE",
"289 450 CURVE SMOOTH",
"231 450 OFFCURVE",
"192 420 OFFCURVE",
"164 356 CURVE",
"164 481 LINE",
"91 481 LINE",
"91 50 LINE",
"72 28 LINE",
"22 28 LINE",
"22 0 LINE"
);
}
);
width = 504;
},
{
associatedMasterId = "A0FA55D0-E595-4D47-A77D-3C8049EF6A20";
components = (
{
name = empattement_haut_gauche;
}
);
layerId = "C5CD130E-63C3-469F-96ED-F89FEB31A235";
name = "Apr 14 20, 16:46";
paths = (
{
closed = 1;
nodes = (
"101 481 LINE",
"101 50 LINE",
"101 0 LINE",
"241 0 LINE",
"241 28 LINE",
"193 28 LINE",
"174 50 LINE",
"174 306 LINE",
"201 380 OFFCURVE",
"228 408 OFFCURVE",
"273 411 CURVE SMOOTH",
"328 411 OFFCURVE",
"364 377 OFFCURVE",
"364 281 CURVE SMOOTH",
"364 40 LINE",
"364 0 LINE",
"504 0 LINE",
"504 28 LINE",
"446 28 LINE",
"437 40 LINE",
"437 331 LINE SMOOTH",
"437 404 OFFCURVE",
"379 450 OFFCURVE",
"299 450 CURVE SMOOTH",
"241 450 OFFCURVE",
"202 420 OFFCURVE",
"174 356 CURVE",
"174 481 LINE"
);
}
);
width = 514;
},
{
layerId = "715E6458-225A-4B30-851F-23A0A4A3DE49";
paths = (
{
closed = 1;
nodes = (
"158 359 LINE",
"205 600 LINE",
"53 600 LINE",
"53 572 LINE",
"103 572 LINE",
"122 547 LINE",
"76 309 LINE"
);
},
{
closed = 1;
nodes = (
"80 329 LINE",
"15 0 LINE",
"84 0 LINE",
"148 315 LINE",
"172 362 OFFCURVE",
"212 408 OFFCURVE",
"248 411 CURVE",
"303 411 OFFCURVE",
"330 355 OFFCURVE",
"314 264 CURVE",
"279 90 LINE",
"266 33 OFFCURVE",
"270 -10 OFFCURVE",
"316 -10 CURVE SMOOTH",
"334 -10 OFFCURVE",
"347 5 OFFCURVE",
"380 39 CURVE SMOOTH",
"454 117 LINE",
"418 117 LINE",
"350 45 LINE",
"342 53 LINE",
"393 293 LINE SMOOTH",
"409 370 OFFCURVE",
"374 450 OFFCURVE",
"274 450 CURVE SMOOTH",
"212 450 OFFCURVE",
"178 407 OFFCURVE",
"160 378 CURVE",
"161 389 OFFCURVE",
"162 399 OFFCURVE",
"161 408 CURVE"
);
}
);
width = 469;
}
);
leftKerningGroup = lowercase_consonant;
leftMetricsKey = n;
rightMetricsKey = n;
unicode = 0068;
},
{
glyphname = i;
lastChange = "2022-06-21 15:32:50 +0000";
layers = (
{
associatedMasterId = "A0FA55D0-E595-4D47-A77D-3C8049EF6A20";
background = {
components = (
{
name = dotaccentcomb;
transform = "{1, 0, 0, 1, -36, 0}";
}
);
paths = (
{
closed = 1;
nodes = (
"231 0 LINE",
"231 28 LINE",
"183 28 LINE",
"164 50 LINE",
"164 440 LINE",
"10 384 LINE",
"10 361 LINE",
"69 361 LINE",
"91 342 LINE",
"91 50 LINE",
"72 28 LINE",
"22 28 LINE",
"22 0 LINE"
);
}
);
};
backgroundImage = {
imagePath = "../../../../Desktop/Capture d’écran 2020-10-21 à 12.05.52.png";
locked = "1";
transform = "{4.16296, 0, 0, 4.16296, -212, 277}";
};
layerId = "5A9E259A-7D01-4020-B538-0D5B9434DCF0";
name = "Oct 21 20, 12:17";
paths = (
{
closed = 1;
nodes = (
"164 50 LINE",
"164 406 LINE",
"168 442 OFFCURVE",
"177 449 OFFCURVE",
"169 494 CURVE SMOOTH",
"159 548 OFFCURVE",
"108 595 OFFCURVE",
"108 674 CURVE",
"104 674 LINE",
"96 551 OFFCURVE",
"63 548 OFFCURVE",
"10 548 CURVE",
"10 544 LINE",
"178 544 OFFCURVE",
"159 473 OFFCURVE",
"141 435 CURVE SMOOTH",
"117 385 OFFCURVE",
"57 401 OFFCURVE",
"10 384 CURVE",
"10 361 LINE",
"69 361 LINE",
"91 342 LINE",
"91 50 LINE",
"72 28 LINE",
"22 28 LINE",
"22 0 LINE",
"231 0 LINE",
"231 28 LINE",
"183 28 LINE"
);
}
);
width = 241;
},
{
background = {
components = (
{
name = dotaccentcomb;
transform = "{1, 0, 0, 1, -36, 0}";
}
);
paths = (
{
closed = 1;
nodes = (
"231 0 LINE",
"231 28 LINE",
"183 28 LINE",
"164 50 LINE",
"164 440 LINE",
"10 384 LINE",
"10 361 LINE",
"69 361 LINE",
"91 342 LINE",
"91 50 LINE",
"72 28 LINE",
"22 28 LINE",
"22 0 LINE"
);
}
);
};
components = (
{
name = dotaccentcomb;
transform = "{1, 0, 0, 1, -10, 0}";
}
);
layerId = "A0FA55D0-E595-4D47-A77D-3C8049EF6A20";
paths = (
{
closed = 1;
nodes = (
"231 0 LINE",
"231 28 LINE",
"183 28 LINE",
"164 50 LINE",
"164 440 LINE",
"10 384 LINE",
"10 361 LINE",
"69 361 LINE",
"91 342 LINE",
"91 50 LINE",
"72 28 LINE",
"22 28 LINE",
"22 0 LINE"
);
}
);
width = 241;
},
{
components = (
{
name = dotaccentcomb;
transform = "{1, 0, 0, 1, 51, 0}";
}
);
layerId = "715E6458-225A-4B30-851F-23A0A4A3DE49";
paths = (
{
closed = 1;
nodes = (
"104 440 LINE",
"39 124 LINE",
"37 115 LINE",
"31 89 LINE SMOOTH",
"18 32 OFFCURVE",
"22 -10 OFFCURVE",
"68 -10 CURVE SMOOTH",
"86 -10 OFFCURVE",
"100 3 OFFCURVE",
"132 38 CURVE SMOOTH",
"204 116 LINE",
"170 116 LINE",
"102 44 LINE",
"94 52 LINE",
"105 105 LINE",
"109 121 LINE",
"174 440 LINE"
);
}
);
width = 238;
}
);
leftKerningGroup = lowercase_vowel;
unicode = 0069;
},
{
glyphname = iacute;
lastChange = "2022-06-21 15:32:50 +0000";
layers = (
{
components = (
{
name = acutecomb;
transform = "{1, 0, 0, 1, -5, 0}";
}
);
layerId = "A0FA55D0-E595-4D47-A77D-3C8049EF6A20";
paths = (
{
closed = 1;
nodes = (
"232 0 LINE",
"232 28 LINE",
"184 28 LINE",
"165 50 LINE",
"165 440 LINE",
"11 384 LINE",
"11 361 LINE",
"70 361 LINE",
"92 342 LINE",
"92 50 LINE",
"73 28 LINE",
"23 28 LINE",
"23 0 LINE"
);
}
);
width = 242;
},
{
components = (
{
name = acute;
transform = "{1, 0, 0, 1, 40, 0}";
}
);
layerId = "715E6458-225A-4B30-851F-23A0A4A3DE49";
paths = (
{
closed = 1;
nodes = (
"104 440 LINE",
"39 124 LINE",
"37 115 LINE",
"31 89 LINE SMOOTH",
"18 32 OFFCURVE",
"22 -10 OFFCURVE",
"68 -10 CURVE SMOOTH",
"86 -10 OFFCURVE",
"100 3 OFFCURVE",
"132 38 CURVE SMOOTH",
"204 116 LINE",
"170 116 LINE",
"102 44 LINE",
"94 52 LINE",
"105 105 LINE",
"109 121 LINE",
"174 440 LINE"
);
}
);
width = 242;
}
);
leftMetricsKey = i;
unicode = 00ED;
},
{
glyphname = icircumflex;
lastChange = "2022-06-21 15:32:50 +0000";
layers = (
{
background = {
components = (
{
name = circumflexcomb;
transform = "{1, 0, 0, 1, -100, 0}";
}
);
paths = (
{
closed = 1;
nodes = (
"256 0 LINE",
"256 28 LINE",
"208 28 LINE",
"189 50 LINE",
"189 440 LINE",
"35 384 LINE",
"35 361 LINE",
"94 361 LINE",
"116 342 LINE",
"116 50 LINE",
"97 28 LINE",
"47 28 LINE",
"47 0 LINE"
);
}
);
};
components = (
{
name = circumflexcomb;
transform = "{1, 0, 0, 1, -110, 0}";
}
);
layerId = "A0FA55D0-E595-4D47-A77D-3C8049EF6A20";
paths = (
{
closed = 1;
nodes = (
"256 0 LINE",
"256 28 LINE",
"208 28 LINE",
"189 50 LINE",
"189 440 LINE",
"35 384 LINE",
"35 361 LINE",
"94 361 LINE",
"116 342 LINE",
"116 50 LINE",
"97 28 LINE",
"47 28 LINE",
"47 0 LINE"
);
}
);
width = 292;
},
{
components = (
{
name = circumflexcomb;
transform = "{1, 0, 0, 1, -10, 0}";
}
);
layerId = "715E6458-225A-4B30-851F-23A0A4A3DE49";
paths = (
{
closed = 1;
nodes = (
"104 440 LINE",
"39 124 LINE",
"37 115 LINE",
"31 89 LINE SMOOTH",
"18 32 OFFCURVE",
"22 -10 OFFCURVE",
"68 -10 CURVE SMOOTH",
"86 -10 OFFCURVE",
"100 3 OFFCURVE",
"132 38 CURVE SMOOTH",
"204 116 LINE",
"170 116 LINE",
"102 44 LINE",
"94 52 LINE",
"105 105 LINE",
"109 121 LINE",
"174 440 LINE"
);
}
);
width = 242;
}
);
leftKerningGroup = lowercase_vowel;
leftMetricsKey = "=i-20";
unicode = 00EE;
},
{
glyphname = idieresis;
lastChange = "2022-06-21 15:32:50 +0000";
layers = (
{
background = {
components = (
{
name = dieresiscomb;
transform = "{1, 0, 0, 1, -103, 0}";
}
);
paths = (
{
closed = 1;
nodes = (
"263 0 LINE",
"263 28 LINE",
"215 28 LINE",
"196 50 LINE",
"196 440 LINE",
"42 384 LINE",
"42 361 LINE",
"101 361 LINE",
"123 342 LINE",
"123 50 LINE",
"104 28 LINE",
"54 28 LINE",
"54 0 LINE"
);
}
);
};
components = (
{
name = dieresiscomb;
transform = "{1, 0, 0, 1, -56, 0}";
}
);
layerId = "A0FA55D0-E595-4D47-A77D-3C8049EF6A20";
paths = (
{
closed = 1;
nodes = (
"273 0 LINE",
"273 28 LINE",
"225 28 LINE",
"206 50 LINE",
"206 440 LINE",
"52 384 LINE",
"52 361 LINE",
"111 361 LINE",
"133 342 LINE",
"133 50 LINE",
"114 28 LINE",
"64 28 LINE",
"64 0 LINE"
);
}
);
width = 277;
},
{
components = (
{
name = dieresiscomb;
transform = "{1, 0, 0, 1, 5, 0}";
}
);
layerId = "715E6458-225A-4B30-851F-23A0A4A3DE49";
paths = (
{
closed = 1;
nodes = (
"109 440 LINE",
"44 124 LINE",
"42 115 LINE",
"36 89 LINE SMOOTH",
"23 32 OFFCURVE",
"27 -10 OFFCURVE",
"73 -10 CURVE SMOOTH",
"91 -10 OFFCURVE",
"105 3 OFFCURVE",
"137 38 CURVE SMOOTH",
"209 116 LINE",
"175 116 LINE",
"107 44 LINE",
"99 52 LINE",
"110 105 LINE",
"114 121 LINE",
"179 440 LINE"
);
}
);
width = 247;
}
);
leftKerningGroup = lowercase_vowel;
unicode = 00EF;
},
{
glyphname = igrave;
lastChange = "2022-06-21 15:32:50 +0000";
layers = (
{
components = (
{
name = acutecomb;
transform = "{-1, 0, 0, 1, 217, 0}";
}
);
layerId = "A0FA55D0-E595-4D47-A77D-3C8049EF6A20";
paths = (
{
closed = 1;
nodes = (
"231 0 LINE",
"231 28 LINE",
"183 28 LINE",
"164 50 LINE",
"164 440 LINE",
"10 384 LINE",
"10 361 LINE",
"69 361 LINE",
"91 342 LINE",
"91 50 LINE",
"72 28 LINE",
"22 28 LINE",
"22 0 LINE"
);
}
);
width = 241;
},
{
components = (
{
name = gravecomb;
transform = "{1, 0, 0, 1, 100, 0}";
}
);
layerId = "715E6458-225A-4B30-851F-23A0A4A3DE49";
paths = (
{
closed = 1;
nodes = (
"104 440 LINE",
"39 124 LINE",
"37 115 LINE",
"31 89 LINE SMOOTH",
"18 32 OFFCURVE",
"22 -10 OFFCURVE",
"68 -10 CURVE SMOOTH",
"86 -10 OFFCURVE",
"100 3 OFFCURVE",
"132 38 CURVE SMOOTH",
"204 116 LINE",
"170 116 LINE",
"102 44 LINE",
"94 52 LINE",
"105 105 LINE",
"109 121 LINE",
"174 440 LINE"
);
}
);
width = 238;
}
);
unicode = 00EC;
},
